<?xml version="1.0" encoding="iso-8859-1"?>
<!-- Generator: Adobe Illustrator 16.0.0, SVG Export Plug-In . SVG Version: 6.00 Build 0)  -->
<!DOCTYPE svg PUBLIC "-//W3C//DTD SVG 1.1//EN" "http://www.w3.org/Graphics/SVG/1.1/DTD/svg11.dtd">
<svg version="1.1" id="Capa_1" xmlns="http://www.w3.org/2000/svg" xmlns:xlink="http://www.w3.org/1999/xlink" x="0px" y="0px"
	 width="484.684px" height="484.684px" viewBox="0 0 484.684 484.684" style="enable-background:new 0 0 484.684 484.684;"
	 xml:space="preserve">
<g>
	<g>
		<path d="M265.899,102.96c-6.144-7.192-15.125-11.341-24.581-11.341c-9.459,0-18.441,4.148-24.579,11.341L78.837,264.601
			c-8.561,10.029-12.247,23.341-10.062,36.348l25.033,149.315c2.611,15.567,16.082,26.878,31.865,26.878h120.269
			c-0.036-0.565,0.046-0.775,0.046-1.27V367.454c0-7.038,5.6-12.821,12.638-12.821h57.94c7.044,0,12.792,5.784,12.792,12.821
			v109.688h27.607c15.785,0,29.259-11.311,31.866-26.878l25.032-149.356c2.186-13.012-1.5-26.277-10.066-36.307L265.899,102.96z
			 M208.549,405.972c0,7.044-5.712,12.756-12.75,12.756h-44.261c-7.044,0-12.75-5.712-12.75-12.756v-44.261
			c0-7.038,5.707-12.75,12.75-12.75h44.261c7.038,0,12.75,5.712,12.75,12.75V405.972z"/>
		<path d="M477.804,227.033L306.504,36.5c-16.601-18.457-40.409-29.294-65.18-28.95c-24.822,0.063-48.533,10.725-65.036,29.264
			L6.793,227.131c-9.855,11.074-8.869,28.029,2.19,37.886c5.121,4.556,11.491,6.792,17.84,6.792c7.383,0,14.745-3.033,20.046-8.992
			l169.5-190.221c6.37-7.157,15.506-11.192,25.083-11.192c0.026,0,0.062,0,0.082,0c9.548,0,18.679,3.969,25.063,11.069
			L437.902,262.96c9.902,11.039,26.884,11.907,37.891,1.99C486.812,255.048,487.711,238.061,477.804,227.033z"/>
	</g>
</g>
<g>
</g>
<g>
</g>
<g>
</g>
<g>
</g>
<g>
</g>
<g>
</g>
<g>
</g>
<g>
</g>
<g>
</g>
<g>
</g>
<g>
</g>
<g>
</g>
<g>
</g>
<g>
</g>
<g>
</g>
</svg>
