<?xml version="1.0" encoding="iso-8859-1"?>
<!-- Generator: Adobe Illustrator 18.0.0, SVG Export Plug-In . SVG Version: 6.00 Build 0)  -->
<!DOCTYPE svg PUBLIC "-//W3C//DTD SVG 1.1//EN" "http://www.w3.org/Graphics/SVG/1.1/DTD/svg11.dtd">
<svg version="1.1" id="Capa_1" xmlns="http://www.w3.org/2000/svg" xmlns:xlink="http://www.w3.org/1999/xlink" x="0px" y="0px"
	 viewBox="0 0 297 297" style="enable-background:new 0 0 297 297;" xml:space="preserve">
<path d="M220.871,158.855l-48.058-12.013v-5.751c4.737-3.676,9.169-8.444,13.143-14.249c1.199-1.749,2.322-3.563,3.38-5.415
	c4.525,3.402,10.145,5.419,16.227,5.419c14.925,0,27.066-12.142,27.066-27.064c0-7.075-2.732-13.522-7.191-18.349
	c3.27-4.474,5.207-9.98,5.207-15.935c0-12.988-9.199-23.866-21.422-26.47c0.05-0.672,0.084-1.353,0.084-2.039
	c0-14.924-12.142-27.065-27.064-27.065c-3.795,0-7.409,0.788-10.689,2.204C166.699,4.826,158.403,0,148.996,0
	c-9.406,0-17.704,4.826-22.556,12.129c-3.282-1.416-6.895-2.204-10.689-2.204c-14.925,0-27.066,12.142-27.066,27.065
	c0,0.687,0.034,1.367,0.086,2.039c-12.224,2.604-21.422,13.481-21.422,26.47c0,5.692,1.771,10.976,4.782,15.339
	c-4.795,4.885-7.76,11.574-7.76,18.944c0,14.923,12.142,27.064,27.066,27.064c6.398,0,12.276-2.235,16.915-5.96
	c1.146,2.04,2.368,4.035,3.685,5.956c3.975,5.805,8.405,10.573,13.141,14.249v5.751L77.12,158.855
	c-2.778,0.696-5.123,2.559-6.429,5.11c-1.305,2.552-1.443,5.542-0.378,8.204l27.787,69.469c1.508,3.768,5.157,6.238,9.215,6.238
	h31.757v29.275h-22.826c-5.48,0-9.924,4.443-9.924,9.924c0,5.48,4.443,9.924,9.924,9.924h65.499c5.48,0,9.924-4.443,9.924-9.924
	c0-5.48-4.443-9.924-9.924-9.924H158.92v-29.275h31.758c4.059,0,7.707-2.471,9.215-6.238l27.787-69.469
	c1.063-2.662,0.927-5.652-0.38-8.204C225.996,161.414,223.651,159.552,220.871,158.855z M205.563,106.999
	c-3.979,0-7.217-3.238-7.217-7.217c0-3.98,3.238-7.217,7.217-7.217c3.981,0,7.218,3.237,7.218,7.217
	C212.78,103.761,209.544,106.999,205.563,106.999z M203.578,72.716c-3.979,0-7.217-3.237-7.217-7.217
	c0-3.979,3.238-7.217,7.217-7.217c3.98,0,7.217,3.238,7.217,7.217C210.795,69.479,207.558,72.716,203.578,72.716z M182.242,29.773
	c3.979,0,7.218,3.236,7.218,7.217c0,3.979-3.238,7.217-7.218,7.217c-3.98,0-7.217-3.237-7.217-7.217
	C175.025,33.01,178.262,29.773,182.242,29.773z M148.996,19.85c3.98,0,7.217,3.236,7.217,7.216s-3.236,7.218-7.217,7.218
	c-3.979,0-7.218-3.238-7.218-7.218S145.017,19.85,148.996,19.85z M115.751,29.773c3.979,0,7.217,3.236,7.217,7.217
	c0,3.979-3.238,7.217-7.217,7.217s-7.217-3.237-7.217-7.217C108.534,33.01,111.772,29.773,115.751,29.773z M94.413,58.282
	c3.98,0,7.219,3.238,7.219,7.217c0,3.979-3.238,7.217-7.219,7.217c-3.979,0-7.217-3.237-7.217-7.217
	C87.196,61.521,90.435,58.282,94.413,58.282z M91.438,106.999c-3.981,0-7.218-3.238-7.218-7.217c0-3.98,3.236-7.217,7.218-7.217
	c3.979,0,7.217,3.237,7.217,7.217C98.654,103.761,95.416,106.999,91.438,106.999z M118.23,85.685
	c0-16.965,13.802-30.766,30.766-30.766c16.965,0,30.765,13.801,30.765,30.766c0,18.537-15.502,44.327-30.765,44.327
	C133.734,130.012,118.23,104.222,118.23,85.685z M183.959,228.029h-69.925l-21.071-52.676l44.547-11.136
	c4.418-1.105,7.517-5.074,7.517-9.628v-4.984c1.316,0.154,2.641,0.254,3.97,0.254c1.33,0,2.652-0.1,3.971-0.254v4.984
	c0,4.554,3.099,8.523,7.517,9.628l44.545,11.136L183.959,228.029z"/>
<g>
</g>
<g>
</g>
<g>
</g>
<g>
</g>
<g>
</g>
<g>
</g>
<g>
</g>
<g>
</g>
<g>
</g>
<g>
</g>
<g>
</g>
<g>
</g>
<g>
</g>
<g>
</g>
<g>
</g>
</svg>
