<?xml version="1.0" encoding="iso-8859-1"?>
<!-- Generator: Adobe Illustrator 16.0.0, SVG Export Plug-In . SVG Version: 6.00 Build 0)  -->
<!DOCTYPE svg PUBLIC "-//W3C//DTD SVG 1.1//EN" "http://www.w3.org/Graphics/SVG/1.1/DTD/svg11.dtd">
<svg version="1.1" id="Capa_1" xmlns="http://www.w3.org/2000/svg" xmlns:xlink="http://www.w3.org/1999/xlink" x="0px" y="0px"
	 width="32.003px" height="32.003px" viewBox="0 0 32.003 32.003" style="enable-background:new 0 0 32.003 32.003;"
	 xml:space="preserve">
<g>
	<g id="Leaf">
		<g>
			<path d="M16.828,0.411c-0.372-0.548-1.28-0.548-1.652,0C14.861,0.87,7.501,11.788,7.501,21.495c0,4.353,3.283,7.945,7.5,8.443
				v1.063c0,0.554,0.448,1.001,1,1.001s1-0.447,1-1.001v-1.063c4.217-0.498,7.5-4.092,7.5-8.443
				C24.501,11.788,17.142,0.87,16.828,0.411z M17.001,27.916v-3.505l2.707-2.709c0.391-0.393,0.391-1.024,0-1.416
				c-0.391-0.391-1.023-0.391-1.414,0l-1.293,1.295v-4.178l2.707-2.709c0.391-0.393,0.391-1.023,0-1.416
				c-0.391-0.391-1.023-0.391-1.414,0l-1.293,1.296V8.98c0-0.554-0.448-1.001-1-1.001s-1,0.447-1,1.001v5.594l-1.293-1.296
				c-0.391-0.391-1.023-0.391-1.414,0c-0.391,0.393-0.391,1.023,0,1.416l2.707,2.709v4.178l-1.293-1.295
				c-0.391-0.391-1.023-0.391-1.414,0c-0.391,0.392-0.391,1.023,0,1.416l2.707,2.709v3.505c-3.11-0.482-5.5-3.175-5.5-6.421
				c0-7.223,4.584-15.505,6.5-18.652c1.916,3.147,6.5,11.43,6.5,18.652C22.501,24.741,20.111,27.434,17.001,27.916z"/>
		</g>
	</g>
</g>
<g>
</g>
<g>
</g>
<g>
</g>
<g>
</g>
<g>
</g>
<g>
</g>
<g>
</g>
<g>
</g>
<g>
</g>
<g>
</g>
<g>
</g>
<g>
</g>
<g>
</g>
<g>
</g>
<g>
</g>
</svg>
