<?xml version="1.0" ?><svg height="105px" version="1.1" viewBox="0 0 105 105" width="105px" xmlns="http://www.w3.org/2000/svg" xmlns:sketch="http://www.bohemiancoding.com/sketch/ns" xmlns:xlink="http://www.w3.org/1999/xlink"><title/><defs/><g fill="none" fill-rule="evenodd" id="Imoticon" stroke="none" stroke-width="1"><path d="M52,94 C75.1959606,94 94,75.1959606 94,52 C94,28.8040394 75.1959606,10 52,10 C28.8040394,10 10,28.8040394 10,52 C10,75.1959606 28.8040394,94 52,94 Z M52,83 C67.4639738,83 79,72.0832618 79,58 C79,56.5 67.4639738,61.4228513 52,61.4228513 C36.5360262,61.4228513 25,56.5 25,58 C25,72.0832618 36.5360262,83 52,83 Z M40.5,52 C42.9852815,52 45,46.8512749 45,40.5 C45,34.1487251 42.9852815,29 40.5,29 C38.0147185,29 36,34.1487251 36,40.5 C36,46.8512749 38.0147185,52 40.5,52 Z M63.5,52 C65.9852815,52 68,46.8512749 68,40.5 C68,34.1487251 65.9852815,29 63.5,29 C61.0147185,29 59,34.1487251 59,40.5 C59,46.8512749 61.0147185,52 63.5,52 Z M63.5,52" fill="#000000" id="imoticon_2"/></g></svg>