<?xml version="1.0" ?><!DOCTYPE svg  PUBLIC '-//W3C//DTD SVG 1.1//EN'  'http://www.w3.org/Graphics/SVG/1.1/DTD/svg11.dtd'><svg enable-background="new 0 0 512 512" height="512px" id="Layer_1" version="1.1" viewBox="0 0 512 512" width="512px" xml:space="preserve" xmlns="http://www.w3.org/2000/svg" xmlns:xlink="http://www.w3.org/1999/xlink"><g><path d="M256,64C149.969,64,64,149.968,64,256c0,106.031,85.969,192,192,192s192-85.969,192-192   C448,149.968,362.031,64,256,64z M384,256c0,17.675-14.312,32-32,32H160c-17.675,0-32-14.325-32-32v-64c0-17.675,14.325-32,32-32   h192c17.688,0,32,14.325,32,32V256z M304,192c-8.844,0-16,7.156-16,16v32c0,8.843,7.156,16,16,16s16-7.157,16-16v-32   C320,199.156,312.844,192,304,192z M208,192c-8.844,0-16,7.156-16,16v32c0,8.843,7.156,16,16,16s16-7.157,16-16v-32   C224,199.156,216.844,192,208,192z" fill="#1D1D1B"/></g></svg>