<?xml version="1.0" ?><!DOCTYPE svg  PUBLIC '-//W3C//DTD SVG 1.1//EN'  'http://www.w3.org/Graphics/SVG/1.1/DTD/svg11.dtd'><svg enable-background="new 0 0 512 512" height="512px" version="1.1" viewBox="0 0 512 512" width="512px" xml:space="preserve" xmlns="http://www.w3.org/2000/svg" xmlns:xlink="http://www.w3.org/1999/xlink"><g id="Background_2_"><g id="Background_1_"><g id="Background"><circle cx="256" cy="256" fill="#D99AC4" r="256"/></g></g></g><g id="Ogi_x5F_07"><ellipse cx="262.456" cy="449.033" fill="#BF71A9" rx="145.56" ry="7.92"/><g><linearGradient gradientUnits="userSpaceOnUse" id="SVGID_1_" x1="374.7444" x2="81.4621" y1="466.3242" y2="344.0078"><stop offset="0" style="stop-color:#B267A1"/><stop offset="0.6662" style="stop-color:#B0669F;stop-opacity:0.3338"/><stop offset="0.9386" style="stop-color:#A96299;stop-opacity:0.0614"/><stop offset="1" style="stop-color:#A66196;stop-opacity:0"/></linearGradient><path d="M294.087,427.297c-23.348-2.486-46.787-3.129-52.693-3.258c-0.005,0-0.012,0-0.017-0.002    c-0.357-0.006-0.648-0.014-0.871-0.016c-0.063-0.002-0.119-0.004-0.172-0.004c-0.026,0-0.056-0.002-0.079-0.002    c-0.042,0-0.074-0.002-0.107-0.002c-0.063-0.002-0.108-0.002-0.136-0.002c-0.028-0.002-0.049-0.002-0.049-0.002l34.467,6.641l0,0    l18.8,3.621c0,0,0,0,6.407-0.018c6.431-0.021,6.505,0.879,6.505,0.879s0.259,1.275,1.68,1.791    c1.434,0.518,17.48,1.748,22.693-1.068c5.014-2.709-17.121-6.01-17.121-6.01c-6.215-1.01-12.777-1.848-19.32-2.539    C294.077,427.303,294.082,427.299,294.087,427.297z" fill="url(#SVGID_1_)"/><linearGradient gradientUnits="userSpaceOnUse" id="SVGID_2_" x1="365.9368" x2="72.6532" y1="487.4424" y2="365.1253"><stop offset="0" style="stop-color:#B267A1"/><stop offset="0.6662" style="stop-color:#B0669F;stop-opacity:0.3338"/><stop offset="0.9386" style="stop-color:#A96299;stop-opacity:0.0614"/><stop offset="1" style="stop-color:#A66196;stop-opacity:0"/></linearGradient><path d="M340.679,447.176l-43.587-10.633c-0.005,0.006-0.013,0.01-0.019,0.016l-0.056-0.014    c0.042-0.025,0.085-0.051,0.127-0.078l-56.646-12.346c0,0-0.728,0.051-2.031,0.135l0.822-0.178    c-0.447,0.035-0.879,0.066-1.314,0.1c17.321-1.773,26.953-4.785,27.149-8.133c6.153,1.652,12.314,3.623,18.318,5.994    c0.065,0.016,0.106,0.033,0.159,0.049c0.07,0.023,0.136,0.047,0.187,0.07c0.049,0.023,0.098,0.047,0.13,0.07    c0.076,0.051,0.116,0.104,0.14,0.156c2.396,0.936,4.8,1.936,7.204,3.008c0.775,0.105,1.44,0.143,1.988,0.109    c1.399-0.162,1.406-0.559,1.215-0.982c-0.893-1.955-1.736-3.863-4.371-5.842c-2.059-1.545-2.764-3.012-6.749-4.58l-38.641-12.465    c-2.853-0.65-5.975-1.174-9.234-1.594c2.282-0.553,2.069-0.883,2.023-0.93c0,0,0,0,0,0c-0.001-0.002-0.003-0.002-0.004-0.004    c0,0-0.001-0.002-0.001-0.002l-89.482-3.996c0.669-0.24,0.825-0.49,0.323-0.732c-1.706-0.824-10.192-1.254-18.968-0.977    c-0.808,0.025-1.584,0.059-2.343,0.094c-0.055,0.002-0.116,0.004-0.171,0.008c0.012,0,0.023,0,0.035,0    c-7.376,0.352-12.161,1.145-10.939,1.896c0.716,0.441,3.355,0.777,6.991,0.963l-12.084,4.254c0,0-0.001,0-0.002,0l-6.89,2.426    h0.001l-6.667,2.348c0,0-0.001,0-0.002,0l-4.112,1.447c0,0,1.604,0.193,5.841,0.348c-1.077,0.859-2.109,1.742-2.891,2.67    c-1.01,1.201-0.385,2.355,2.901,3.477l3.769,1.291l47.507,15.445c0.007-0.02,0.017-0.041,0.021-0.063    c-8.625-4.488-13.972-7.631-17.233-9.832c13.437,2.857,33.563,4.916,55.59,5.488c-1.354-0.012-2.767-0.027-4.261-0.047    l0.688,0.055c-0.574-0.014-1.149-0.027-1.717-0.043l-1.979,13.357c0,0,0.106,0.02,0.298,0.055l2.531,7.949l0.106,0.408    c0.008,0.002,0.017,0.002,0.026,0.004l1.169,3.668c0,0,4.791,4.449,63.116-1.438l-3.416-2.965l-1.198-1.104    c7.015,0.143,14.026,0.018,20.684-0.5l8.253,2.65c0.029,0,0.057,0,0.085,0l3.774,1.213    C354.229,451.49,340.679,447.176,340.679,447.176z M290.973,439.672c2.216-0.912,4.241-1.951,6.045-3.125    C295.767,437.73,293.607,438.768,290.973,439.672z" fill="url(#SVGID_2_)"/><linearGradient gradientUnits="userSpaceOnUse" id="SVGID_3_" x1="355.4875" x2="62.2139" y1="512.4824" y2="390.1696"><stop offset="0" style="stop-color:#B267A1"/><stop offset="0.6662" style="stop-color:#B0669F;stop-opacity:0.3338"/><stop offset="0.9386" style="stop-color:#A96299;stop-opacity:0.0614"/><stop offset="1" style="stop-color:#A66196;stop-opacity:0"/></linearGradient><path d="M183.317,425.807c0,0-0.115,0.01-0.314,0.029l0.065-0.145c0,0-33.07,2.904-40.191,9.184    c0,0-6.026,4.051,8.814,6.15c15.486,2.189,24.501,0.271,23.7-0.258c-0.794-0.525-5.583-1.658-5.583-1.658    s-3.466-0.791,2.159-1.115c5.617-0.326,5.617-0.326,5.617-0.326l1.895-4.137c0.036,0,0.072,0.002,0.11,0.002L183.317,425.807z" fill="url(#SVGID_3_)"/></g><path d="M173.826,343.723c-5.328,5.232-10.157,11.293-13.896,18.266c0,0-12.706,20.492,0.847,32.967   c13.552,12.473,26.258,4.453,26.258,1.781c0-2.674-3.389-8.91-3.389-8.91s-2.541-4.455,4.235-5.346   c6.777-0.891,6.777-0.891,6.777-0.891l11.089-23.732C192.559,356.111,181.648,350.586,173.826,343.723z" fill="#E7BE9D"/><path d="M297.111,316.359c0,0,45.822,11.621,64.457,46.369c0,0,12.705,20.492-0.848,32.967   c-13.552,12.475-26.258,4.455-26.258,1.781s3.389-8.91,3.389-8.91s2.541-4.455-4.234-5.346c-6.777-0.891-6.777-0.891-6.777-0.891   L297.111,316.359z" fill="#DDB294"/><path d="M348.711,345.559c-21.339-21.523-51.601-29.199-51.601-29.199l16.962,44.189   C327.556,358.766,341.962,353.039,348.711,345.559z" fill="#0C9347"/><path d="M173.365,343.703c21.34-21.523,51.601-29.199,51.601-29.199l-16.736,44.189   C194.747,356.91,180.115,351.184,173.365,343.703z" fill="#10A64F"/><path d="M248.552,439.129c-5.298,0.891-10.857,1.367-16.59,1.367c-17.48,0-33.355-4.412-45.075-11.598   l-4.326,14.895c0,0-1.693,18.412,64.938,0.594L248.552,439.129z" fill="#E8BE9D"/><path d="M270.804,423.447l3.662,15.547c5.298,0.893,10.58,1.326,16.313,1.326c17.48,0,33.715-4.822,45.434-12.008   l-10.965-38.535C304.386,416.023,270.813,423.398,270.804,423.447z" fill="#BE1E2D"/><path d="M251.409,424.959l-2.857,14.17c-5.298,0.891-10.857,1.367-16.59,1.367c-17.48,0-33.355-4.412-45.075-11.598   l10.785-43.061C218.532,412.084,251.401,424.91,251.409,424.959z" fill="#BE1E2D"/><path d="M340.304,442.865l-4.201-14.488c-11.71,7.148-27.896,11.943-45.324,11.943   c-5.634,0-11.098-0.465-16.313-1.326l0.9,4.465C341.997,461.279,340.304,442.865,340.304,442.865z" fill="#E8BE9D"/><path d="M301.53,410.359c-16,9.805-30.72,13.057-30.726,13.088l3.662,15.547l0.9,4.465   c14.646,3.918,25.988,6.082,34.775,7.078L301.53,410.359z" fill="#3A3938" opacity="0.1"/><path d="M230.328,413.984l-9.993,36.416c7.48-1.219,16.431-3.145,27.163-6.014l1.054-5.258   l2.857-14.17C251.405,424.934,242.14,421.307,230.328,413.984z" fill="#3A3938" opacity="0.1"/><path d="M225.059,314.504l-28.163,73.951c0,0,57.597,81.078,128.746,2.672l-28.777-76.059   C296.865,315.068,253.858,323.414,225.059,314.504z" fill="#DB348F"/><path d="M211.106,370.107c0,26.6,21.948,48.162,49.021,48.162c27.075,0,49.022-21.563,49.022-48.162H211.106z" fill="#3FB54A"/><g><path d="M295.058,316.01l-26.11,17.029c0,0,0.488-7.447-5.772-11.662S264.46,322.68,295.058,316.01z" fill="#10A64F"/><path d="M226.032,316.01l26.109,17.029c0,0-0.488-7.447,5.773-11.662S256.631,322.68,226.032,316.01z" fill="#10A64F"/></g><path d="M262.857,318.549v106.738c18.569-0.283,39.981-9.029,62.785-34.16l-28.777-76.059   C296.865,315.068,281.427,318.064,262.857,318.549z" fill="#1E1E1E" opacity="0.1"/><ellipse cx="261.929" cy="226.947" fill="#E7BE9D" rx="99.688" ry="93.553"/><path d="M308.851,172.731c3.555-0.74,7.056-1.208,10.437-1.434c-4.072-0.723-10.218-0.809-19.377-0.011   c-13.866,1.207-25.22,7.62-25.22,17.021c0,1.713,0.379,3.367,1.076,4.927C279.17,184.595,292.082,176.222,308.851,172.731z" fill="#231F20"/><path d="M220.601,172.731c-3.556-0.74-7.056-1.208-10.438-1.434c4.072-0.723,10.218-0.809,19.377-0.011   c13.866,1.207,25.22,7.62,25.22,17.021c0,1.713-0.38,3.367-1.077,4.927C250.281,184.595,237.368,176.222,220.601,172.731z" fill="#231F20"/><g><path d="M260.405,226.886c-8.769,0-15.876,7.159-15.876,15.989c0,8.831,7.107,10.138,15.876,10.138    c8.77,0,15.877-1.307,15.877-10.138C276.281,234.045,269.174,226.886,260.405,226.886z" fill="#A97E52"/><ellipse cx="266.875" cy="245.241" fill="#3C2619" rx="4.175" ry="5.229"/><ellipse cx="260.615" cy="241.934" fill="#E7E7E7" opacity="0.15" rx="0.749" ry="5.423"/><path d="M268.435,241.764c0.692,0,1.346,0.215,1.92,0.589c-0.748-1.411-2.026-2.342-3.479-2.342    c-2.306,0-4.175,2.341-4.175,5.23c0,2.02,0.916,3.768,2.254,4.64c-0.438-0.828-0.694-1.82-0.694-2.887    C264.26,244.106,266.128,241.764,268.435,241.764z" fill="#8B603E"/><ellipse cx="254.4" cy="245.241" fill="#3C2619" rx="4.176" ry="5.229"/><path d="M252.839,241.764c-0.693,0-1.345,0.215-1.921,0.589c0.748-1.411,2.027-2.342,3.481-2.342    c2.305,0,4.173,2.341,4.173,5.23c0,2.02-0.915,3.768-2.254,4.64c0.438-0.828,0.696-1.82,0.696-2.887    C257.015,244.106,255.145,241.764,252.839,241.764z" fill="#8B603E"/></g><path d="M261.929,133.393c-0.219,0-0.435,0.006-0.652,0.008v187.091   c0.218,0.002,0.434,0.008,0.652,0.008c55.056,0,99.688-41.885,99.688-93.553C361.616,175.279,316.985,133.393,261.929,133.393z" fill="#1E1E1E" opacity="0.1"/><g><path d="M372.777,153.256c-11.833-60.528-80.401-75.737-117.231-72.617c-12.636,1.07-25.16,2.682-37.478,6.081    c0.858-2.605,0.712-6.23-6.014-7.251c0,0,5.559,1.361,0,6.027l-3.227-6.027c-0.041,0.522,0.328,4.995-0.65,6.027l-6.06-0.997    c0,0,4.461,3.412,5.14,3.989c0.288,0.244,0.496,0.861,0.641,1.491c-6.631,2.439-13.195,5.506-19.674,9.413    c-10.771,6.494-61.947,34.919-46.193,114.094l34.479,131.12c0.044-0.123,0.089-0.244,0.13-0.373    c-14.909-114.343-5.882-119.851-5.882-119.851l33.635,100.392c-7.778-169.21-17.28-130.939-6.622-147.281    c0.045-0.076,0.091-0.145,0.137-0.21c0.015-0.019,0.028-0.038,0.044-0.057c0.147-0.195,0.3-0.353,0.461-0.438    c2.915-2.208,21.646,27.571,77.211,100.444c-36.79-56.069-19.387-99.296-19.387-99.296c2.001,2.704,20.463,48.56,23.782,48.867    c-5.392-5.812,5.527-48.867,5.527-48.867s33.682,9.557,48.773,35.788c27.678,48.11,7.924,127.231,8.643,127.128    c2.084-0.746,23.18-41.055,27.035-61.959C382.32,212.072,372.777,153.256,372.777,153.256z" fill="#161616"/></g><path d="M258.659,80.426v102.486c5.622,12.491,18.625,43.639,21.359,43.892   c-5.392-5.812,5.527-48.867,5.527-48.867s33.682,9.557,48.773,35.788c27.678,48.11,7.924,127.231,8.643,127.128   c2.084-0.746,23.18-41.055,27.035-61.959c12.322-66.821,2.779-125.637,2.779-125.637C361.269,94.393,296.111,78.393,258.659,80.426   z" fill="#010101" opacity="0.3"/><path d="M263.877,275.309c-17.094,0-34.168-2.727-34.168-2.727s15.415,15.686,34.171,15.686   c18.758,0,34.188-15.686,34.188-15.686S280.974,275.309,263.877,275.309z" fill="#996B42"/><g><g><rect fill="#231F20" height="4.965" width="26.319" x="211.155" y="204.966"/></g><g><rect fill="#231F20" height="4.965" width="26.319" x="290.109" y="204.966"/></g></g><path d="M271.272,280.334h9.023c2.291,0,4.149-1.859,4.149-4.15l-0.704-3.447   c-5.071,1.012-10.558,1.695-16.305,1.975l-0.313,1.473C267.123,278.475,268.98,280.334,271.272,280.334z" fill="#FFFFFF"/><path d="M252.738,280.334h9.023c2.291,0,4.149-1.859,4.149-4.15l-0.286-1.398   c-5.818,0.193-11.406-0.045-16.599-0.654l-0.437,2.053C248.589,278.475,250.447,280.334,252.738,280.334z" fill="#FFFFFF"/><g><path d="M227.871,21.876L140.021,145c0,0,21.063,22.592,127.544,8.29c106.481-14.3,112.79-40.569,112.79-40.569    L227.871,21.876z" fill="#EC008C"/><path d="M226.22,115.615c-22.647,0-43.838,2.639-61.982-4.562L180.684,88c11.681,2.497,24.125,3.851,37.048,3.851    c33.992,0,64.692-9.334,86.717-24.349l25.964,15.469C302.593,103.167,270.492,115.615,226.22,115.615z" fill="#F6ADCD"/><path d="M227.546,68.45c-17.449,0.201-20.001-1.895-28.283-5.181l7.506-10.52    c5.331,1.139,11.005,1.757,16.905,1.757c15.509,0,29.516-4.259,39.568-11.11l11.849,7.058    C265.417,61.231,247.746,68.213,227.546,68.45z" fill="#F6ADCD"/><path d="M227.559,22.313l32.971,131.88c2.308-0.285,4.643-0.582,7.035-0.903    c106.481-14.3,112.79-40.569,112.79-40.569L227.871,21.876L227.559,22.313z" opacity="0.1"/><path d="M140.021,145l9.032-12.664c22.86,2.516,41.576,4.212,63.588,4.212c56.654,0,107.418-12.895,144.765-37.497    l22.949,13.669c0,0-6.309,26.27-112.79,40.569C161.084,167.592,140.021,145,140.021,145z" fill="#F6ADCD"/><path d="M227.871,21.876L140.021,145c0,0,21.063,22.592,127.544,8.29c106.481-14.3,112.79-40.569,112.79-40.569    L227.871,21.876z" fill="none"/><ellipse cx="231.311" cy="30.742" fill="#BE1E2D" rx="28.852" ry="19.239"/></g></g></svg>