<?xml version="1.0" ?><!DOCTYPE svg  PUBLIC '-//W3C//DTD SVG 1.1//EN'  'http://www.w3.org/Graphics/SVG/1.1/DTD/svg11.dtd'><svg enable-background="new 0 0 512 512" height="512px" version="1.1" viewBox="0 0 512 512" width="512px" xml:space="preserve" xmlns="http://www.w3.org/2000/svg" xmlns:xlink="http://www.w3.org/1999/xlink"><g id="Background_2_"><g id="Background_1_"><g id="Background"><circle cx="256" cy="256" fill="#A7A9AC" r="256"/></g></g></g><g id="Ogi_x5F_04"><ellipse cx="256.726" cy="423.261" fill="#666766" opacity="0.7" rx="187.167" ry="12.903"/><g opacity="0.7"><linearGradient gradientUnits="userSpaceOnUse" id="SVGID_1_" x1="265.3459" x2="62.0094" y1="437.5566" y2="370.07"><stop offset="0" style="stop-color:#666766"/><stop offset="1" style="stop-color:#000000;stop-opacity:0"/></linearGradient><path d="M288.602,415.671l-63.743-7.866c0.001,0.005,0,0.009,0.002,0.014l-0.074-0.009    c0.007-0.022,0.019-0.044,0.025-0.066l-65.524-7.247c0,0-0.609,0.075-1.692,0.2c-0.434,0.041-0.961,0.096-1.564,0.161    c13.297-1.966,18.52-4.677,14.698-7.165c7.09,0.876,14.715,2.003,22.863,3.458c0.085,0.01,0.147,0.021,0.218,0.032    c0.103,0.015,0.196,0.031,0.276,0.049c0.057,0.012,0.118,0.023,0.165,0.036c0.135,0.036,0.236,0.075,0.324,0.113    c3.351,0.594,6.825,1.242,10.427,1.952c0.869,0.046,1.551,0.045,2.038-0.004c1.142-0.188,0.653-0.493-0.062-0.81    c-3.287-1.455-6.446-2.867-11.336-4.226c-3.77-1.048-6.178-2.102-11.636-3.036l-45.5-6.443c-6.153-0.563-12.477-0.646-18.19-0.422    c-18.349,0.718-33.481,1.672-44.933,3.346c-0.29,0.042-0.577,0.085-0.864,0.127c0.025-0.004,0.051-0.007,0.076-0.01    c-3.485,0.514-6.794,1.04-9.788,1.617c-0.121-0.143-0.687-0.292-2.844-0.075c0,0,1.834-0.155,0.868,0.248h-1.08    c0.071,0.021,0.081,0.063-0.064,0.146l-1.912,0.186c0,0,1.788-0.024,2.07-0.025c0.125-0.001,0.28,0.02,0.417,0.042    c-1.613,0.353-3.12,0.726-4.459,1.13c-2.236,0.676-4.448,1.364-4.031,2.366c0.464,1.113,0.423,2.246,1.169,3.457    c0.434,0.705,1.652,1.329,4.198,1.848l2.959,0.605l31.815,6.222l7.01,1.37l1.06,0.207c-0.014-0.013-0.027-0.026-0.043-0.04    c-9.146-2.521-15.052-4.283-18.858-5.521c11.343,1.441,27.223,2.117,43.644,1.596c-2.558,0.116-5.12,0.204-7.625,0.247    l-0.149,0.055c0,0-18.478,2.761-17.207,6.81c0,0-0.059,2.615,11.099,3.707c12.216,1.195,16.502-0.188,15.437-0.525    c-1.052-0.332-5.377-0.99-5.377-0.99s-3.061-0.451,0.382-0.764c3.494-0.315,5.482-0.979,5.482-0.979l1.924,1.455    c0,0,0.09,0.011,0.262,0.031l9.643,5.26l0.499,0.282c0.007,0.001,0.015,0.001,0.021,0.002l4.539,2.476    c0,0,8.092,3.035,49.328-1.484l-6.433-2.166l-1.847-0.64c6.526,0.028,12.814-0.167,18.345-0.694l10.163,1.775    c0.027,0,0.055-0.001,0.082-0.001l5.189,0.906C312.748,419.379,288.602,415.671,288.602,415.671z M223.062,410.3    c0.856-0.74,1.442-1.568,1.726-2.49C225.04,408.731,224.34,409.562,223.062,410.3z" fill="url(#SVGID_1_)"/><linearGradient gradientUnits="userSpaceOnUse" id="SVGID_2_" x1="270.217" x2="66.8791" y1="422.8848" y2="355.3977"><stop offset="0" style="stop-color:#666766"/><stop offset="1" style="stop-color:#000000;stop-opacity:0"/></linearGradient><path d="M160.84,400.497c-0.063,0.002-0.119,0.003-0.176,0.004    c-0.304,0.009-0.521,0.015-0.646,0.019c-0.015,0.001-0.031,0.001-0.044,0.002c-0.059,0.001-0.097,0.002-0.097,0.002l36.917,3.661    h0l22.331,2.214c0,0,0,0,6.515-0.206c6.7-0.211,7.87,0.512,7.87,0.512s1.826,1.024,3.975,1.404    c2.182,0.384,21.689,0.984,24.11-1.547c2.365-2.472-26.792-4.383-26.792-4.383c-7.815-0.572-15.563-0.979-22.946-1.266    c0.001-0.002,0.003-0.004,0.004-0.006C186.694,399.924,165.501,400.377,160.84,400.497z" fill="url(#SVGID_2_)" opacity="0.05"/><linearGradient gradientUnits="userSpaceOnUse" id="SVGID_3_" x1="259.5579" x2="56.1004" y1="455.3896" y2="387.8629"><stop offset="0" style="stop-color:#666766"/><stop offset="1" style="stop-color:#000000;stop-opacity:0"/></linearGradient><path d="M61.183,389.645l0.571,0.001C61.609,389.598,61.183,389.645,61.183,389.645z" fill="url(#SVGID_3_)" opacity="0.05"/></g><g><path d="M210.281,295.666c0,0-43.396-10.588-74.583,9.856c0,0-19.818,11.282-14.198,27.771    c5.62,16.489,19.8,15.57,21.008,13.35c1.208-2.22,1.213-8.933,1.213-8.933s-0.097-4.85,5.935-2.528    c6.032,2.323,6.032,2.323,6.032,2.323L210.281,295.666z" fill="#E8BE9D"/><path d="M153.918,297.248c27.458-8.235,56.067-0.933,56.067-0.933l-36.519,27.71    C163.071,316.448,156.143,306.513,153.918,297.248z" fill="#2BACE2"/></g><g><path d="M275.915,296.956c0,0,41.447-16.767,75.094-0.688c0,0,21.152,8.523,17.794,25.617    c-3.359,17.093-17.534,18.083-19.029,16.045c-1.495-2.039-2.399-8.69-2.399-8.69s-0.555-4.819-6.221-1.708    c-5.666,3.11-5.666,3.11-5.666,3.11L275.915,296.956z" fill="#E8BE9D"/><path d="M331.642,290.242c-28.357-4.487-55.771,6.603-55.771,6.603l39.966,22.599    C325.136,310.527,330.677,299.736,331.642,290.242z" fill="#2BACE2"/></g><path d="M252.386,399.079l3.412,14.081c5.012,0.843,10.27,1.294,15.691,1.294c16.532,0,31.547-4.173,42.631-10.969   l-10.599-36.084C280.866,393.105,252.394,399.033,252.386,399.079z" fill="#2B2728"/><path d="M233.377,399.048l-2.701,13.401c-5.011,0.843-10.269,1.293-15.691,1.293   c-16.532,0-31.546-4.173-42.63-10.968l10.353-37.535C202.436,390.062,233.37,399.003,233.377,399.048z" fill="#2B2728"/><path d="M318.328,417.737l-14.807-50.336l10.599,36.084c-11.084,6.796-26.099,10.969-42.631,10.969   c-5.394,0-10.624-0.447-15.611-1.281l1.034,5.126C319.931,435.152,318.328,417.737,318.328,417.737z" fill="#E8BE9D"/><path d="M230.676,412.449c-5.011,0.843-10.269,1.293-15.691,1.293c-16.521,0-31.526-4.167-42.609-10.955   l-4.113,14.95c0,0-1.602,17.415,61.417,0.562l2.265-12.144L230.676,412.449z" fill="#E8BE9D"/><polygon fill="#C3996C" points="242.87,354.639 233.377,376.779 253.264,376.38  "/><path d="M242.87,375.236l-60.553-9.925c0,0,53.95,76.244,121.205,2.09L242.87,375.236z" fill="#231F20"/><path d="M276.866,295.905c0,0-40.676,7.893-67.914-0.533l-26.636,69.939l54.855,9.586l6.19-20.26l6.116,20.522   l-0.566,0.076l0,0l54.512-7.733L276.866,295.905z" fill="#2075BC"/><rect fill="#231F20" height="58.583" width="0.492" x="243.213" y="299.236"/><g><path d="M276.078,296.051l-25.206,15.505c0,0,2.133-6.209-3.797-10.202    C241.144,297.362,247.075,301.354,276.078,296.051z" fill="#2BACE2"/><path d="M208.953,295.372l25.806,16.184c0,0-1.234-6.485,4.697-10.479    C245.388,297.085,237.936,301.69,208.953,295.372z" fill="#2BACE2"/></g><g><ellipse cx="243.363" cy="332.157" fill="#231F20" rx="3.138" ry="3.182"/><ellipse cx="243.363" cy="354.638" fill="#231F20" rx="3.138" ry="3.182"/><ellipse cx="243.363" cy="310.815" fill="#231F20" rx="3.137" ry="3.182"/></g><rect fill="#2BACE2" height="21.37" transform="matrix(0.9796 0.2008 -0.2008 0.9796 69.5859 -37.197)" width="18.814" x="208.766" y="313.774"/><polygon fill="#0D9ECE" points="211.911,312.269 218.173,323.667 228.649,315.698  "/><ellipse cx="219.407" cy="319.1" fill="#231F20" rx="1.337" ry="1.269"/><path d="M245.766,299.166v100.676c17.11-0.768,36.735-9.27,57.658-32.339l-26.558-71.598   C276.866,295.905,262.851,298.623,245.766,299.166z" fill="#010101" opacity="0.2"/><ellipse cx="243.576" cy="209.974" fill="#E8BE9D" rx="96.369" ry="90.439"/><ellipse cx="281.849" cy="190.055" fill="#FFFFFF" rx="23.521" ry="19.618"/><ellipse cx="212.641" cy="190.055" fill="#FFFFFF" rx="23.52" ry="19.618"/><path d="M212.641,173.284c12.415,0,22.577,8.025,23.452,18.194c0.041-0.471,0.069-0.944,0.069-1.423   c0-10.834-10.53-19.617-23.521-19.617c-12.99,0-23.52,8.783-23.52,19.617c0,0.479,0.028,0.953,0.068,1.423   C190.065,181.309,200.226,173.284,212.641,173.284z" fill="#231F20"/><path d="M281.849,173.284c12.415,0,22.576,8.025,23.451,18.194c0.041-0.471,0.069-0.944,0.069-1.423   c0-10.834-10.53-19.617-23.521-19.617s-23.521,8.783-23.521,19.617c0,0.479,0.028,0.953,0.068,1.423   C259.273,181.309,269.434,173.284,281.849,173.284z" fill="#231F20"/><path d="M288.749,162.437c3.362-0.7,6.673-1.143,9.872-1.356c-3.852-0.684-9.665-0.764-18.328-0.01   c-13.114,1.142-23.853,7.208-23.853,16.098c0,1.621,0.359,3.185,1.02,4.661C260.679,173.657,272.891,165.738,288.749,162.437z" fill="#231F20"/><path d="M205.284,162.437c-3.363-0.7-6.674-1.143-9.872-1.356c3.852-0.684,9.665-0.764,18.327-0.01   c13.114,1.142,23.853,7.208,23.853,16.098c0,1.621-0.358,3.185-1.019,4.661C233.355,173.657,221.143,165.738,205.284,162.437z" fill="#231F20"/><g><path d="M247.88,255.667c-0.016-0.052-0.045-0.113-0.064-0.17c0.005,0.02,0.004,0.041,0.011,0.06    c0.015,0.063,0.044,0.125,0.063,0.162C247.886,255.702,247.886,255.683,247.88,255.667L247.88,255.667z" fill="#231F20"/></g><path d="M279.961,208.249c-5.634,0-10.796-1.659-14.844-4.414c4.263,3.603,10.183,5.837,16.731,5.837   c7.141,0,13.532-2.658,17.847-6.847l0.035-3.571C295.543,204.664,288.256,208.249,279.961,208.249z" fill="#231F20" opacity="0.8"/><path d="M213.81,208.249c5.633,0,10.795-1.659,14.843-4.414c-4.263,3.603-10.182,5.837-16.731,5.837   c-7.14,0-13.533-2.658-17.847-6.847l-0.035-3.571C198.229,204.664,205.515,208.249,213.81,208.249z" fill="#231F20" opacity="0.8"/><path d="M230.715,257.404l-0.001,0.006h0.062C230.756,257.408,230.735,257.407,230.715,257.404z" fill="#FFFFFF"/><g><ellipse cx="281.849" cy="190.055" fill="#231F20" rx="14.74" ry="13.773"/><ellipse cx="281.849" cy="190.055" fill="#FFFFFF" rx="9.562" ry="9.391"/><ellipse cx="281.848" cy="190.055" fill="#231F20" rx="5.25" ry="5.767"/></g><g><ellipse cx="214.362" cy="190.055" fill="#231F20" rx="14.74" ry="13.773"/><ellipse cx="214.362" cy="190.055" fill="#FFFFFF" rx="9.561" ry="9.391"/><ellipse cx="214.362" cy="190.055" fill="#231F20" rx="5.249" ry="5.767"/></g><path d="M247.474,269.567c-13.417,0-25.434-7.049-33.578-18.174l17.531-0.241c4.977,2.283,10.387,3.54,16.047,3.54   c6.018,0,11.752-1.428,16.984-3.994l17.275-0.238C273.588,262.13,261.265,269.567,247.474,269.567z" fill="#916740"/><path d="M255.101,256.705h11.687c2.816,0,5.101-2.695,5.329-6.113l-7.658,0.106   c-4.158,2.039-8.637,3.345-13.319,3.801C252.119,255.843,253.522,256.705,255.101,256.705z" fill="#FFFFFF"/><path d="M231.094,256.705h11.687c1.514,0,2.87-0.787,3.844-2.037c-5.351-0.119-10.471-1.347-15.198-3.516   l-5.611,0.077C226.268,254.34,228.453,256.705,231.094,256.705z" fill="#FFFFFF"/><path d="M238.507,119.658c-50.866,2.474-91.3,41.963-91.3,90.315s40.434,87.841,91.3,90.315V119.658z   " fill="#484A4B" opacity="0.1"/><path d="M289.696,156.595c3.438-0.715,6.821-1.168,10.09-1.386c-3.938-0.699-9.878-0.782-18.732-0.011   c-13.405,1.167-24.381,7.367-24.381,16.455c0,1.656,0.367,3.254,1.042,4.763C261.003,168.064,273.486,159.97,289.696,156.595z" fill="#231F20"/><path d="M204.383,156.595c-3.437-0.715-6.821-1.168-10.09-1.386c3.937-0.699,9.878-0.782,18.732-0.011   c13.405,1.167,24.38,7.367,24.38,16.455c0,1.656-0.366,3.254-1.041,4.763C233.075,168.064,220.593,159.97,204.383,156.595z" fill="#231F20"/><linearGradient gradientUnits="userSpaceOnUse" id="SVGID_4_" x1="227.4373" x2="269.9883" y1="205.2832" y2="245.9307"><stop offset="0" style="stop-color:#D6A685"/><stop offset="1" style="stop-color:#D4A483;stop-opacity:0"/></linearGradient><polygon fill="url(#SVGID_4_)" points="255.529,212.704 284.643,238.832 258.327,255.742 233.282,231.964  "/><g><path d="M247.921,251.887c-0.018-0.054-0.045-0.116-0.064-0.172c0.005,0.019,0.005,0.04,0.011,0.06    c0.014,0.065,0.046,0.127,0.063,0.166C247.927,251.924,247.927,251.906,247.921,251.887L247.921,251.887z" fill="#231F20"/></g><g><path d="M247.341,210.739c-8.476,0-15.348,6.92-15.348,15.458s6.872,9.799,15.348,9.799    c8.478,0,15.349-1.262,15.349-9.799S255.819,210.739,247.341,210.739z" fill="#A97E52"/><ellipse cx="253.596" cy="228.482" fill="#3C2619" rx="4.034" ry="5.055"/><ellipse cx="247.544" cy="225.286" fill="#E7E7E7" opacity="0.15" rx="0.724" ry="5.242"/><path d="M255.105,225.122c0.67,0,1.301,0.207,1.855,0.569c-0.723-1.364-1.959-2.264-3.364-2.264    c-2.229,0-4.034,2.263-4.034,5.055c0,1.953,0.885,3.644,2.179,4.485c-0.424-0.8-0.673-1.759-0.673-2.791    C251.068,227.385,252.875,225.122,255.105,225.122z" fill="#8B603E"/><ellipse cx="241.535" cy="228.482" fill="#3C2619" rx="4.036" ry="5.055"/><path d="M240.028,225.122c-0.67,0-1.3,0.207-1.856,0.569c0.723-1.364,1.959-2.264,3.364-2.264    c2.229,0,4.036,2.263,4.036,5.055c0,1.953-0.885,3.644-2.179,4.485c0.424-0.8,0.672-1.759,0.672-2.791    C244.064,227.385,242.257,225.122,240.028,225.122z" fill="#8B603E"/></g><g><path d="M180.156,170.759c-29.279,4.408-46.717,4.933-57.093,3.997c-0.982,6.327-0.748,12.615,1.076,18.959    l3.132,10.993l34.378,111.064c0.042-0.114,0.086-0.229,0.126-0.35c-9.84-103.687,0.481-101.61,0.481-101.61    c1.528,0.5,1.696,2.723,2.332,4.317c4.102,10.285,7.773,20.975,12.144,31.004c1.103,2.529,2.501,4.874,4.701,3.73    C181.433,252.864,178.366,196.372,180.156,170.759z" fill="#191919"/><path d="M259.285,177.854c-0.211-2.206-0.378-4.429-0.505-6.664c-0.131-2.331,0.061-4.327,0.685-5.492    c-29.238-0.085-64.76,2.948-67.424,3.179c2.96,4.607,47.025,14.452,47.025,14.452l-2.187-12.136    c1.935,2.535,2.611,5.676,3.574,8.542c5.226,10.192,10.92,19.794,15.846,30.362c1.787,3.833,4.061,6.581,7.27,6.87    C258.358,211.519,258.513,191.458,259.285,177.854z" fill="#191919"/><path d="M293.66,168.893c-5.46-1.934-15.342-2.827-26.869-3.1c1.731,0.388,3.742,0.918,5.976,1.65    c11.39,3.399,30.498,12.728,43.797,38.037c10.515,18.616,17.717,45.695,15.785,85.052c0.083,0.418,0.041,0.827-0.063,1.229    c-0.333,6.217-0.888,12.731-1.697,19.569c1.339-0.075,5.072-2.018,6.175-4.459c5.202-11.52,7.295-23.168,11.485-35.789    c8.936-26.912,11.021-66.716,11.101-96.944C332.95,182.704,293.66,168.893,293.66,168.893z" fill="#191919"/></g><path d="M374.781,141.035c0-4.333-0.35-8.598-0.963-12.799c-7.871-53.972-64.838-95.854-133.988-95.854   c-68.47,0-124.99,41.065-133.737,94.269c-0.151,0.92-0.314,1.836-0.437,2.764c-0.504,3.819-0.777,7.694-0.777,11.621   c0,0.894,0.019,1.783,0.045,2.671c-0.027,0.879-0.045,1.76-0.045,2.646c0,7.938,1.086,15.67,3.094,23.125   c1.205,2.512,10.604,11.721,83.896-0.584c0,0,81.477-7.193,101.792,0c0,0,55.177,19.395,78.687-2.036   c1.577-6.643,2.434-13.492,2.434-20.505c0-0.832-0.024-1.659-0.049-2.486C374.762,142.925,374.781,141.982,374.781,141.035z" fill="#2EBBAC"/><path d="M374.781,146.352c0-0.614-0.019-1.225-0.035-1.835   c-13.219,20.988-41.857,13.844-106.228,5.179c-69.876-9.407-110.637,8.51-135.721,11.646c-17.517,2.189-24.979-9.377-27.891-16.558   c-0.011,0.522-0.027,1.043-0.027,1.568c0,7.938,1.086,15.67,3.094,23.125c1.205,2.512,10.604,11.721,83.896-0.584   c0,0,81.477-7.193,101.792,0c0,0,55.177,19.395,78.687-2.036C373.924,160.214,374.781,153.365,374.781,146.352z" fill="#010101" opacity="0.1"/><path d="M240.299,32.386c-0.157,0-0.312-0.004-0.469-0.004c-68.47,0-124.99,41.065-133.737,94.269   c-0.151,0.92-0.314,1.836-0.437,2.764c-0.504,3.819-0.777,7.694-0.777,11.621c0,0.894,0.019,1.783,0.045,2.671   c-0.027,0.879-0.045,1.76-0.045,2.646c0,7.938,1.086,15.67,3.094,23.125c1.205,2.512,10.604,11.721,83.896-0.584   c0,0,23.515-2.075,48.43-2.881V32.386z" fill="#484A4B" opacity="0.1"/><path d="M180.156,170.759" fill="#020202"/></g></svg>