<?xml version="1.0" ?><!DOCTYPE svg  PUBLIC '-//W3C//DTD SVG 1.1//EN'  'http://www.w3.org/Graphics/SVG/1.1/DTD/svg11.dtd'><svg enable-background="new 0 0 512 512" height="512px" version="1.1" viewBox="0 0 512 512" width="512px" xml:space="preserve" xmlns="http://www.w3.org/2000/svg" xmlns:xlink="http://www.w3.org/1999/xlink"><g id="Background_2_"><g id="Background_1_"><g id="Background"><circle cx="256" cy="256" fill="#A7A9AC" r="256"/></g></g></g><g id="Ogi_x5F_06"><path d="M262.34,427.917c-80.171,0-145.161,2.508-145.161,5.602c0,3.098,64.99,5.605,145.161,5.605   c80.168,0,145.158-2.508,145.158-5.605C407.498,430.425,342.508,427.917,262.34,427.917z" fill="#3B3E3F" opacity="0.8"/><g><linearGradient gradientUnits="userSpaceOnUse" id="SVGID_1_" x1="351.1819" x2="71.0517" y1="482.7441" y2="379.6564"><stop offset="0" style="stop-color:#3B3E3F;stop-opacity:0.7"/><stop offset="0.8587" style="stop-color:#3D3F40;stop-opacity:0.0989"/><stop offset="1" style="stop-color:#3F4041;stop-opacity:0"/></linearGradient><path d="M167.553,401.714c0,0-30.758,3.353-35.346,10.137c0,0-4.363,4.431,10.693,6.759    c16.113,2.493,24.336,0.336,23.311-0.266c-1.014-0.594-6.244-1.865-6.244-1.865s-3.743-0.884,1.688-1.25    c5.451-0.367,5.451-0.367,5.451-0.367l0.156-4.598c0.037,0,0.073,0,0.11,0l0.472-8.429c0,0-0.108,0.012-0.296,0.033    L167.553,401.714z" fill="url(#SVGID_1_)"/><linearGradient gradientUnits="userSpaceOnUse" id="SVGID_2_" x1="358.8372" x2="78.7027" y1="461.9502" y2="358.8609"><stop offset="0" style="stop-color:#3B3E3F;stop-opacity:0.7"/><stop offset="0.8587" style="stop-color:#3D3F40;stop-opacity:0.0989"/><stop offset="1" style="stop-color:#3F4041;stop-opacity:0"/></linearGradient><path d="M354.739,426.636l-60.409-13.263c-0.002,0.008-0.008,0.014-0.011,0.021l-0.073-0.017    c0.028-0.031,0.062-0.062,0.09-0.094l-69.521-13.813c0,0-0.731,0.064-2.044,0.169l0.763-0.203c-0.29,0.027-0.568,0.054-0.854,0.08    c25.643-3.22,31.592-9.365,12.854-14.719c-2.02-0.576-4.263-1.119-6.682-1.629c1.326-0.989,0.563-1.947-2.55-2.813    c-9.59-2.668-38.165-3.585-67.479-2.642c-4.858-0.161-11.207-0.078-17.564,0.278c-6.312,0.354-11.382,0.908-14.285,1.495    c-24.392,2.011-39.76,5.15-35.968,7.859c1.33,0.949,4.852,1.76,10.101,2.401c-0.243-0.304-0.319-0.608-0.254-0.913    c0.181,0.79,0.838,1.597,2.046,2.411c8,5.393,36.855,9.729,70.011,10.381c-1.295,0-2.641-0.005-4.065-0.014l0.705,0.055    c-0.57-0.01-1.142-0.02-1.708-0.032l3.652,14.695c0,0,0.114,0.022,0.325,0.063l6.058,9.106l0.289,0.473    c0.009,0.002,0.019,0.003,0.027,0.004l2.87,4.313c0,0,7.083,5.358,67.06-1.233l-5.566-3.621l-1.598-1.08    c8.006,0.229,15.873,0.109,23.082-0.537l10.322,3.055c0.031,0.002,0.065,0,0.099,0.002l5.148,1.522    C375.717,432.364,354.739,426.636,354.739,426.636z M294.245,413.379c-0.571,1.344-2.147,2.528-4.31,3.57    C291.619,415.893,293.071,414.709,294.245,413.379z" fill="url(#SVGID_2_)"/><linearGradient gradientUnits="userSpaceOnUse" id="SVGID_3_" x1="367.7502" x2="87.615" y1="437.7305" y2="334.6409"><stop offset="0" style="stop-color:#3B3E3F;stop-opacity:0.7"/><stop offset="0.8587" style="stop-color:#3D3F40;stop-opacity:0.0989"/><stop offset="1" style="stop-color:#3F4041;stop-opacity:0"/></linearGradient><path d="M227.068,399.567C227.068,399.567,227.067,399.568,227.068,399.567    c-0.143-0.002-0.276-0.004-0.399-0.007c-0.14-0.002-0.264-0.004-0.379-0.006c-0.054-0.001-0.092-0.001-0.14-0.002    c-0.064,0-0.124-0.001-0.179-0.002c-0.058-0.001-0.115-0.001-0.161-0.002c-0.071-0.002-0.127-0.002-0.172-0.002    c-0.047,0-0.069-0.002-0.086-0.002c-0.022,0-0.034,0-0.034,0l40.472,7.343c0,0,0,0,0.001,0l23.271,4.222c0,0,0,0,7.402-0.016    c7.493-0.018,8.122,1.058,8.122,1.058s1.075,1.532,3.065,2.155c2.016,0.631,22.059,2.197,26.516-1.23    c4.271-3.287-24.278-7.207-24.278-7.207c-7.842-1.167-15.897-2.118-23.777-2.896c0.003-0.003,0.01-0.007,0.013-0.011    C259.039,400.255,233.479,399.676,227.068,399.567z" fill="url(#SVGID_3_)"/></g><path d="M186.113,355.856l-18.468,67.118c0,0-2.048,22.266,78.521,0.719l4.538-24.322   C250.703,399.371,210.106,390.765,186.113,355.856z" fill="#E7BE9D"/><path d="M274.376,399.081l3.454,17.133c6.406,1.078,13.129,1.653,20.061,1.653c21.137,0,40.332-5.334,54.504-14.022   l-10.621-45.673C309.69,393.611,274.386,399.023,274.376,399.081z" fill="#2376BC"/><path d="M250.894,398.201l-3.455,18.013c-6.406,1.078-13.128,1.653-20.061,1.653   c-21.137,0-40.332-5.335-54.503-14.022l13.223-48.903C214.864,391.65,250.884,398.142,250.894,398.201z" fill="#2376BC"/><path d="M356.051,422.325l-4.06-18.244c-14.132,8.545-33.159,13.786-54.101,13.786   c-6.932,0-13.654-0.575-20.061-1.653l-0.052-0.263l1.236,7.354C359.584,444.853,356.051,422.325,356.051,422.325z" fill="#DDB294"/><path d="M220.153,265.522l-34.053,89.419c0,0,69.644,98.038,155.674,3.23l-34.795-91.967   C306.979,266.205,254.975,276.297,220.153,265.522z" fill="#BF448A"/><path d="M203.281,332.755c0,32.164,26.539,58.238,59.275,58.238c32.737,0,59.275-26.074,59.275-58.238H203.281z" fill="#3FB54A"/><g><path d="M304.793,266.223l-31.572,20.591c0,0,0.592-9.004-6.979-14.101    C258.67,267.616,267.794,274.287,304.793,266.223z" fill="#10A64F"/><path d="M221.33,266.223l31.57,20.591c0,0-0.59-9.004,6.98-14.101C267.453,267.616,258.327,274.287,221.33,266.223    z" fill="#10A64F"/></g><path d="M265.858,270.414v129.063c22.453-0.342,48.344-10.918,75.916-41.306l-34.795-91.967   C306.979,266.205,288.312,269.826,265.858,270.414z" fill="#1E1E1E" opacity="0.1"/><path d="M158.203,300.852c-6.442,6.328-12.281,13.656-16.803,22.088c0,0-15.363,24.777,1.025,39.861   c16.386,15.082,31.749,5.386,31.749,2.154c0-3.232-4.097-10.773-4.097-10.773s-3.073-5.387,5.121-6.465   c8.194-1.077,8.194-1.077,8.194-1.077l13.409-28.694C180.854,315.833,167.662,309.151,158.203,300.852z" fill="#E7BE9D"/><path d="M307.276,267.766c0,0,55.407,14.051,77.938,56.068c0,0,15.363,24.779-1.023,39.862   s-31.751,5.387-31.751,2.154s4.098-10.773,4.098-10.773s3.072-5.387-5.121-6.464s-8.193-1.077-8.193-1.077L307.276,267.766z" fill="#DDB294"/><path d="M369.669,303.072c-25.803-26.026-62.394-35.307-62.394-35.307l20.51,53.433   C344.089,319.041,361.51,312.118,369.669,303.072z" fill="#0C9347"/><path d="M157.647,300.83c25.804-26.026,62.395-35.308,62.395-35.308l-20.238,53.434   C183.5,316.797,165.807,309.874,157.647,300.83z" fill="#10A64F"/><ellipse cx="263.48" cy="159.556" fill="#E7BE9D" rx="120.539" ry="113.122"/><g><path d="M287.159,178.891c0,10.678-8.595,12.257-19.198,12.257c-10.602,0-19.197-1.579-19.197-12.257    c0-10.679,8.596-19.335,19.197-19.335C278.565,159.556,287.159,168.212,287.159,178.891z" fill="#A97E52"/><ellipse cx="275.785" cy="181.75" fill="#3C2619" rx="5.048" ry="6.323"/><ellipse cx="268.216" cy="177.752" fill="#E7E7E7" opacity="0.15" rx="0.906" ry="6.557"/><path d="M267.961,159.556c-0.377,0-0.748,0.035-1.12,0.057c10.078,0.588,18.077,8.98,18.077,19.278    c0,10.297-7.999,12.127-18.077,12.245c0.372,0.004,0.743,0.012,1.12,0.012c10.604,0,19.198-1.579,19.198-12.257    C287.159,168.212,278.565,159.556,267.961,159.556z" fill="#E7E7E7" opacity="0.15"/><path d="M277.67,177.546c0.839,0,1.628,0.259,2.323,0.712c-0.905-1.706-2.451-2.832-4.208-2.832    c-2.789,0-5.048,2.831-5.048,6.323c0,2.443,1.107,4.558,2.726,5.611c-0.529-1.001-0.84-2.2-0.84-3.491    C272.623,180.377,274.883,177.546,277.67,177.546z" fill="#8B603E"/><ellipse cx="260.699" cy="181.75" fill="#3C2619" rx="5.048" ry="6.323"/><path d="M258.813,177.546c-0.838,0-1.625,0.259-2.321,0.712c0.903-1.706,2.45-2.832,4.208-2.832    c2.788,0,5.048,2.831,5.048,6.323c0,2.443-1.108,4.558-2.727,5.611c0.53-1.001,0.841-2.2,0.841-3.491    C263.862,180.377,261.602,177.546,258.813,177.546z" fill="#8B603E"/></g><path d="M321.86,91.846c4.299-0.896,8.532-1.461,12.621-1.733c-4.924-0.875-12.356-0.978-23.432-0.013   c-16.766,1.459-30.495,9.214-30.495,20.581c0,2.072,0.459,4.071,1.302,5.958C285.971,106.191,301.584,96.066,321.86,91.846z" fill="#231F20"/><path d="M215.151,91.846c-4.3-0.896-8.532-1.461-12.621-1.733c4.924-0.875,12.356-0.978,23.432-0.013   c16.766,1.459,30.495,9.214,30.495,20.581c0,2.072-0.46,4.071-1.302,5.958C251.038,106.191,235.425,96.066,215.151,91.846z" fill="#231F20"/><g><path d="M269.609,211.038c-0.021-0.066-0.06-0.145-0.082-0.215c0.005,0.023,0.007,0.05,0.013,0.076    c0.02,0.079,0.06,0.158,0.082,0.207C269.615,211.085,269.615,211.06,269.609,211.038L269.609,211.038z" fill="#231F20"/></g><path d="M310.623,150.417c-7.201,0-13.8-2.121-18.977-5.644c5.449,4.606,13.018,7.464,21.39,7.464   c9.13,0,17.304-3.398,22.817-8.755l0.045-4.565C330.545,145.833,321.229,150.417,310.623,150.417z" fill="#231F20" opacity="0.8"/><path d="M226.051,150.417c7.202,0,13.801-2.121,18.977-5.644c-5.45,4.606-13.017,7.464-21.391,7.464   c-9.128,0-17.302-3.398-22.815-8.755l-0.045-4.565C206.13,145.833,215.445,150.417,226.051,150.417z" fill="#231F20" opacity="0.8"/><path d="M300.019,216.913c0,0-9-11.003-30.505-11.003c-21.504,0-29.505,11.003-29.505,11.003" fill="#A97D51"/><path d="M296.762,47.653c-8.082-5.058-20.237-8.281-33.838-8.281c-13.616,0-25.78,3.228-33.859,8.291   c-56.086,7.801-97.412,34.489-97.412,66.225c0,10.577,4.595,20.59,12.789,29.535c4.041-31.464,38.804-57.434,85.324-65.928   c8.078,4.825,19.92,7.886,33.159,7.886c13.204,0,25.02-3.048,33.092-7.852c46.57,8.557,81.313,34.635,85.166,66.186   c8.359-9.018,13.056-19.136,13.056-29.828C394.238,82.137,352.881,55.441,296.762,47.653z" fill="#262223"/><ellipse cx="326.939" cy="191.161" fill="#F15A29" opacity="0.2" rx="17.317" ry="20.454"/><ellipse cx="213.766" cy="191.161" fill="#F15A29" opacity="0.2" rx="17.317" ry="20.454"/><path d="M263.48,46.434c-0.265,0-0.525,0.007-0.788,0.009v226.226c0.263,0.002,0.523,0.01,0.788,0.01   c66.571,0,120.538-50.647,120.538-113.122C384.018,97.08,330.051,46.434,263.48,46.434z" fill="#1E1E1E" opacity="0.1"/><path d="M296.762,47.653c-8.082-5.058-20.237-8.281-33.838-8.281c-0.078,0-0.154,0.003-0.232,0.003v46.002   c0.078,0,0.154,0.003,0.232,0.003c13.204,0,25.02-3.048,33.092-7.852c46.57,8.557,81.313,34.635,85.166,66.186   c8.359-9.018,13.056-19.136,13.056-29.828C394.238,82.137,352.881,55.441,296.762,47.653z" fill="#231F20"/></g></svg>