<?xml version="1.0" ?><!DOCTYPE svg  PUBLIC '-//W3C//DTD SVG 1.1//EN'  'http://www.w3.org/Graphics/SVG/1.1/DTD/svg11.dtd'><svg enable-background="new 0 0 512 512" height="512px" version="1.1" viewBox="0 0 512 512" width="512px" xml:space="preserve" xmlns="http://www.w3.org/2000/svg" xmlns:xlink="http://www.w3.org/1999/xlink"><g id="Background_2_"><g id="Background_1_"><g id="Background"><circle cx="256" cy="256" fill="#F5EE69" r="256"/></g></g></g><g id="Ogi_x5F_09"><ellipse cx="250.952" cy="420.299" fill="#BFB648" rx="158.785" ry="14.301"/><path d="M315.226,418.945l-35.448-8.371c-0.004,0.004-0.011,0.006-0.015,0.01l-0.045-0.012   c-1.077,0.846-3.003,1.537-5.329,2.102c2.016-0.596,3.842-1.307,5.429-2.152l-42.918-9.201l41.972,6.693c0,0,0,0,4.821-0.01   c4.872-0.01,5.593,0.658,5.593,0.658s1.131,0.943,2.588,1.326c1.468,0.385,14.652,1.326,16.713-0.758   c2.014-2.035-17.644-4.535-17.644-4.535c-5.564-0.762-11.226-1.387-16.734-1.902c0.001,0,0.002-0.002,0.002-0.004   c-17.602-1.648-33.779-2.15-40.041-2.289c11.958-1.027,18.563-2.986,18.403-5.346c5.188,1.338,10.408,2.906,15.524,4.779   c0.067,0.016,0.111,0.031,0.163,0.049c0.033,0.01,0.073,0.02,0.102,0.031c0.059,0.021,0.104,0.045,0.141,0.068   c0.065,0.039,0.102,0.078,0.125,0.119c2.033,0.736,4.069,1.52,6.105,2.352c0.647,0.092,1.201,0.131,1.658,0.119   c1.163-0.092,1.16-0.383,0.988-0.697c-0.796-1.465-1.561-2.91-3.854-4.455c-1.806-1.215-2.469-2.355-5.938-3.633l-23.684-7.244   c5.533-0.277,8.502-0.514,8.004-0.664c-0.057-0.018-0.185-0.035-0.352-0.055l-30.063-4.68l79.854-4.375l-137.872,2.273   l-96.849,4.814l54.977-0.172l1.579,4.719c0.129,0.078,1.263,0.146,3.239,0.199c-0.081,0.82,0.851,1.615,3.444,2.412l3.028,0.934   l25.087,7.426l0,0l11.334,3.354l0.908,0.27c-0.001-0.014-0.002-0.025-0.006-0.039c-7.359-3.135-12.065-5.324-15.045-6.857   c9.127,1.926,21.771,3.508,35.634,4.365c0.008,0.008,0.016,0.014,0.027,0.021c0.008,0.008,0.017,0.014,0.027,0.021   c0.018,0.014,0.039,0.029,0.062,0.047c0.012,0.008,0.02,0.016,0.031,0.023c0.079,0.057,0.184,0.131,0.317,0.221   c0.004,0.004,0.009,0.006,0.014,0.01c0.063,0.043,0.134,0.09,0.209,0.139c0.01,0.006,0.02,0.012,0.029,0.018   c0.081,0.053,0.17,0.107,0.267,0.168h0c0.055,0.033,0.112,0.068,0.171,0.104l1.945,8.105c0,0,0.078,0.016,0.219,0.041l3.662,4.971   l0.169,0.25c0.005,0.002,0.012,0.002,0.018,0.002l1.639,2.225c0,0,4.189,2.736,43.842,0.852l-2.864-1.945l-1.144-0.814   c5.123,0.27,10.256,0.377,15.157,0.242l6.762,2.008c0.021,0.002,0.043,0.002,0.064,0.004l2.939,0.873   C326.11,422.199,315.226,418.945,315.226,418.945z M192.542,400.732l0.521,0.051c-0.333-0.016-0.665-0.031-0.995-0.049l-0.999-0.15   c1.61,0.098,3.238,0.186,4.876,0.266C194.873,400.814,193.739,400.775,192.542,400.732z M232.557,400.629l0.071,0.012   c-0.192,0.008-0.381,0.018-0.57,0.027C232.226,400.654,232.391,400.641,232.557,400.629z M232.343,400.736l0.412-0.076l0.305,0.049   C232.855,400.717,232.621,400.725,232.343,400.736z" fill="#BFB648"/><path d="M201.011,373.209l-12.255,44.537c0,0-1.358,14.773,52.104,0.475l3.011-16.139   C243.871,402.082,216.932,396.371,201.011,373.209z" fill="#E7BE9D"/><path d="M259.579,401.891l2.293,11.369c4.25,0.715,8.711,1.096,13.312,1.096c14.025,0,26.763-3.539,36.166-9.305   l-7.046-30.307C283.012,398.26,259.586,401.852,259.579,401.891z" fill="#1D1D1E"/><path d="M243.998,401.305l-2.292,11.955c-4.251,0.715-8.711,1.096-13.312,1.096   c-14.025,0-26.763-3.539-36.167-9.305l8.775-32.451C220.09,396.959,243.992,401.266,243.998,401.305z" fill="#1D1D1E"/><path d="M313.776,417.314l-2.693-12.105c-9.377,5.67-22.003,9.146-35.898,9.146c-4.601,0-9.062-0.381-13.312-1.096   l-0.035-0.176l0.821,4.881C316.121,432.262,313.776,417.314,313.776,417.314z" fill="#CFA487"/><path d="M223.599,313.266L201.002,372.6c0,0,46.214,65.057,103.302,2.145l-23.09-61.025   C281.214,313.719,246.706,320.414,223.599,313.266z" fill="#7390C9"/><g><path d="M279.764,312.986l-20.95,13.664c0,0,0.393-5.977-4.631-9.357    C249.158,313.91,255.213,318.338,279.764,312.986z" fill="#D8E9DE"/><path d="M224.38,312.986l20.949,13.664c0,0-0.392-5.977,4.632-9.357    C254.986,313.91,248.931,318.338,224.38,312.986z" fill="#D8E9DE"/></g><path d="M253.927,316.51v85.643c14.899-0.227,32.079-7.244,50.377-27.408l-23.09-61.025   C281.214,313.719,268.826,316.121,253.927,316.51z" fill="#1E1E1E" opacity="0.1"/><g><linearGradient gradientTransform="matrix(0.938 -0.3466 0.3466 0.938 -114.4225 135.0317)" gradientUnits="userSpaceOnUse" id="SVGID_1_" x1="247.0803" x2="249.8189" y1="351.9375" y2="357.281"><stop offset="0" style="stop-color:#F2DEC1"/><stop offset="0.2042" style="stop-color:#F0DBBD"/><stop offset="0.4281" style="stop-color:#E9D2AF"/><stop offset="0.6607" style="stop-color:#DDC39A"/><stop offset="0.7258" style="stop-color:#D9BE92"/><stop offset="0.8288" style="stop-color:#DBC196"/><stop offset="0.9275" style="stop-color:#E2C9A1"/><stop offset="1" style="stop-color:#EAD2AF"/></linearGradient><path d="M239.956,385.68c1.293-0.402,2.753-1.387,4.103-2.496c0.451-1.68,0.272-3.643-0.636-5.424    c-0.021-0.041-0.044-0.08-0.065-0.121l-2.439,2.148C242.794,383.137,239.956,385.68,239.956,385.68z" fill="url(#SVGID_1_)"/></g><path d="M212.404,357.879c0,21.342,17.61,38.645,39.334,38.645c21.723,0,39.333-17.303,39.333-38.645H212.404z" fill="#D8E9DE"/><path d="M278.479,311.252c0,0,37.816,2.932,57.295,27.863c0,0,12.844,14.469,3.831,26.182   c-9.013,11.711-20.153,7.105-20.519,4.992c-0.364-2.113,1.464-7.508,1.464-7.508s1.4-3.869-4.079-3.646   c-5.48,0.221-5.48,0.221-5.48,0.221L278.479,311.252z" fill="#E7BE9D"/><path d="M323.265,327.295c-19.811-14.105-44.786-16.043-44.786-16.043l21.778,32.221   C310.674,340.221,318.949,334.129,323.265,327.295z" fill="#F1F2F2"/><g><path d="M263.298,363.43c0,0,5.184-1.941,11.629-0.805l0.105-2.813l5.291-2.869c0,0-1.739-0.375-10.7,0.725    L263.298,363.43z" fill="#B22630"/><linearGradient gradientTransform="matrix(0.938 -0.3466 0.3466 0.938 -114.4225 135.0317)" gradientUnits="userSpaceOnUse" id="SVGID_2_" x1="265.1458" x2="272.436" y1="331.3516" y2="348.1292"><stop offset="0.4516" style="stop-color:#F2DEC1"/><stop offset="0.5845" style="stop-color:#F3E0C5"/><stop offset="0.7302" style="stop-color:#F6E7D3"/><stop offset="0.8815" style="stop-color:#FAF3E8"/><stop offset="1" style="stop-color:#FFFFFF"/></linearGradient><path d="M273.801,335.596c0,0-2.993,5.967-9.232,13.268c-6.238,7.299-25.201,18.154-28.006,19.809    c-2.806,1.652-7.136,4.141-7.136,4.141s0.464,2.85,1.848,5.875c0.779,1.705,2.087,3.377,3.383,4.826    c0.075,0.088,0.152,0.17,0.229,0.254c0.159,0.178,0.32,0.35,0.478,0.518c0,0-0.008-0.025-0.019-0.068    c1.984,1.787,4.655,2.297,6.824,1.057c2.945-1.684,3.851-5.949,2.027-9.529c-1.758-3.445-5.407-4.998-8.305-3.607    c1.86-1.645,7.912-6.949,10.258-8.428c2.791-1.758,12.899-9.006,16.205-12.154s13.295-14.645,13.295-14.645L273.801,335.596z" fill="url(#SVGID_2_)"/><path d="M273.957,335.691c0,0-2.994,5.967-9.232,13.268c-6.239,7.301-25.201,18.154-28.006,19.809    c-2.807,1.656-7.136,4.141-7.136,4.141s0.464,2.85,1.847,5.877c0.78,1.703,2.088,3.375,3.384,4.824    c0.075,0.086,0.151,0.172,0.228,0.254c0.162,0.176,0.321,0.35,0.479,0.518c0,0-0.007-0.023-0.018-0.068    c1.985,1.787,4.656,2.297,6.825,1.057c2.944-1.682,3.852-5.947,2.026-9.529c-1.757-3.443-5.407-4.996-8.304-3.605    c1.859-1.646,7.91-6.951,10.258-8.43c2.79-1.758,17.125-12.391,20.407-16.439s9.091-10.361,9.091-10.361L273.957,335.691z" fill="#BB9371"/><path d="M237.146,370.188c2.558-2.096,14.775-10.09,23.036-16.998c9.079-7.592,12.831-15.213,16.486-17.762    c3.655-2.551,6.968-3.199,9.293-1.621c2.327,1.576,3.76,4.604,2.591,7.99c-1.171,3.385-13.763,11.059-21.116,17.811    c-7.353,6.752-22.033,23.912-24.189,25.615c-1.28,1.01,3.099-3.016,1.801-7.697c-1.299-4.68-4.714-4.959-5.632-5.348    c-2.259-0.957-5.223,1.475-4.652,0.609C235.247,372.055,235.973,371.15,237.146,370.188z" fill="#EFCEBA"/><path d="M240.699,384.193c1.293-0.402,2.753-1.387,4.104-2.496c0.45-1.68,0.271-3.643-0.637-5.424    c-0.021-0.043-0.043-0.08-0.065-0.123l-2.439,2.148C243.538,381.648,240.699,384.193,240.699,384.193z" fill="#EFCEBA"/><g><path d="M241.887,385.984c-0.345,0.148-0.71,0.271-1.092,0.359c-1.971,0.459-2.723,0.141-5.125-1.316     c-2.49-1.416-5.319-6.785-6.086-12.119c0,0,2.055,8.783,6.501,11.672c1.355,0.881,2.915,1.549,4.666,1.141     c1.375-0.318,2.489-1.107,3.141-2.221c1.636-2.797,1.435-7.197-1.733-9.721c-2.07-1.648-4.243-1.768-5.586-1.332     c-0.826,0.27-1.433,0.748-1.709,1.35c-0.752,1.639-0.967,7.027,3.014,9.455c1.234,0.752,2.284,0.842,2.957,0.254     c2.039-1.365,0.824-5.482,0.824-5.482c1.112,2.039,0.925,4.746-0.408,5.914c-0.554,0.482-1.784,1.107-3.814-0.131     c-4.033-2.459-4.222-7.926-3.192-10.168c0.369-0.801,1.176-1.455,2.218-1.795c1.963-0.639,4.278-0.109,6.194,1.416     c3.394,2.701,3.592,7.443,1.824,10.465C243.89,384.727,242.991,385.506,241.887,385.984z" fill="#FFF2DA"/></g><path d="M255.635,356.512c0,0,0.627-0.381,0.962-0.307c0.336,0.072,3.059-0.781,5.191,1.738    c2.131,2.521,2.344,4.234,2.308,4.605s-0.338,0.693-0.338,0.693s5.492-5.035,5.734-5.25c0.243-0.215,0.166-0.344,0.041-0.617    c-0.273-0.867-1.256-2.93-3.056-4.721c-1.801-1.787-3.998-1.436-4.66-1.066L255.635,356.512z" fill="#C42026"/><path d="M255.733,356.436c0,0,0.628-0.385,0.963-0.311c0.337,0.072,3.06-0.781,5.192,1.738    c2.131,2.521,2.343,4.234,2.308,4.605c-0.036,0.371-0.339,0.693-0.339,0.693s5.492-5.035,5.735-5.25    c0.242-0.215,0.165-0.344,0.042-0.617c-0.273-0.869-1.258-2.932-3.057-4.721c-1.802-1.789-3.999-1.436-4.662-1.066    L255.733,356.436z" fill="#991B1E"/></g><path d="M222.365,311.059c0,0-7.122,37.256,11.805,62.605c0,0,10.579,16.199,24.25,10.586   c13.672-5.613,12.159-17.572,10.217-18.48c-1.943-0.908-7.628-0.564-7.628-0.564s-4.102,0.332-2.446-4.895   c1.654-5.229,1.654-5.229,1.654-5.229L222.365,311.059z" fill="#E7BE9D"/><path d="M226.057,358.486c-8.396-22.824-3.692-47.428-3.692-47.428l25.355,29.488   C241.841,349.742,233.787,356.123,226.057,358.486z" fill="#F1F2F2"/><path d="M303.064,373.801l-22.834-60.617c0,0-1.803,0.057-4.896,0.521   c3.332,5.676,10.074,20.002,12.686,26.592c7.111,17.941,6.537,27.324,5.563,42.809   C296.778,380.275,299.789,377.459,303.064,373.801z" fill="#FFFFFF" opacity="0.1"/><ellipse cx="252.348" cy="243.02" fill="#E7BE9D" rx="79.985" ry="75.064"/><ellipse cx="284.977" cy="222.198" fill="#FFFFFF" rx="19.953" ry="16.642"/><ellipse cx="226.263" cy="222.197" fill="#FFFFFF" rx="19.954" ry="16.643"/><path d="M226.263,207.969c10.532,0,19.153,6.808,19.896,15.436c0.035-0.399,0.059-0.801,0.059-1.208   c0-9.191-8.934-16.642-19.954-16.642s-19.954,7.451-19.954,16.642c0,0.406,0.024,0.808,0.058,1.208   C207.11,214.777,215.73,207.969,226.263,207.969z" fill="#231F20"/><path d="M284.977,207.969c10.533,0,19.152,6.808,19.895,15.436c0.035-0.399,0.058-0.801,0.058-1.208   c0-9.191-8.933-16.642-19.952-16.642c-11.021,0-19.953,7.451-19.953,16.642c0,0.406,0.022,0.808,0.057,1.208   C265.823,214.777,274.444,207.969,284.977,207.969z" fill="#231F20"/><path d="M290.83,198.767c2.854-0.594,5.662-0.969,8.375-1.15c-3.268-0.58-8.199-0.649-15.549-0.008   c-11.125,0.968-20.234,6.114-20.234,13.657c0,1.375,0.304,2.701,0.863,3.954C267.016,208.287,277.376,201.568,290.83,198.767z" fill="#231F20"/><path d="M220.022,198.767c-2.853-0.594-5.662-0.969-8.375-1.15c3.268-0.58,8.199-0.649,15.548-0.008   c11.125,0.968,20.235,6.114,20.235,13.657c0,1.375-0.304,2.701-0.864,3.954C243.836,208.287,233.476,201.568,220.022,198.767z" fill="#231F20"/><path d="M283.375,237.632c-4.779,0-9.158-1.406-12.592-3.745c3.615,3.057,8.637,4.952,14.193,4.952   c6.057,0,11.48-2.254,15.14-5.809l0.03-3.029C296.594,234.592,290.412,237.632,283.375,237.632z" fill="#231F20" opacity="0.8"/><path d="M227.255,237.632c4.779,0,9.158-1.406,12.592-3.745c-3.616,3.057-8.638,4.952-14.194,4.952   c-6.058,0-11.481-2.254-15.141-5.809l-0.03-3.029C214.036,234.592,220.218,237.632,227.255,237.632z" fill="#231F20" opacity="0.8"/><g><path d="M268.416,256.537c0,7.084-5.703,8.133-12.739,8.133c-7.035,0-12.738-1.049-12.738-8.133    c0-7.087,5.703-12.831,12.738-12.831C262.713,243.707,268.416,249.45,268.416,256.537z" fill="#AA7F52"/><ellipse cx="260.869" cy="258.434" fill="#3C271A" rx="3.349" ry="4.195"/><ellipse cx="255.845" cy="255.781" fill="#E7E7E7" opacity="0.15" rx="0.601" ry="4.35"/><path d="M255.677,243.707c-0.25,0-0.496,0.023-0.744,0.038c6.688,0.39,11.996,5.959,11.996,12.793    c0,6.832-5.308,8.047-11.996,8.123c0.248,0.004,0.493,0.01,0.744,0.01c7.036,0,12.739-1.049,12.739-8.133    C268.416,249.45,262.713,243.707,255.677,243.707z" fill="#E7E7E7" opacity="0.15"/><path d="M262.119,255.644c0.557,0,1.08,0.173,1.541,0.473c-0.6-1.132-1.625-1.879-2.791-1.879    c-1.852,0-3.35,1.878-3.35,4.196c0,1.621,0.734,3.025,1.809,3.723c-0.352-0.664-0.559-1.459-0.559-2.316    C258.77,257.523,260.27,255.644,262.119,255.644z" fill="#8B613F"/><ellipse cx="250.858" cy="258.434" fill="#3C271A" rx="3.35" ry="4.195"/><path d="M249.607,255.644c-0.556,0-1.079,0.173-1.541,0.473c0.6-1.132,1.626-1.879,2.792-1.879    c1.851,0,3.35,1.878,3.35,4.196c0,1.621-0.735,3.025-1.809,3.723c0.352-0.664,0.558-1.459,0.558-2.316    C252.956,257.523,251.457,255.644,249.607,255.644z" fill="#8B613F"/></g><g><g><ellipse cx="282.148" cy="223.396" fill="#0B252D" rx="12.968" ry="13.193" transform="matrix(-5.271872e-004 -1 1 -5.271872e-004 58.901 505.6609)"/><g opacity="0.3"><path d="M282.152,233.174c5.495-0.002,9.947-4.383,9.944-9.784c-0.004-5.4-4.46-9.777-9.955-9.774      c-5.492,0.003-9.945,4.383-9.942,9.784C272.202,228.802,276.657,233.177,282.152,233.174z" fill="#097BA8"/></g><g><ellipse cx="282.147" cy="223.396" fill="#013344" rx="4.456" ry="4.38"/></g></g><path d="M278.871,218.566c-0.612,0.211-1.256-2.053-0.725-2.7c1.433-1.74,7.572-1.597,9.393,1.027    c1.495,2.157-0.937,2.982-0.937,2.982S283.494,216.969,278.871,218.566z" fill="#097BA8" opacity="0.5"/></g><g><g><ellipse cx="228.364" cy="223.396" fill="#0B252D" rx="12.968" ry="13.194" transform="matrix(-5.083521e-004 -1 1 -5.083521e-004 5.0849 451.8733)"/><g opacity="0.3"><ellipse cx="228.363" cy="223.395" fill="#097BA8" rx="9.779" ry="9.949" transform="matrix(5.242387e-004 1 -1 5.242387e-004 451.6383 -5.0846)"/></g><g><ellipse cx="228.364" cy="223.396" fill="#013344" rx="4.455" ry="4.38"/></g></g><path d="M225.087,218.566c-0.612,0.211-1.255-2.053-0.723-2.7c1.432-1.74,7.572-1.597,9.392,1.027    c1.496,2.157-0.937,2.982-0.937,2.982S229.71,216.969,225.087,218.566z" fill="#097BA8" opacity="0.5"/></g><path d="M252.348,167.957c-0.175,0-0.348,0.005-0.523,0.006v150.116   c0.175,0.002,0.348,0.006,0.523,0.006c44.175,0,79.986-33.607,79.986-75.063C332.334,201.563,296.524,167.957,252.348,167.957z" fill="#1E1E1E" opacity="0.1"/><g><path d="M342.031,177.352c-9.493-48.566-64.51-60.77-94.063-58.266c-10.139,0.859-20.187,2.152-30.071,4.879    c0.688-2.09,0.571-4.999-4.825-5.818c0,0,4.459,1.092,0,4.836l-2.59-4.836c-0.032,0.419,0.264,4.008-0.521,4.836l-4.862-0.8    c0,0,3.579,2.738,4.124,3.201c0.23,0.196,0.397,0.69,0.514,1.196c-5.321,1.958-10.588,4.418-15.786,7.553    c-8.642,5.21-49.704,28.018-37.063,91.545l27.665,105.207c0.035-0.098,0.071-0.195,0.104-0.299    c-11.962-91.746-4.719-96.165-4.719-96.165s19.209,43.592,21.035,42.616c0,0,0.527-80.07,0.639-80.239    c0.036-0.061,0.072-0.116,0.109-0.169c0.012-0.015,0.022-0.03,0.035-0.045c0.119-0.157,0.241-0.283,0.371-0.352    c2.339-1.772,41.483,50.325,44.089,53.689c1.161,1.157,2.307-52.768,2.307-52.768c1.606,2.17,16.418,38.963,19.082,39.209    c-4.326-4.664,4.436-39.209,4.436-39.209s27.024,7.668,39.133,28.715c22.208,38.601,6.359,102.085,6.936,102.003    c1.673-0.6,18.599-32.941,21.691-49.713C349.688,224.544,342.031,177.352,342.031,177.352z" fill="#171717"/></g><path d="M250.469,118.916v82.23c4.51,10.023,14.944,35.015,17.137,35.218   c-4.326-4.664,4.436-39.209,4.436-39.209s27.024,7.668,39.133,28.715c22.208,38.601,6.359,102.085,6.936,102.003   c1.673-0.6,18.599-32.941,21.691-49.713c9.887-53.616,2.23-100.808,2.23-100.808C332.799,130.123,280.518,117.284,250.469,118.916z   " fill="#020202" opacity="0.3"/><g><path d="M256.091,276.439c-0.016-0.045-0.037-0.096-0.055-0.143c0.004,0.016,0.004,0.033,0.009,0.051    c0.013,0.053,0.039,0.105,0.054,0.137C256.096,276.473,256.096,276.453,256.091,276.439L256.091,276.439z" fill="#231F20"/></g><path d="M254.678,280.506c-13.715,0-27.415-4.527-27.415-4.527s12.369,26.061,27.417,26.061   c15.051,0,27.432-26.061,27.432-26.061S268.396,280.506,254.678,280.506z" fill="#845631"/><path d="M244.068,289.041h7.239c1.839,0,3.33-3.086,3.33-6.893l-0.163-1.645c-4.669-0.016-9.329-0.549-13.439-1.246   l-0.296,2.891C240.739,285.955,242.229,289.041,244.068,289.041z" fill="#FFFFFF"/><path d="M269.545,279.043c-4.027,0.73-8.665,1.334-13.365,1.443l-0.199,1.939c0,3.809,1.49,6.895,3.329,6.895h7.24   c1.838,0,3.329-3.086,3.329-6.895L269.545,279.043z" fill="#FFFFFF"/><path d="M360.4,202.146l-24.458-60.371l-174.46,4.958l-13.165,55.957c0,4.303,47.525,10.626,106.151,10.626   c58.633,0,106.157-6.323,106.157-10.626C360.625,202.528,360.537,202.342,360.4,202.146z" fill="#151616"/><polygon fill="#181E1A" points="260.577,161.434 464.651,129.733 256.118,110.432 44.157,134.515  "/><path d="M276.346,132.23c0,3.919-9.211,7.099-20.572,7.099c-11.367,0-20.571-3.18-20.571-7.099   c0-3.924,9.205-7.101,20.571-7.101C267.135,125.129,276.346,128.306,276.346,132.23z" fill="#292D2B"/><path d="M256.456,110.463v102.849c57.714-0.14,104.169-6.368,104.169-10.623   c0-0.162-0.088-0.348-0.226-0.544l-21.429-52.889l125.68-19.523L256.456,110.463z" fill="#010101" opacity="0.2"/></g></svg>