<?xml version="1.0" ?><!DOCTYPE svg  PUBLIC '-//W3C//DTD SVG 1.1//EN'  'http://www.w3.org/Graphics/SVG/1.1/DTD/svg11.dtd'><svg enable-background="new 0 0 512 512" height="512px" version="1.1" viewBox="0 0 512 512" width="512px" xml:space="preserve" xmlns="http://www.w3.org/2000/svg" xmlns:xlink="http://www.w3.org/1999/xlink"><g id="Background_2_"><g id="Background_1_"><g id="Background"><circle cx="256" cy="256" fill="#2EBBAC" r="256"/></g></g></g><g id="Ogi_x5F_01"><ellipse cx="270.395" cy="454.496" fill="#1BA08D" opacity="0.3" rx="106.026" ry="5.07"/><g><path d="M364.74,436.648l-76.218-9.404c0.001,0.005,0,0.01,0.003,0.016l-0.089-0.011    c0.009-0.026,0.022-0.053,0.031-0.079l-78.349-8.665c0,0-0.729,0.089-2.023,0.238c-0.519,0.05-1.15,0.115-1.87,0.193    c15.899-2.351,22.145-5.592,17.575-8.568c8.477,1.048,17.595,2.396,27.337,4.136c0.101,0.012,0.176,0.025,0.261,0.038    c0.124,0.019,0.235,0.038,0.33,0.059c0.068,0.014,0.141,0.028,0.198,0.044c0.161,0.043,0.283,0.089,0.387,0.135    c4.007,0.71,8.161,1.485,12.468,2.334c1.039,0.055,1.854,0.054,2.437-0.005c1.365-0.225,0.78-0.589-0.073-0.968    c-3.931-1.74-7.708-3.428-13.555-5.053c-4.508-1.253-7.387-2.513-13.913-3.63l-54.405-7.704    c-7.357-0.674-14.919-0.772-21.75-0.505c-21.94,0.858-40.034,2-53.727,4c-0.346,0.051-0.689,0.102-1.032,0.151    c0.03-0.004,0.061-0.008,0.091-0.011c-4.167,0.614-8.124,1.243-11.704,1.934c-0.145-0.17-0.821-0.35-3.4-0.091    c0,0,2.193-0.185,1.038,0.298l-1.291-0.001c0.084,0.027,0.097,0.077-0.077,0.177l-2.287,0.221c0,0,2.138-0.028,2.476-0.029    c0.148-0.001,0.334,0.023,0.499,0.05c-1.929,0.422-3.73,0.867-5.332,1.351c-2.673,0.809-5.319,1.632-4.82,2.829    c0.555,1.331,0.506,2.687,1.398,4.134c0.519,0.843,1.975,1.589,5.02,2.209l3.538,0.725l38.042,7.438l8.383,1.639l1.267,0.248    c-0.016-0.016-0.032-0.031-0.051-0.048c-10.937-3.014-17.999-5.122-22.549-6.602c13.563,1.722,32.551,2.53,52.186,1.907    c-3.059,0.14-6.122,0.244-9.118,0.295l-0.179,0.065c0,0-22.094,3.302-20.575,8.143c0,0-0.071,3.128,13.271,4.434    c14.607,1.429,19.731-0.227,18.458-0.629c-1.258-0.396-6.43-1.184-6.43-1.184s-3.66-0.541,0.457-0.913    c4.177-0.378,6.555-1.171,6.555-1.171l2.3,1.74c0,0,0.107,0.013,0.314,0.037l11.53,6.289l0.596,0.338    c0.009,0.001,0.017,0.001,0.025,0.002l5.427,2.96c0,0,9.676,3.629,58.982-1.774l-7.691-2.59l-2.208-0.765    c7.803,0.033,15.322-0.2,21.935-0.83l12.152,2.122c0.032,0,0.065-0.001,0.098-0.001l6.204,1.084    C393.614,441.082,364.74,436.648,364.74,436.648z M286.373,430.227c1.023-0.885,1.725-1.875,2.063-2.977    C288.739,428.352,287.902,429.344,286.373,430.227z" fill="#1BA08D"/><path d="M211.974,418.506c-0.075,0.002-0.142,0.003-0.21,0.005    c-0.363,0.011-0.622,0.018-0.771,0.021c-0.019,0.001-0.038,0.001-0.053,0.002c-0.071,0.002-0.117,0.003-0.117,0.003l44.143,4.377    l0,0l26.702,2.648c0,0,0,0,7.789-0.247c8.012-0.253,9.41,0.612,9.41,0.612s2.184,1.225,4.753,1.678    c2.609,0.46,25.934,1.178,28.829-1.849c2.827-2.956-32.035-5.241-32.035-5.241c-9.345-0.684-18.609-1.171-27.438-1.513    c0.002-0.002,0.004-0.005,0.006-0.007C242.887,417.82,217.548,418.361,211.974,418.506z" fill="#070808" opacity="0.05"/><path d="M92.813,405.528l0.683,0.001C93.322,405.474,92.813,405.528,92.813,405.528z" fill="#070808" opacity="0.05"/></g><path d="M178.956,330.824c-6.025,5.918-11.486,12.771-15.715,20.656c0,0-14.368,23.175,0.958,37.281   c15.326,14.105,29.694,5.037,29.694,2.016c0-3.023-3.832-10.077-3.832-10.077s-2.874-5.037,4.789-6.045   c7.664-1.009,7.664-1.009,7.664-1.009l12.541-26.837C200.14,344.834,187.802,338.586,178.956,330.824z" fill="#E8BE9D"/><path d="M318.376,299.88c0,0,51.82,13.142,72.894,52.438c0,0,14.367,23.175-0.958,37.281   c-15.326,14.107-29.694,5.039-29.694,2.016s3.831-10.075,3.831-10.075s2.874-5.039-4.788-6.047   c-7.664-1.007-7.664-1.007-7.664-1.007L318.376,299.88z" fill="#DDB294"/><path d="M376.731,332.9c-24.132-24.341-58.354-33.021-58.354-33.021l19.183,49.974   C352.806,347.835,369.099,341.36,376.731,332.9z" fill="#079343"/><path d="M178.435,330.803c24.133-24.342,58.355-33.021,58.355-33.021l-18.928,49.975   C202.615,345.737,186.067,339.262,178.435,330.803z" fill="#08A650"/><path d="M236.894,297.781l-31.849,83.629c0,0,65.136,91.692,145.597,3.022l-32.543-86.013   C318.099,298.42,269.463,307.858,236.894,297.781z" fill="#046938"/><path d="M221.115,360.662c0,30.081,24.82,54.467,55.438,54.467c30.618,0,55.438-24.386,55.438-54.467H221.115z" fill="#3DB54A"/><g><path d="M316.055,298.437l-29.527,19.258c0,0,0.553-8.422-6.527-13.188    C272.919,299.739,281.452,305.979,316.055,298.437z" fill="#08A650"/><path d="M237.995,298.437l29.526,19.258c0,0-0.552-8.422,6.529-13.188    C281.132,299.739,272.599,305.979,237.995,298.437z" fill="#08A650"/></g><path d="M279.64,302.356v120.708c20.999-0.32,45.214-10.212,71.002-38.632l-32.543-86.013   C318.099,298.42,300.641,301.807,279.64,302.356z" fill="#1E1E1E" opacity="0.1"/><path d="M205.058,382.268l-17.272,62.772c0,0-1.916,20.823,73.437,0.671l4.244-22.747   C265.467,422.964,227.498,414.915,205.058,382.268z" fill="#E8BE9D"/><path d="M287.607,422.693l3.231,16.023c5.991,1.009,12.277,1.547,18.762,1.547c19.768,0,37.721-4.989,50.975-13.115   l-9.933-42.716C320.634,417.577,287.616,422.64,287.607,422.693z" fill="#2075BC"/><path d="M265.645,421.869l-3.23,16.848c-5.992,1.009-12.278,1.547-18.762,1.547   c-19.768,0-37.721-4.99-50.974-13.115l12.367-45.738C231.948,415.743,265.636,421.814,265.645,421.869z" fill="#2075BC"/><path d="M363.994,444.432l-3.797-17.063c-13.217,7.992-31.013,12.895-50.598,12.895   c-6.484,0-12.771-0.538-18.762-1.547l-0.049-0.245l1.156,6.877C367.298,465.501,363.994,444.432,363.994,444.432z" fill="#DDB294"/><ellipse cx="277.414" cy="198.777" fill="#E8BE9D" rx="112.734" ry="105.799"/><ellipse cx="323.402" cy="169.428" fill="#FFFFFF" rx="28.123" ry="23.457"/><ellipse cx="240.649" cy="169.428" fill="#FFFFFF" rx="28.124" ry="23.457"/><path d="M240.649,149.374c14.845,0,26.995,9.596,28.042,21.755c0.048-0.563,0.081-1.129,0.081-1.702   c0-12.955-12.592-23.457-28.124-23.457c-15.533,0-28.124,10.502-28.124,23.457c0,0.573,0.033,1.139,0.082,1.702   C213.654,158.97,225.804,149.374,240.649,149.374z" fill="#231F20"/><path d="M323.402,149.374c14.846,0,26.995,9.596,28.042,21.755c0.049-0.563,0.081-1.129,0.081-1.702   c0-12.955-12.591-23.457-28.123-23.457s-28.123,10.502-28.123,23.457c0,0.573,0.032,1.139,0.082,1.702   C296.406,158.97,308.557,149.374,323.402,149.374z" fill="#231F20"/><path d="M331.653,136.404c4.021-0.837,7.98-1.366,11.804-1.621c-4.605-0.818-11.556-0.915-21.913-0.013   c-15.682,1.365-28.521,8.618-28.521,19.249c0,1.938,0.429,3.808,1.218,5.572C298.088,149.821,312.69,140.352,331.653,136.404z" fill="#231F20"/><path d="M231.853,136.404c-4.021-0.837-7.98-1.366-11.804-1.621c4.605-0.818,11.556-0.915,21.914-0.013   c15.682,1.365,28.521,8.618,28.521,19.249c0,1.938-0.431,3.808-1.219,5.572C265.417,149.821,250.815,140.352,231.853,136.404z" fill="#231F20"/><path d="M302.204,235.802c-0.687,11.849-15.64,7.049-30.812,14.731c-5.074,2.57-10.536,5.706-15.495,7.765   c4.989,3.763,11.6,6.055,18.856,6.055c15.531,0,28.122-10.502,28.122-23.457C302.876,239.146,302.639,237.442,302.204,235.802z" fill="#7F4E2C"/><path d="M302.633,234.477c-0.154,2.671-1.469,5.817-2.913,7.129   c-1.448,11.822-13.42,21.045-27.976,21.045c-5.192,0-10.052-1.179-14.225-3.226c4.761,3.084,10.737,4.927,17.234,4.927   c15.531,0,28.122-10.502,28.122-23.457C302.876,239.146,303.069,236.118,302.633,234.477z" fill="#966A44" opacity="0.42"/><path d="M284.74,246.436v2.461c0,2.966-1.967,5.393-4.371,5.393h-8.344   c0.72,3.764,3.854,6.596,7.615,6.596c4.292,0,7.771-3.689,7.771-8.24C287.411,250.165,286.373,247.947,284.74,246.436z" fill="#89623D" opacity="0.42"/><path d="M321.145,191.183c-6.735,0-12.907-1.983-17.748-5.278c5.097,4.309,12.174,6.98,20.005,6.98   c8.538,0,16.183-3.178,21.339-8.188l0.043-4.27C339.776,186.896,331.064,191.183,321.145,191.183z" fill="#231F20" opacity="0.8"/><path d="M242.047,191.183c6.736,0,12.907-1.983,17.748-5.278c-5.097,4.309-12.174,6.98-20.005,6.98   c-8.538,0-16.182-3.178-21.34-8.188l-0.042-4.27C223.416,186.896,232.128,191.183,242.047,191.183z" fill="#231F20" opacity="0.8"/><g><path d="M300.061,217.826c0,9.986-8.037,11.463-17.955,11.463c-9.916,0-17.955-1.477-17.955-11.463    c0-9.987,8.039-18.083,17.955-18.083C292.024,199.743,300.061,207.839,300.061,217.826z" fill="#A97D51"/><ellipse cx="289.424" cy="220.5" fill="#3C2517" rx="4.721" ry="5.914"/><ellipse cx="282.344" cy="216.761" fill="#E7E7E7" opacity="0.15" rx="0.847" ry="6.132"/><path d="M282.106,199.743c-0.353,0-0.698,0.033-1.048,0.053c9.426,0.549,16.907,8.399,16.907,18.03    c0,9.63-7.481,11.342-16.907,11.452c0.35,0.004,0.695,0.011,1.048,0.011c9.918,0,17.955-1.477,17.955-11.463    C300.061,207.839,292.024,199.743,282.106,199.743z" fill="#E7E7E7" opacity="0.15"/><path d="M291.187,216.569c0.784,0,1.522,0.242,2.172,0.666c-0.845-1.596-2.292-2.649-3.935-2.649    c-2.608,0-4.722,2.648-4.722,5.914c0,2.285,1.036,4.263,2.55,5.248c-0.496-0.936-0.786-2.058-0.786-3.265    C286.466,219.217,288.579,216.569,291.187,216.569z" fill="#8B5F3D"/><ellipse cx="275.313" cy="220.5" fill="#3C2517" rx="4.721" ry="5.914"/><path d="M273.55,216.569c-0.784,0-1.521,0.242-2.171,0.666c0.845-1.596,2.292-2.649,3.936-2.649    c2.606,0,4.72,2.648,4.72,5.914c0,2.285-1.035,4.263-2.549,5.248c0.496-0.936,0.787-2.058,0.787-3.265    C278.273,219.217,276.158,216.569,273.55,216.569z" fill="#8B5F3D"/></g><path d="M283.127,251.568l7.008-0.246c1.779-0.063,3.179-1.353,3.124-2.883l-0.627-2.281   c-3.915,0.813-8.16,1.418-12.616,1.762l-0.208,0.993C279.862,250.442,281.348,251.631,283.127,251.568z" fill="#FFFFFF"/><path d="M270.394,252.216l5.616-0.198c1.779-0.062,3.178-1.353,3.124-2.882l-0.063-0.233   c-2.45,0.645-4.976,1.507-7.521,2.745C271.166,251.832,270.781,252.024,270.394,252.216z" fill="#FFFFFF"/><g><g><ellipse cx="319.415" cy="171.116" fill="#05252D" rx="18.278" ry="18.595" transform="matrix(-5.075177e-004 -1 1 -5.075177e-004 148.4607 490.6178)"/><g opacity="0.3"><ellipse cx="319.413" cy="171.116" fill="#0779A6" rx="13.783" ry="14.023" transform="matrix(5.313913e-004 1 -1 5.313913e-004 490.3593 -148.3875)"/></g><g><ellipse cx="319.414" cy="171.116" fill="#013344" rx="6.28" ry="6.173"/></g></g><path d="M314.796,164.31c-0.862,0.298-1.77-2.894-1.019-3.806    c2.018-2.454,10.672-2.251,13.236,1.447c2.108,3.04-1.32,4.202-1.32,4.202S321.313,162.06,314.796,164.31z" fill="#0779A6" opacity="0.5"/></g><g><g><ellipse cx="243.611" cy="171.116" fill="#05252D" rx="18.278" ry="18.596" transform="matrix(-5.075177e-004 -1 1 -5.075177e-004 72.618 414.8136)"/><g opacity="0.3"><path d="M243.615,184.899c7.745-0.004,14.021-6.177,14.017-13.791c-0.004-7.611-6.286-13.779-14.031-13.775      c-7.742,0.004-14.017,6.179-14.013,13.79C229.593,178.736,235.873,184.903,243.615,184.899z" fill="#0779A6"/></g><g><ellipse cx="243.61" cy="171.116" fill="#013344" rx="6.279" ry="6.173"/></g></g><path d="M238.992,164.31c-0.863,0.298-1.77-2.894-1.02-3.806c2.018-2.454,10.672-2.251,13.237,1.447    c2.108,3.04-1.32,4.202-1.32,4.202S245.508,162.06,238.992,164.31z" fill="#0779A6" opacity="0.5"/></g><path d="M277.414,92.978c-0.246,0-0.49,0.007-0.736,0.009v211.579c0.246,0.003,0.49,0.01,0.736,0.01   c62.263,0,112.735-47.368,112.735-105.799S339.677,92.978,277.414,92.978z" fill="#1E1E1E" opacity="0.1"/><g><path d="M403.818,106.221c-13.381-68.451-90.924-85.65-132.575-82.122c-14.29,1.211-28.453,3.033-42.383,6.877    c0.97-2.946,0.805-7.046-6.801-8.2c0,0,6.286,1.539,0,6.815l-3.65-6.815c-0.046,0.591,0.371,5.648-0.735,6.815l-6.853-1.127    c0,0,5.044,3.859,5.813,4.512c0.325,0.275,0.561,0.974,0.725,1.686c-7.5,2.76-14.923,6.228-22.249,10.645    c-12.181,7.344-70.055,39.49-52.239,129.027l38.991,148.282c0.05-0.139,0.101-0.275,0.148-0.421    c-16.86-129.31-6.652-135.538-6.652-135.538s27.075,61.442,29.647,60.063c0,0,0.744-112.852,0.901-113.09    c0.051-0.086,0.103-0.164,0.155-0.237c0.017-0.021,0.032-0.042,0.05-0.064c0.167-0.221,0.339-0.399,0.522-0.495    c3.296-2.498,58.467,70.93,62.141,75.671c1.636,1.631,3.252-74.373,3.252-74.373c2.264,3.058,23.141,54.916,26.895,55.264    c-6.098-6.573,6.252-55.264,6.252-55.264s38.089,10.808,55.155,40.472c31.301,54.407,8.962,143.885,9.773,143.769    c2.358-0.845,26.215-46.43,30.574-70.068C414.609,172.735,403.818,106.221,403.818,106.221z" fill="#141414"/></g><path d="M274.765,23.858v115.899c6.356,14.126,21.063,49.351,24.154,49.637c-6.098-6.573,6.252-55.264,6.252-55.264   s38.089,10.808,55.155,40.472c31.301,54.407,8.962,143.885,9.773,143.769c2.358-0.845,26.215-46.43,30.574-70.068   c13.935-75.568,3.144-142.083,3.144-142.083C390.805,39.653,317.117,21.559,274.765,23.858z" opacity="0.3"/></g></svg>