<?xml version="1.0" ?><!DOCTYPE svg  PUBLIC '-//W3C//DTD SVG 1.1//EN'  'http://www.w3.org/Graphics/SVG/1.1/DTD/svg11.dtd'><svg enable-background="new 0 0 512 512" height="512px" version="1.1" viewBox="0 0 512 512" width="512px" xml:space="preserve" xmlns="http://www.w3.org/2000/svg" xmlns:xlink="http://www.w3.org/1999/xlink"><g id="Background_2_"><g id="Background_1_"><g id="Background"><circle cx="256" cy="256" fill="#998038" r="256"/></g></g></g><g id="Ogi_x5F_11"><ellipse cx="262.275" cy="427.256" fill="#725C25" rx="138.5" ry="7.875"/><ellipse cx="117.845" cy="435.441" fill="#725C25" rx="16.675" ry="3.474"/><ellipse cx="405.399" cy="435.441" fill="#725C25" rx="16.674" ry="3.474"/><path d="M222.947,292.419c0,0-45.641,12.091-64.27,46.829c0,0-12.701,20.486,0.847,32.957   c13.548,12.47,26.25,4.453,26.25,1.781s-3.387-8.907-3.387-8.907s-2.541-4.454,4.233-5.345c6.774-0.891,6.774-0.891,6.774-0.891   L222.947,292.419z" fill="#C3996C"/><path d="M295.817,293.17c0,0,45.81,11.618,64.438,46.355c0,0,12.701,20.486-0.847,32.956   c-13.549,12.471-26.25,4.454-26.25,1.782s3.387-8.907,3.387-8.907s2.541-4.454-4.232-5.345c-6.775-0.891-6.775-0.891-6.775-0.891   L295.817,293.17z" fill="#C3996C"/><path d="M347.403,322.359c-21.333-21.517-51.586-29.189-51.586-29.189l19.908,44.177   C329.204,335.563,340.656,329.838,347.403,322.359z" fill="#E1E5E1"/><path d="M171.735,321.113c21.333-21.518,51.586-29.19,51.586-29.19L203.412,336.1   C189.933,334.315,178.481,328.592,171.735,321.113z" fill="#E1E5E1"/><path d="M195.426,366.396l-15.268,55.491c0,0-1.693,18.408,64.918,0.594l3.751-20.109   C248.827,402.372,215.262,395.258,195.426,366.396z" fill="#E7BE9D"/><path d="M268.399,402.133l2.856,14.166c5.296,0.891,10.854,1.366,16.585,1.366c17.476,0,33.346-4.41,45.063-11.594   l-8.781-37.761C297.595,397.61,268.407,402.086,268.399,402.133z" fill="#2376BC"/><path d="M248.985,401.405l-2.855,14.894c-5.297,0.891-10.854,1.366-16.586,1.366   c-17.475,0-33.345-4.411-45.061-11.594l10.932-40.432C219.197,395.989,248.977,401.356,248.985,401.405z" fill="#2376BC"/><path d="M335.926,421.351l-3.357-15.084c-11.683,7.065-27.415,11.398-44.729,11.398   c-5.731,0-11.289-0.476-16.585-1.366l-0.043-0.218l1.022,6.08C338.846,439.976,335.926,421.351,335.926,421.351z" fill="#DDB294"/><path d="M223.569,291.711l-28.155,73.929c0,0,57.58,81.055,128.707,2.671l-28.768-76.035   C295.354,292.275,252.36,300.619,223.569,291.711z" fill="#966627"/><path d="M209.62,347.297c0,26.593,21.941,48.149,49.007,48.149c27.066,0,49.008-21.557,49.008-48.149H209.62z" fill="#E1E5E1"/><g><path d="M293.547,292.29l-26.103,17.024c0,0,0.488-7.445-5.771-11.658    C255.414,293.441,262.958,298.958,293.547,292.29z" fill="#10A64F"/><path d="M224.543,292.29l26.102,17.024c0,0-0.489-7.445,5.771-11.658    C262.675,293.441,255.131,298.958,224.543,292.29z" fill="#10A64F"/></g><path d="M261.356,295.755v106.706c18.564-0.283,39.969-9.027,62.766-34.15l-28.768-76.035   C295.354,292.275,279.92,295.27,261.356,295.755z" fill="#1E1E1E" opacity="0.1"/><ellipse cx="259.389" cy="204.191" fill="#E7BE9D" rx="99.657" ry="93.526"/><ellipse cx="300.041" cy="178.247" fill="#FFFFFF" rx="24.86" ry="20.736"/><ellipse cx="226.889" cy="178.247" fill="#FFFFFF" rx="24.862" ry="20.736"/><path d="M226.888,160.519c13.123,0,23.864,8.482,24.789,19.232c0.043-0.497,0.073-0.998,0.073-1.504   c0-11.453-11.131-20.736-24.862-20.736c-13.731,0-24.861,9.283-24.861,20.736c0,0.506,0.029,1.007,0.072,1.504   C203.025,169.001,213.765,160.519,226.888,160.519z" fill="#231F20"/><path d="M300.041,160.519c13.123,0,23.864,8.482,24.789,19.232c0.043-0.497,0.072-0.998,0.072-1.504   c0-11.453-11.131-20.736-24.861-20.736c-13.729,0-24.86,9.283-24.86,20.736c0,0.506,0.028,1.007,0.072,1.504   C276.178,169.001,286.918,160.519,300.041,160.519z" fill="#231F20"/><path d="M307.336,149.053c3.555-0.74,7.054-1.208,10.434-1.433c-4.071-0.723-10.215-0.808-19.371-0.011   c-13.862,1.207-25.213,7.618-25.213,17.016c0,1.713,0.379,3.366,1.077,4.926C277.664,160.914,290.573,152.543,307.336,149.053z" fill="#231F20"/><path d="M219.112,149.053c-3.555-0.74-7.054-1.208-10.435-1.433c4.071-0.723,10.215-0.808,19.372-0.011   c13.862,1.207,25.212,7.618,25.212,17.016c0,1.713-0.38,3.366-1.076,4.926C248.783,160.914,235.875,152.543,219.112,149.053z" fill="#231F20"/><path d="M298.046,197.478c-5.954,0-11.41-1.753-15.689-4.666c4.506,3.809,10.763,6.171,17.685,6.171   c7.548,0,14.305-2.809,18.864-7.238l0.038-3.774C314.517,193.689,306.815,197.478,298.046,197.478z" fill="#231F20" opacity="0.8"/><path d="M228.124,197.478c5.954,0,11.411-1.753,15.689-4.666c-4.506,3.809-10.763,6.171-17.685,6.171   c-7.548,0-14.305-2.809-18.864-7.238l-0.037-3.774C211.654,193.689,219.356,197.478,228.124,197.478z" fill="#231F20" opacity="0.8"/><g><path d="M279.408,221.03c0,8.828-7.105,10.134-15.872,10.134c-8.766,0-15.872-1.306-15.872-10.134    s7.106-15.985,15.872-15.985C272.303,205.045,279.408,212.202,279.408,221.03z" fill="#A97E52"/><ellipse cx="270.005" cy="223.395" fill="#3C2619" rx="4.173" ry="5.228"/><ellipse cx="263.746" cy="220.089" fill="#E7E7E7" opacity="0.15" rx="0.749" ry="5.421"/><path d="M263.536,205.045c-0.313,0-0.618,0.029-0.927,0.047    c8.333,0.486,14.946,7.424,14.946,15.938s-6.613,10.026-14.946,10.124c0.309,0.003,0.614,0.01,0.927,0.01    c8.767,0,15.872-1.306,15.872-10.134S272.303,205.045,263.536,205.045z" fill="#E7E7E7" opacity="0.15"/><path d="M271.564,219.919c0.693,0,1.346,0.214,1.92,0.588c-0.747-1.41-2.025-2.341-3.479-2.341    c-2.306,0-4.174,2.34-4.174,5.228c0,2.02,0.916,3.768,2.254,4.639c-0.438-0.827-0.694-1.819-0.694-2.886    C267.391,222.26,269.258,219.919,271.564,219.919z" fill="#8B603E"/><ellipse cx="257.532" cy="223.395" fill="#3C2619" rx="4.173" ry="5.228"/><path d="M255.973,219.919c-0.693,0-1.345,0.214-1.92,0.588c0.747-1.41,2.026-2.341,3.479-2.341    c2.305,0,4.173,2.34,4.173,5.228c0,2.02-0.916,3.768-2.254,4.639c0.439-0.827,0.696-1.819,0.696-2.886    C260.148,222.26,258.279,219.919,255.973,219.919z" fill="#8B603E"/></g><g><g><ellipse cx="296.517" cy="179.739" fill="#09252D" rx="16.158" ry="16.439" transform="matrix(-5.137165e-004 -1 1 -5.137165e-004 116.9307 476.3487)"/><g opacity="0.3"><path d="M296.522,191.923c6.848-0.003,12.394-5.461,12.391-12.191c-0.004-6.728-5.557-12.181-12.403-12.177      c-6.844,0.003-12.391,5.462-12.387,12.19C284.125,186.475,289.678,191.927,296.522,191.923z" fill="#087AA7"/></g><g><ellipse cx="296.517" cy="179.739" fill="#013344" rx="5.551" ry="5.457"/></g></g><path d="M292.435,173.722c-0.763,0.264-1.564-2.558-0.901-3.364    c1.784-2.169,9.434-1.99,11.701,1.279c1.863,2.687-1.167,3.715-1.167,3.715S298.195,171.732,292.435,173.722z" fill="#087AA7" opacity="0.5"/></g><g><g><ellipse cx="229.506" cy="179.739" fill="#09252D" rx="16.158" ry="16.439" transform="matrix(-4.985770e-004 -1 1 -4.985770e-004 49.8818 409.335)"/><g opacity="0.3"><ellipse cx="229.505" cy="179.739" fill="#087AA7" rx="12.184" ry="12.396" transform="matrix(5.210201e-004 1 -1 5.210201e-004 409.1241 -49.8592)"/></g><g><ellipse cx="229.505" cy="179.739" fill="#013344" rx="5.552" ry="5.457"/></g></g><path d="M225.423,173.722c-0.763,0.264-1.564-2.558-0.901-3.364    c1.784-2.169,9.434-1.99,11.702,1.279c1.863,2.687-1.167,3.715-1.167,3.715S231.184,171.732,225.423,173.722z" fill="#087AA7" opacity="0.5"/></g><path d="M259.389,110.665c-0.218,0-0.434,0.006-0.651,0.007v187.037   c0.218,0.001,0.434,0.008,0.651,0.008c55.04,0,99.658-41.874,99.658-93.526C359.047,152.538,314.429,110.665,259.389,110.665z" fill="#1E1E1E" opacity="0.1"/><g><path d="M371.129,122.371c-11.828-60.51-80.377-75.714-117.196-72.596c-12.632,1.07-25.153,2.681-37.467,6.079    c0.858-2.604,0.712-6.229-6.012-7.249c0,0,5.557,1.36,0,6.025l-3.226-6.025c-0.041,0.522,0.328,4.993-0.65,6.025l-6.058-0.997    c0,0,4.459,3.412,5.139,3.988c0.287,0.244,0.495,0.861,0.64,1.491c-6.629,2.439-13.191,5.504-19.668,9.41    c-10.767,6.492-61.928,34.909-46.179,114.06l34.468,131.082c0.044-0.122,0.089-0.243,0.131-0.372    c-14.904-114.31-5.88-119.816-5.88-119.816s23.934,54.315,26.208,53.096c0,0,0.658-99.761,0.796-99.972    c0.045-0.076,0.091-0.145,0.137-0.209c0.015-0.019,0.028-0.038,0.044-0.057c0.147-0.195,0.3-0.353,0.461-0.438    c2.914-2.208,51.686,62.702,54.934,66.894c1.445,1.441,2.874-65.746,2.874-65.746c2.001,2.703,20.456,48.546,23.774,48.853    c-5.391-5.811,5.527-48.853,5.527-48.853s33.67,9.554,48.757,35.777c27.671,48.096,7.923,127.194,8.64,127.091    c2.085-0.746,23.175-41.044,27.027-61.94C380.668,181.17,371.129,122.371,371.129,122.371z" fill="#161616"/></g><path d="M257.047,49.563v102.456c5.619,12.488,18.619,43.626,21.352,43.879   c-5.391-5.811,5.527-48.853,5.527-48.853s33.67,9.554,48.757,35.777c27.671,48.096,7.923,127.194,8.64,127.091   c2.085-0.746,23.175-41.044,27.027-61.94c12.318-66.802,2.779-125.601,2.779-125.601C359.626,63.526,294.487,47.53,257.047,49.563z   " fill="#010101" opacity="0.3"/><path d="M240.249,260.146c0,0,18.528,15.75,43.542,0c0,0-12.948,5.739-23.369,5.449   C252.084,265.364,240.249,260.146,240.249,260.146z" fill="#231F20"/><g><path d="M426.611,313.337c0-0.874-0.429-1.594-0.956-1.594H97.423c-0.527,0-0.956,0.72-0.956,1.594l0.009,16.651    c0,0.871,0.426,1.595,0.954,1.595h328.225c0.527,0,0.956-0.724,0.956-1.595V313.337z" fill="#603917"/><path d="M425.797,311.423l-18.702-8.383c0,0-70.834,0-145.557,0l0,0c-74.722,0-145.556,0-145.556,0l-18.701,8.383    c-0.356,0.16-0.813,0.774-0.813,1.914c0-0.874,0.429-1.594,0.956-1.594h164.115l0,0h164.116c0.527,0,0.956,0.72,0.956,1.594    C426.611,312.197,426.154,311.583,425.797,311.423z" fill="#6A4219"/><rect fill="#6A4219" height="36.69" width="302.199" x="110.44" y="331.583"/><rect fill="#532F14" height="15.649" width="302.199" x="110.44" y="342.1"/><rect fill="#532F14" height="4.347" width="330.143" x="96.468" y="319.489"/><rect fill="#532F14" height="103.89" width="14.267" x="110.44" y="331.583"/><rect fill="#6A4219" height="103.89" width="6.085" x="114.532" y="331.583"/><rect fill="#532F14" height="105.245" width="14.268" x="398.371" y="331.583"/><rect fill="#6A4219" height="105.245" width="6.086" x="402.464" y="331.583"/><path d="M425.797,311.423l-18.702-8.383c0,0-69.69,0-143.739,0v65.233h135.016v68.555h4.093h6.086    h4.089v-68.555v-10.524V342.1v-10.517h13.016c0.527,0,0.956-0.724,0.956-1.595v-6.152v-4.347v-6.152    c0-0.165-0.021-0.321-0.048-0.472C426.454,312.04,426.099,311.558,425.797,311.423z" fill="#0B0B0B" opacity="0.1"/></g><g><path d="M381.581,265.48c0,0,0.006,0.035,0.015,0.096c0.138-0.351,0.21-0.706,0.21-1.066    c0-5.033-13.702-9.113-30.604-9.113c-16.167,0-30.055,3.275-31.174,8.004C321.616,265.093,338.352,281.039,381.581,265.48z" fill="#AA6628"/><path d="M302.531,268.717c0,0,4.825-1.247,8.082,9.17c3.258,10.418,3.085,9.305,3.085,9.305    s1.751,3.736,4.423,5.104c0,0,2.923,2.262,5.395-0.813c2.472-3.075,2.375-10.905,2.375-10.905s0.059-4.523-3.047-5.662    c-3.107-1.139-3.148-0.684-3.148-0.684s-3.424-1.067-4.432-3.543c0,0-1.329-4.125-2.755-4.795S303.789,262.627,302.531,268.717z" fill="#AA6628"/><path d="M303.339,267.377c0,0,3.229-3.795,9.1-0.893C312.439,266.484,308.549,270.056,303.339,267.377z" fill="#71431B"/><path d="M320.028,263.401c0,0,15.511,18.202,61.551,1.771c0,0,3.695,21.149-11.929,41.614    c0,0-12.618,8.771-36.665,1.635C332.985,308.422,313.371,289.499,320.028,263.401z" fill="#8B5723"/><path d="M333.695,260.347c0,0,12.035,7.28,33.464,0c0,0-2.744-4.735-11.645-6.548l-9.197,0.099    C346.317,253.897,338.085,254.336,333.695,260.347z" fill="#CB8E2A"/><path d="M354.439,253.104c0,0.657-0.526,1.19-1.175,1.19h-5.576c-0.649,0-1.176-0.533-1.176-1.19l0,0    c0-0.658,0.526-1.191,1.176-1.191h5.576C353.912,251.913,354.439,252.447,354.439,253.104L354.439,253.104z" fill="#231F20"/><ellipse cx="350.298" cy="249.59" fill="#231F20" rx="5.978" ry="3.015"/><path d="M379.526,275.99c0,0,1.818-8.581,8.54-4.856c0,0,3.862,3.313,4.065,7.614c0,0,0.659,7.485-4.184,12.307    c-4.844,4.823-8.738,4.978-8.738,4.978s-1.422,0.874-4.678,0.746l-5.89,6.835c0,0-0.737,2.321,2.175,0.075l11.999-5.183    c0,0,7.293-2.817,11.218-11.531c0,0,3.99-7.848-1.233-16.241c0,0-2.974-6.175-12.032-3.807c0,0-4.74,0.886-4.158,2.554    C377.19,271.15,379.526,275.99,379.526,275.99z" fill="#AA6628"/><ellipse cx="350.298" cy="249.59" fill="#F1F2F2" opacity="0.2" rx="5.978" ry="3.015"/></g><path d="M381.768,266.713c-0.055-0.563-0.106-0.978-0.144-1.233c0.114-0.318,0.182-0.642,0.182-0.97   c0-3.919-8.306-7.258-19.962-8.545c-1.639-0.845-3.713-1.632-6.33-2.166l-1.332,0.015c0.152-0.201,0.257-0.438,0.257-0.708   c0-0.472-0.276-0.871-0.67-1.064c1.517-0.547,2.507-1.439,2.507-2.451c0-1.588-2.438-2.886-5.527-3.002v64.627   c12.453,0.048,18.901-4.428,18.901-4.428c0.948-1.244,1.825-2.489,2.636-3.732l10.53-4.549c0,0,7.293-2.817,11.218-11.531   c0,0,3.99-7.848-1.233-16.241C392.8,270.733,390.034,265.046,381.768,266.713z M387.948,291.055   c-4.844,4.823-8.738,4.978-8.738,4.978s-1.039,0.626-3.343,0.737c4.985-10.11,6.042-19.483,6.089-25.352   c1.322-1.237,3.279-1.854,6.11-0.284c0,0,3.862,3.313,4.065,7.614C392.131,278.748,392.79,286.233,387.948,291.055z" opacity="0.1"/><g><path d="M174.283,262.755c0.41-1.37,2.829-2.511,5.419-2.565l18.109-0.386c-2.869-2.062-8.223-3.276-14.33-3.086    c-8.62,0.27-16.376,3.32-17.902,7.077L174,263.7L174.283,262.755z" fill="#333333"/><path clip-rule="evenodd" d="M191.052,209.778c0,0-8.493,2.06-11.24,4.655    c-2.746,2.596-3.952,3.142-4.412,8.387c-2.465,28.169,3.188,51.987,17.887,75.359c2.738,4.354,4.037,4.198,7.597,5.032    c3.56,0.832,11.914-1.814,11.914-1.814l-15.708-19.729c0,0-2.381,0.04-3.295-1.48c-0.857-1.427-4.509-18.73-4.951-20.835    l0.005-0.001l-0.027-0.104l-0.022-0.105l-0.005,0.002c-0.549-2.074-5.056-19.14-4.941-20.839c0.124-1.809,2.227-3.022,2.227-3.022    L191.052,209.778z" fill-rule="evenodd"/><path clip-rule="evenodd" d="M116.303,298.247c0,0,7.96-11.368,12.043-13.872    c4.084-2.503,4.818-1.355,4.818-1.355h43.406c0,0,0.734-1.147,4.818,1.355c4.084,2.504,12.042,13.872,12.042,13.872l-3.246,2.816    h-70.633L116.303,298.247z" fill="#23201F" fill-rule="evenodd"/><path clip-rule="evenodd" d="M191.807,297.185c0,0-5.188-1.946-7.718-5.528    c-2.531-3.583-4.252-6.246-6.175-18.736c-1.923-12.49-2.631-20.782-2.631-21.807c0-1.023-3.314-1.125-5.237-1.125    c-1.923,0-3.442,0.205-3.138,2.457c0.303,2.252,0.303,13.924,0.303,13.924l-12.344,3.343l-12.344-3.343c0,0,0-11.671,0.304-13.924    c0.303-2.252-1.215-2.457-3.139-2.457c-1.922,0-5.235,0.102-5.235,1.125c0,1.024-0.708,9.316-2.632,21.807    c-1.922,12.49-3.644,15.153-6.174,18.736c-2.531,3.582-7.72,5.528-7.72,5.528s1.519,1.228,2.733,1.228c22.805,0,45.609,0,68.415,0    C190.289,298.412,191.807,297.185,191.807,297.185z" fill="#282828" fill-rule="evenodd"/><path clip-rule="evenodd" d="M116.385,297.754v4.543c0,0,0.939,0.628,1.931,0.889    c11.167,2.94,61.936,2.94,73.103,0c0.992-0.261,1.932-0.889,1.932-0.889v-4.543c-1.17,1.562-2.763,1.672-4.514,1.672    c-22.391,0-44.767,0-67.158,0C119.686,299.426,117.749,299.574,116.385,297.754z" fill="#0B0B0A" fill-rule="evenodd"/><path clip-rule="evenodd" d="M116.385,297.754v0.834c1.364,1.82,3.302,1.672,5.293,1.672    c22.391,0,44.767,0,67.158,0c1.751,0,3.344-0.112,4.514-1.672v-0.834c-1.17,1.562-2.763,1.672-4.514,1.672    c-22.391,0-44.767,0-67.158,0C119.686,299.426,117.749,299.574,116.385,297.754z" fill="#CACACB" fill-rule="evenodd"/><path clip-rule="evenodd" d="M189.439,237.599l-1.187-0.261    c-1.572-0.347-2.596-1.974-2.276-3.617l4.731-24.276c0.325-1.667,1.896-2.744,3.492-2.393l1.187,0.262    c1.572,0.346,2.596,1.974,2.276,3.616l-4.731,24.276C192.606,236.873,191.034,237.95,189.439,237.599z" fill="#414042" fill-rule="evenodd"/><path clip-rule="evenodd" d="M199.538,277.887l-0.965,0.849    c-1.215,1.068-1.39,2.996-0.388,4.283l14.838,19.072c1.039,1.335,2.92,1.521,4.181,0.413l0.965-0.85    c1.215-1.067,1.39-2.996,0.388-4.283L203.719,278.3C202.679,276.965,200.798,276.779,199.538,277.887z" fill="#58595B" fill-rule="evenodd"/><path d="M193.059,234.545l4.464-22.91c0.094-0.479,0.093-0.958,0.017-1.414c-2.304,2.738-4.51,8.001-5.74,14.287    c-0.935,4.783-1.128,9.261-0.689,12.667C192.076,236.683,192.826,235.739,193.059,234.545z" fill="#757576"/><path d="M218.117,296.807l-14.027-18.029c-0.757-0.975-1.888-1.435-2.995-1.351    c1.252,3.036,3.457,6.899,6.307,10.842c4.306,5.957,8.825,10.357,11.491,11.432C219.016,298.696,218.768,297.644,218.117,296.807z    " fill="#757576"/><path d="M173.485,265.422L174,263.7l-8.42,0.095c-0.012,0.03-0.029,0.063-0.041,0.095    c-1.545,4.091,4.693,7.741,14.553,7.868c6.371,0.082,12.376-1.348,16.129-3.563l-18.543-0.042    C174.905,268.146,173.042,266.901,173.485,265.422z" fill="#333333"/><path clip-rule="evenodd" d="M164.351,293.758h-19.317c-6.114,0-11.117-5.002-11.117-11.117    V258.12c0-6.115,5.002-11.118,11.117-11.118h19.317c6.115,0,11.117,5.003,11.117,11.118v24.521    C175.469,288.756,170.466,293.758,164.351,293.758z" fill="#231F20" fill-rule="evenodd"/><path clip-rule="evenodd" d="M164.351,293.758h-19.317    c-6.114,0-11.117-5.002-11.117-11.117V258.12c0-6.115,5.002-11.118,11.117-11.118h19.317c6.115,0,11.117,5.003,11.117,11.118    v24.521C175.469,288.756,170.466,293.758,164.351,293.758z" fill="#68696B" fill-rule="evenodd" opacity="0.4"/><rect clip-rule="evenodd" fill="#414042" fill-rule="evenodd" height="9.048" width="35.91" x="136.807" y="249.593"/><g><g><ellipse clip-rule="evenodd" cx="142.613" cy="263.372" fill="#9E9E9F" fill-rule="evenodd" rx="3.842" ry="3.227"/><g><path d="M142.346,262.465h-0.011l-0.667,0.28l-0.135-0.542l0.926-0.381h0.678v3.091h-0.791V262.465z" fill="#231F20"/></g><path d="M144.74,260.686c1.033,0.58,1.715,1.565,1.715,2.687c0,1.781-1.72,3.227-3.842,3.227      c-0.459,0-0.897-0.071-1.306-0.196c0.609,0.342,1.34,0.541,2.127,0.541c2.122,0,3.841-1.444,3.841-3.227      C147.275,262.32,146.217,261.136,144.74,260.686z" fill="#1A1A1A" opacity="0.6"/></g><g><ellipse clip-rule="evenodd" cx="165.6" cy="272.342" fill="#9E9E9F" fill-rule="evenodd" rx="3.842" ry="3.227"/><g><path d="M166.522,271.307c-0.091-0.005-0.188,0-0.317,0.01c-0.727,0.053-1.049,0.38-1.141,0.742h0.017       c0.172-0.158,0.414-0.248,0.742-0.248c0.586,0,1.082,0.366,1.082,1.008c0,0.613-0.533,1.117-1.291,1.117       c-0.931,0-1.388-0.613-1.388-1.351c0-0.579,0.242-1.064,0.618-1.374c0.351-0.28,0.802-0.432,1.351-0.455       c0.15-0.01,0.248-0.01,0.328-0.006V271.307z M166.075,272.856c0-0.285-0.172-0.532-0.522-0.532       c-0.22,0-0.404,0.118-0.484,0.275c-0.022,0.037-0.032,0.096-0.032,0.181c0.016,0.327,0.193,0.622,0.565,0.622       C165.893,273.402,166.075,273.17,166.075,272.856z" fill="#231F20"/></g><path d="M167.726,269.657c1.033,0.577,1.715,1.564,1.715,2.685c0,1.783-1.72,3.227-3.842,3.227      c-0.459,0-0.898-0.07-1.306-0.195c0.609,0.341,1.34,0.54,2.126,0.54c2.122,0,3.841-1.444,3.841-3.226      C170.262,271.291,169.204,270.105,167.726,269.657z" fill="#1A1A1A" opacity="0.6"/></g><g><ellipse clip-rule="evenodd" cx="154.106" cy="263.372" fill="#9E9E9F" fill-rule="evenodd" rx="3.841" ry="3.227"/><g><path d="M152.796,264.913v-0.438l0.452-0.359c0.764-0.604,1.135-0.952,1.146-1.313       c0-0.252-0.172-0.451-0.575-0.451c-0.302,0-0.565,0.133-0.749,0.257l-0.231-0.518c0.264-0.177,0.672-0.319,1.146-0.319       c0.791,0,1.227,0.408,1.227,0.97c0,0.519-0.425,0.932-0.931,1.331l-0.323,0.237v0.011h1.318v0.594H152.796z" fill="#231F20"/></g><path d="M156.233,260.686c1.033,0.58,1.714,1.565,1.714,2.687c0,1.781-1.72,3.227-3.841,3.227      c-0.459,0-0.897-0.071-1.306-0.196c0.609,0.342,1.34,0.541,2.127,0.541c2.122,0,3.842-1.444,3.842-3.227      C158.769,262.32,157.711,261.136,156.233,260.686z" fill="#1A1A1A" opacity="0.6"/></g><g><ellipse clip-rule="evenodd" cx="165.6" cy="263.372" fill="#9E9E9F" fill-rule="evenodd" rx="3.842" ry="3.227"/><g><path d="M164.434,264.204c0.146,0.066,0.479,0.19,0.813,0.19c0.425,0,0.64-0.18,0.64-0.414       c0-0.304-0.344-0.441-0.705-0.441h-0.333v-0.518h0.317c0.274-0.005,0.624-0.096,0.624-0.357c0-0.185-0.172-0.322-0.517-0.322       c-0.285,0-0.586,0.108-0.731,0.185l-0.167-0.522c0.21-0.119,0.629-0.233,1.082-0.233c0.748,0,1.162,0.347,1.162,0.771       c0,0.327-0.21,0.584-0.641,0.718v0.009c0.42,0.067,0.758,0.348,0.758,0.751c0,0.547-0.543,0.946-1.431,0.946       c-0.453,0-0.834-0.104-1.039-0.219L164.434,264.204z" fill="#231F20"/></g><path d="M167.726,260.686c1.033,0.58,1.715,1.565,1.715,2.687c0,1.781-1.72,3.227-3.842,3.227      c-0.459,0-0.898-0.071-1.306-0.196c0.609,0.342,1.34,0.541,2.126,0.541c2.122,0,3.841-1.444,3.841-3.227      C170.262,262.32,169.204,261.136,167.726,260.686z" fill="#1A1A1A" opacity="0.6"/></g><g><ellipse clip-rule="evenodd" cx="142.613" cy="271.997" fill="#9E9E9F" fill-rule="evenodd" rx="3.842" ry="3.226"/><g><path d="M142.749,273.538v-0.736H141.2v-0.472l1.324-1.882h1v1.811h0.42v0.543h-0.42v0.736H142.749z        M142.749,272.259v-0.684c0-0.186,0.011-0.376,0.027-0.575h-0.022c-0.113,0.199-0.205,0.38-0.322,0.575l-0.468,0.675v0.009       H142.749z" fill="#231F20"/></g><path d="M144.74,269.312c1.033,0.578,1.715,1.565,1.715,2.686c0,1.782-1.72,3.226-3.842,3.226      c-0.459,0-0.897-0.07-1.306-0.195c0.609,0.342,1.34,0.541,2.127,0.541c2.122,0,3.841-1.443,3.841-3.227      C147.275,270.946,146.217,269.761,144.74,269.312z" fill="#1A1A1A" opacity="0.6"/></g><g><ellipse clip-rule="evenodd" cx="154.106" cy="271.997" fill="#9E9E9F" fill-rule="evenodd" rx="3.841" ry="3.226"/><g><path d="M155.131,271.042h-1.355l-0.076,0.476c0.076-0.01,0.14-0.01,0.226-0.01c0.334,0,0.672,0.067,0.92,0.224       c0.263,0.156,0.425,0.413,0.425,0.775c0,0.575-0.56,1.084-1.501,1.084c-0.425,0-0.78-0.086-0.974-0.177l0.145-0.542       c0.156,0.067,0.474,0.152,0.791,0.152c0.339,0,0.7-0.143,0.7-0.471c0-0.318-0.285-0.514-0.985-0.514       c-0.193,0-0.328,0.01-0.473,0.029l0.231-1.621h1.926V271.042z" fill="#231F20"/></g><path d="M156.233,269.312c1.033,0.578,1.714,1.565,1.714,2.686c0,1.782-1.72,3.226-3.841,3.226      c-0.459,0-0.897-0.07-1.306-0.195c0.609,0.342,1.34,0.541,2.127,0.541c2.122,0,3.842-1.443,3.842-3.227      C158.769,270.946,157.711,269.761,156.233,269.312z" fill="#1A1A1A" opacity="0.6"/></g><g><ellipse clip-rule="evenodd" cx="142.613" cy="280.622" fill="#9E9E9F" fill-rule="evenodd" rx="3.842" ry="3.227"/><g><path d="M143.81,279.073v0.456l-1.443,2.635h-0.866l1.442-2.486v-0.01h-1.604v-0.595H143.81z" fill="#231F20"/></g><path d="M144.74,277.938c1.033,0.578,1.715,1.564,1.715,2.685c0,1.782-1.72,3.227-3.842,3.227      c-0.459,0-0.897-0.071-1.306-0.195c0.609,0.341,1.34,0.541,2.127,0.541c2.122,0,3.841-1.445,3.841-3.227      C147.275,279.571,146.217,278.386,144.74,277.938z" fill="#1A1A1A" opacity="0.6"/></g><g><ellipse clip-rule="evenodd" cx="154.106" cy="280.622" fill="#9E9E9F" fill-rule="evenodd" rx="3.841" ry="3.227"/><g><path d="M152.742,281.355c0-0.371,0.242-0.629,0.624-0.775v-0.014c-0.339-0.152-0.505-0.404-0.505-0.676       c0-0.522,0.532-0.87,1.232-0.87c0.818,0,1.156,0.419,1.156,0.795c0,0.266-0.161,0.527-0.505,0.679v0.015       c0.339,0.114,0.64,0.371,0.64,0.771c0,0.561-0.533,0.936-1.345,0.936C153.151,282.215,152.742,281.773,152.742,281.355z        M154.55,281.331c0-0.271-0.226-0.432-0.549-0.508c-0.269,0.065-0.425,0.237-0.425,0.461c-0.005,0.223,0.188,0.433,0.495,0.433       C154.361,281.717,154.55,281.551,154.55,281.331z M153.629,279.867c0,0.209,0.216,0.343,0.496,0.418       c0.188-0.047,0.355-0.199,0.355-0.395c0-0.189-0.124-0.379-0.425-0.379C153.775,279.512,153.629,279.672,153.629,279.867z" fill="#231F20"/></g><path d="M156.233,277.938c1.033,0.578,1.714,1.564,1.714,2.685c0,1.782-1.72,3.227-3.841,3.227      c-0.459,0-0.897-0.071-1.306-0.195c0.609,0.341,1.34,0.541,2.127,0.541c2.122,0,3.842-1.445,3.842-3.227      C158.769,279.571,157.711,278.386,156.233,277.938z" fill="#1A1A1A" opacity="0.6"/></g><g><ellipse clip-rule="evenodd" cx="166.01" cy="280.622" fill="#9E9E9F" fill-rule="evenodd" rx="3.842" ry="3.227"/><g><path d="M164.958,281.641c0.102,0.01,0.193,0.01,0.355,0c0.247-0.015,0.5-0.076,0.688-0.189       c0.226-0.139,0.377-0.339,0.441-0.571l-0.016-0.005c-0.156,0.143-0.382,0.223-0.699,0.223c-0.592,0-1.093-0.365-1.093-0.964       c0-0.604,0.549-1.113,1.318-1.113c0.898,0,1.323,0.609,1.323,1.332c0,0.642-0.231,1.112-0.613,1.421       c-0.333,0.267-0.791,0.414-1.334,0.433c-0.14,0.009-0.279,0.005-0.371,0V281.641z M165.453,280.09       c0,0.268,0.162,0.495,0.495,0.495c0.221,0,0.376-0.095,0.452-0.204c0.027-0.043,0.043-0.091,0.043-0.181       c0-0.328-0.14-0.651-0.511-0.651C165.652,279.549,165.448,279.768,165.453,280.09z" fill="#231F20"/></g><path d="M168.137,277.938c1.033,0.578,1.715,1.564,1.715,2.685c0,1.782-1.72,3.227-3.842,3.227      c-0.459,0-0.897-0.071-1.306-0.195c0.609,0.341,1.34,0.541,2.127,0.541c2.122,0,3.841-1.445,3.841-3.227      C170.673,279.571,169.615,278.386,168.137,277.938z" fill="#1A1A1A" opacity="0.6"/></g><g><ellipse clip-rule="evenodd" cx="143.434" cy="288.903" fill="#9E9E9F" fill-rule="evenodd" rx="3.841" ry="3.225"/><g><path d="M144.705,288.884c0,0.956-0.436,1.612-1.329,1.612c-0.904,0-1.302-0.719-1.307-1.592       c0-0.895,0.43-1.604,1.334-1.604C144.34,287.301,144.705,288.038,144.705,288.884z M142.892,288.904       c-0.005,0.707,0.188,1.045,0.506,1.045c0.317,0,0.489-0.353,0.489-1.056c0-0.685-0.167-1.046-0.495-1.046       C143.092,287.848,142.887,288.186,142.892,288.904z" fill="#231F20"/></g><path d="M145.561,286.217c1.033,0.579,1.714,1.565,1.714,2.687c0,1.781-1.72,3.225-3.841,3.225      c-0.459,0-0.898-0.07-1.306-0.194c0.609,0.341,1.34,0.54,2.127,0.54c2.122,0,3.841-1.443,3.841-3.226      C148.096,287.852,147.038,286.666,145.561,286.217z" fill="#1A1A1A" opacity="0.6"/></g><g><path clip-rule="evenodd" d="M166.801,292.55h-12.373c-1.789,0-3.253-1.464-3.253-3.253l0,0      c0-1.79,1.464-3.254,3.253-3.254h12.373c1.789,0,3.253,1.464,3.253,3.254l0,0C170.053,291.086,168.59,292.55,166.801,292.55z" fill="#9E9E9F" fill-rule="evenodd"/><path d="M168.29,286.492c1.055,0.526,1.764,1.46,1.764,2.521v0.566c0,1.633-1.671,2.97-3.714,2.97      h-11.451c-0.469,0-0.917-0.073-1.331-0.202c0.568,0.283,1.235,0.45,1.95,0.45h11.451c2.042,0,3.714-1.337,3.714-2.972v-0.564      C170.673,288.003,169.679,286.924,168.29,286.492z" fill="#1A1A1A" opacity="0.6"/><g><path d="M158.445,291.005c-0.175,0.063-0.507,0.113-0.884,0.113c-1.027,0-1.684-0.498-1.684-1.298       c0-0.743,0.637-1.351,1.82-1.351c0.26,0,0.546,0.036,0.754,0.098l-0.156,0.588c-0.116-0.042-0.292-0.078-0.553-0.078       c-0.52,0-0.858,0.296-0.852,0.712c0,0.467,0.39,0.712,0.872,0.712c0.234,0,0.417-0.031,0.565-0.078L158.445,291.005z" fill="#39B54A"/><path d="M160.823,291.067l-0.059-0.255h-0.019c-0.208,0.203-0.534,0.312-0.911,0.312       c-0.644,0-1.027-0.374-1.027-0.779c0-0.659,0.741-0.977,1.866-0.972v-0.037c0-0.134-0.091-0.326-0.579-0.326       c-0.325,0-0.669,0.088-0.877,0.192l-0.183-0.51c0.221-0.098,0.657-0.223,1.235-0.223c1.06,0,1.398,0.498,1.398,1.097v0.883       c0,0.244,0.013,0.478,0.045,0.618H160.823z M160.706,289.866c-0.52-0.004-0.923,0.095-0.923,0.401       c0,0.202,0.169,0.301,0.39,0.301c0.248,0,0.449-0.13,0.514-0.291c0.013-0.042,0.02-0.089,0.02-0.135V289.866z" fill="#39B54A"/><path d="M162.447,287.379h0.989v3.688h-0.989V287.379z" fill="#39B54A"/><path d="M164.235,287.379h0.988v3.688h-0.988V287.379z" fill="#39B54A"/></g></g></g><rect clip-rule="evenodd" fill="#A09F9F" fill-rule="evenodd" height="9.048" width="35.91" x="136.807" y="249.593"/><path clip-rule="evenodd" d="M217.736,296.316l-13.646-17.539    c0,0,0,0-0.001-0.001l-0.371-0.477c-1.039-1.335-2.92-1.521-4.181-0.413l-0.965,0.849c-1.215,1.068-1.39,2.996-0.388,4.283    l0.802,1.031l-1.896-2.382c0,0-2.381,0.04-3.295-1.48c-0.42-0.699-1.513-5.222-2.57-9.895c1.909-0.568,3.606-1.279,4.994-2.098    l-5.467-0.012c-0.771-3.471-1.46-6.709-1.773-8.191l8.832-0.188c-2.101-1.509-5.534-2.562-9.618-2.944    c-1.376-5.259-4.435-17.149-4.34-18.554c0.123-1.804,2.214-3.015,2.225-3.021c0.32,1.005,1.117,1.82,2.173,2.053l1.187,0.261    c1.596,0.352,3.167-0.726,3.492-2.393l0.128-0.659c0-0.001,0-0.001,0-0.001l3.283-16.845l1.319-6.771    c0.32-1.643-0.704-3.271-2.276-3.616l-1.187-0.262c-1.596-0.352-3.167,0.725-3.492,2.393l-0.086,0.443    c-1.749,0.454-8.43,2.297-10.809,4.545c-2.746,2.596-3.952,3.142-4.412,8.387c-1.074,12.276-0.605,23.726,1.48,34.672    c-0.337,0.071-0.675,0.14-1.004,0.218c-0.417-3.757-0.594-6.083-0.594-6.596c0-0.614-1.195-0.896-2.566-1.022v-0.498h-1.257    c-1.931-1.614-4.41-2.591-7.109-2.591h-11.162v58.385c16.03,0.055,32.444-0.679,38.229-2.202c0.992-0.261,1.932-0.889,1.932-0.889    v-3.709v-0.271l0.018-0.016c2.682,4.222,3.993,4.084,7.517,4.91c3.206,0.75,10.279-1.316,11.659-1.736l0.479,0.616    c1.039,1.335,2.92,1.521,4.181,0.413l0.965-0.85c1.215-1.067,1.39-2.996,0.388-4.283L217.736,296.316z M177.207,268.139    c-0.378-2.666-0.694-5.078-0.952-7.191c0.38-0.174,0.803-0.318,1.249-0.438c0.566,2.574,1.225,5.122,1.975,7.648l-1.801-0.005    C177.517,268.152,177.361,268.147,177.207,268.139z M181.388,284.375c-0.464-0.285-0.881-0.517-1.263-0.714    c-0.746-2.517-1.463-5.884-2.211-10.741c-0.067-0.434-0.128-0.85-0.192-1.273c0.767,0.058,1.55,0.102,2.369,0.111    c0.174,0.003,0.346-0.001,0.519-0.001c2.899,8.669,6.916,17.095,12.083,25.457C190.628,294.356,184.719,286.418,181.388,284.375z" fill="#222223" fill-rule="evenodd" opacity="0.1"/></g></g></svg>