<?xml version="1.0" ?><!DOCTYPE svg  PUBLIC '-//W3C//DTD SVG 1.1//EN'  'http://www.w3.org/Graphics/SVG/1.1/DTD/svg11.dtd'><svg enable-background="new 0 0 512 512" height="512px" version="1.1" viewBox="0 0 512 512" width="512px" xml:space="preserve" xmlns="http://www.w3.org/2000/svg" xmlns:xlink="http://www.w3.org/1999/xlink"><g id="Background_2_"><g id="Background_1_"><g id="Background"><circle cx="256" cy="256" fill="#DB6767" r="256"/></g></g></g><g id="Ogi_x5F_05"><ellipse cx="271.895" cy="453.989" fill="#B74E4E" rx="132.273" ry="5.455"/><g><linearGradient gradientUnits="userSpaceOnUse" id="SVGID_1_" x1="299.5325" x2="100.5317" y1="457.2383" y2="408.2382"><stop offset="0" style="stop-color:#B74E4E"/><stop offset="0.4785" style="stop-color:#B44D4D;stop-opacity:0.5215"/><stop offset="0.8125" style="stop-color:#AB4A4A;stop-opacity:0.1875"/><stop offset="1" style="stop-color:#A24747;stop-opacity:0"/></linearGradient><path d="M371.369,449.115l-78.09-9.636c0.001,0.005,0,0.01,0.002,0.017l-0.09-0.012    c0.008-0.027,0.023-0.054,0.031-0.081l-80.274-8.878c0,0-0.747,0.091-2.073,0.244c-0.531,0.052-1.178,0.119-1.916,0.198    c16.29-2.408,22.688-5.729,18.007-8.778c8.686,1.073,18.027,2.454,28.01,4.237c0.104,0.012,0.18,0.026,0.268,0.039    c0.127,0.019,0.24,0.038,0.338,0.06c0.07,0.015,0.145,0.029,0.202,0.045c0.165,0.044,0.289,0.091,0.397,0.139    c4.104,0.728,8.36,1.521,12.773,2.392c1.064,0.056,1.9,0.055,2.497-0.006c1.397-0.23,0.8-0.604-0.075-0.991    c-4.027-1.783-7.898-3.512-13.889-5.177c-4.618-1.284-7.568-2.574-14.254-3.72l-55.742-7.894    c-7.538-0.689-15.286-0.791-22.285-0.517c-22.479,0.88-41.018,2.049-55.047,4.099c-0.354,0.052-0.707,0.104-1.058,0.155    c0.031-0.004,0.063-0.009,0.093-0.012c-4.27,0.629-8.323,1.274-11.991,1.98c-0.148-0.174-0.841-0.357-3.484-0.092    c0,0,2.248-0.189,1.063,0.305l-1.323-0.001c0.087,0.027,0.1,0.079-0.079,0.181l-2.342,0.227c0,0,2.19-0.029,2.537-0.03    c0.152-0.001,0.343,0.023,0.512,0.051c-1.977,0.433-3.822,0.889-5.463,1.385c-2.739,0.828-5.449,1.671-4.938,2.897    c0.568,1.364,0.519,2.753,1.432,4.235c0.532,0.864,2.024,1.629,5.144,2.264l3.625,0.743l38.977,7.621l8.588,1.679l1.299,0.254    c-0.017-0.017-0.033-0.032-0.053-0.049c-11.205-3.088-18.44-5.248-23.103-6.765c13.896,1.766,33.351,2.594,53.468,1.955    c-3.134,0.143-6.272,0.249-9.342,0.302l-0.183,0.067c0,0-22.637,3.383-21.081,8.343c0,0-0.072,3.204,13.597,4.542    c14.966,1.464,20.216-0.231,18.912-0.644c-1.289-0.407-6.588-1.214-6.588-1.214s-3.75-0.554,0.468-0.935    c4.28-0.388,6.716-1.2,6.716-1.2l2.357,1.783c0,0,0.11,0.013,0.321,0.038l11.814,6.443l0.611,0.347    c0.009,0.001,0.018,0.001,0.026,0.002l5.561,3.032c0,0,9.913,3.719,60.432-1.818l-7.881-2.652l-2.262-0.784    c7.996,0.034,15.699-0.205,22.474-0.851l12.45,2.175c0.034,0,0.067-0.001,0.101-0.001l6.356,1.11    C400.952,453.658,371.369,449.115,371.369,449.115z M291.077,442.536c1.049-0.907,1.767-1.921,2.114-3.051    C293.501,440.615,292.643,441.631,291.077,442.536z" fill="url(#SVGID_1_)"/><linearGradient gradientUnits="userSpaceOnUse" id="SVGID_2_" x1="303.6565" x2="104.6566" y1="440.4893" y2="391.4894"><stop offset="0" style="stop-color:#B74E4E"/><stop offset="0.4785" style="stop-color:#B44D4D;stop-opacity:0.5215"/><stop offset="0.8125" style="stop-color:#AB4A4A;stop-opacity:0.1875"/><stop offset="1" style="stop-color:#A24747;stop-opacity:0"/></linearGradient><path d="M214.85,430.526c-0.077,0.002-0.146,0.003-0.215,0.006    c-0.372,0.01-0.637,0.018-0.791,0.021c-0.019,0.001-0.039,0.001-0.054,0.002c-0.073,0.002-0.12,0.003-0.12,0.003l45.227,4.485    c0,0,0,0,0.001,0l27.357,2.713c0,0,0,0,7.98-0.253c8.209-0.259,9.642,0.627,9.642,0.627s2.237,1.255,4.87,1.72    c2.673,0.471,26.57,1.206,29.537-1.895c2.897-3.028-32.822-5.37-32.822-5.37c-9.575-0.7-19.066-1.199-28.112-1.55    c0.002-0.002,0.004-0.005,0.005-0.008C246.523,429.824,220.56,430.379,214.85,430.526z" fill="url(#SVGID_2_)" opacity="0.05"/><linearGradient gradientUnits="userSpaceOnUse" id="SVGID_3_" x1="296.7278" x2="98.0137" y1="467.3682" y2="418.4387"><stop offset="0" style="stop-color:#B74E4E"/><stop offset="0.4785" style="stop-color:#B44D4D;stop-opacity:0.5215"/><stop offset="0.8125" style="stop-color:#AB4A4A;stop-opacity:0.1875"/><stop offset="1" style="stop-color:#A24747;stop-opacity:0"/></linearGradient><path d="M92.76,417.23l0.7,0.001C93.282,417.174,92.76,417.23,92.76,417.23z" fill="url(#SVGID_3_)" opacity="0.05"/></g><path d="M201.159,385.067l-16.481,59.898c0,0-1.827,19.869,70.075,0.641l4.05-21.707   C258.803,423.899,222.573,416.22,201.159,385.067z" fill="#E7BE9D"/><path d="M277.929,423.642l3.083,15.291c5.717,0.961,11.716,1.475,17.902,1.475c18.863,0,35.994-4.76,48.641-12.514   l-9.478-40.76C309.444,418.761,277.938,423.591,277.929,423.642z" fill="#2376BC"/><path d="M258.973,422.856l-3.083,16.076c-5.718,0.961-11.716,1.475-17.903,1.475   c-18.862,0-35.993-4.762-48.64-12.514l11.801-43.645C226.819,417.011,258.964,422.804,258.973,422.856z" fill="#2376BC"/><path d="M350.819,444.386l-3.623-16.281c-12.611,7.625-29.593,12.303-48.281,12.303   c-6.187,0-12.186-0.514-17.902-1.475l-0.047-0.234l1.104,6.563C353.971,464.489,350.819,444.386,350.819,444.386z" fill="#DDB294"/><g><path d="M307.704,307.154c0,0,22.475-45.796,63.314-57.732c0,0,24.467-8.851,34.62,8.235    c10.152,17.088-1.145,28.717-3.967,28.122s-8.653-5.562-8.653-5.562s-4.138-3.676-6.587,3.281c-2.45,6.956-2.45,6.956-2.45,6.956    L307.704,307.154z" fill="#E7BE9D"/><path d="M350.027,259.173c-27.479,17.738-42.322,47.981-42.322,47.981l51.094-11.186    C359.916,281.334,356.421,267.964,350.027,259.173z" fill="#0C9347"/></g><g><path d="M230.348,306.602c0,0-49.266,13.052-69.375,50.55c0,0-13.71,22.113,0.914,35.574    c14.624,13.46,28.334,4.807,28.334,1.923c0-2.885-3.656-9.615-3.656-9.615s-2.742-4.807,4.57-5.769    c7.313-0.962,7.313-0.962,7.313-0.962L230.348,306.602z" fill="#E7BE9D"/><path d="M174.722,338.922c23.028-23.227,55.683-31.509,55.683-31.509l-21.489,47.686    C194.366,353.173,182.005,346.994,174.722,338.922z" fill="#0C9347"/></g><ellipse cx="268.756" cy="210.409" fill="#E7BE9D" rx="107.573" ry="100.954"/><path d="M321.675,151.423c3.837-0.799,7.614-1.304,11.263-1.547c-4.395-0.78-11.026-0.873-20.91-0.012   c-14.963,1.303-27.215,8.223-27.215,18.367c0,1.849,0.409,3.633,1.162,5.317C289.647,164.226,303.58,155.19,321.675,151.423z" fill="#231F20"/><path d="M226.444,151.423c-3.837-0.799-7.614-1.304-11.263-1.547c4.395-0.78,11.027-0.873,20.911-0.012   c14.963,1.303,27.215,8.223,27.215,18.367c0,1.849-0.41,3.633-1.162,5.317C258.472,164.226,244.538,155.19,226.444,151.423z" fill="#231F20"/><g><path d="M275.044,257.795c-0.02-0.059-0.051-0.13-0.073-0.192c0.005,0.021,0.006,0.045,0.012,0.067    c0.018,0.071,0.053,0.144,0.073,0.185C275.052,257.837,275.051,257.815,275.044,257.795L275.044,257.795z" fill="#231F20"/></g><path d="M343.069,182.521c0,14.398-9.905,26.072-22.119,26.072c-12.217,0-22.117-11.674-22.117-26.072   c0-14.396,9.9-26.071,22.117-26.071C333.163,156.45,343.069,168.126,343.069,182.521z" fill="#231F20"/><path d="M233.943,182.521c0,8.642-5.937,15.644-13.271,15.644c-7.328,0-13.272-7.002-13.272-15.644   c0-8.638,5.944-15.645,13.272-15.645C228.006,166.876,233.943,173.884,233.943,182.521z" fill="#231F20"/><path d="M301.129,265.302c0,7.799-6.233,14.122-13.916,14.122c-7.679,0-13.908-6.323-13.908-14.122   c0-7.8,6.229-14.125,13.908-14.125C294.896,251.177,301.129,257.502,301.129,265.302z" fill="#633E24"/><g><path d="M290.365,228.586c0,9.529-7.67,10.938-17.133,10.938c-9.462,0-17.133-1.409-17.133-10.938    c0-9.53,7.671-17.255,17.133-17.255C282.696,211.332,290.365,219.057,290.365,228.586z" fill="#A97E52"/><ellipse cx="280.215" cy="231.138" fill="#3C2619" rx="4.505" ry="5.643"/><ellipse cx="273.459" cy="227.57" fill="#E7E7E7" opacity="0.15" rx="0.809" ry="5.851"/><path d="M273.233,211.332c-0.337,0-0.667,0.031-1,0.051c8.994,0.524,16.133,8.014,16.133,17.204    c0,9.189-7.139,10.823-16.133,10.928c0.333,0.004,0.663,0.011,1,0.011c9.463,0,17.133-1.409,17.133-10.938    C290.365,219.057,282.696,211.332,273.233,211.332z" fill="#E7E7E7" opacity="0.15"/><path d="M281.898,227.387c0.748,0,1.452,0.231,2.072,0.635c-0.807-1.522-2.187-2.527-3.755-2.527    c-2.488,0-4.505,2.526-4.505,5.643c0,2.18,0.988,4.067,2.433,5.007c-0.473-0.893-0.75-1.963-0.75-3.115    C277.393,229.914,279.409,227.387,281.898,227.387z" fill="#8B603E"/><ellipse cx="266.751" cy="231.138" fill="#3C2619" rx="4.505" ry="5.643"/><path d="M265.069,227.387c-0.748,0-1.451,0.231-2.072,0.635c0.807-1.522,2.188-2.527,3.756-2.527    c2.487,0,4.504,2.526,4.504,5.643c0,2.18-0.988,4.067-2.433,5.007c0.474-0.893,0.751-1.963,0.751-3.115    C269.574,229.914,267.557,227.387,265.069,227.387z" fill="#8B603E"/></g><path d="M267.516,110.377c-0.235,0-0.469,0.007-0.703,0.008v201.891   c0.234,0.002,0.468,0.01,0.703,0.01c59.411,0,107.573-45.199,107.573-100.955S326.927,110.377,267.516,110.377z" fill="#1E1E1E" opacity="0.1"/><g><path d="M389.371,122.091c-12.769-65.316-86.761-81.728-126.505-78.362c-13.636,1.155-27.15,2.894-40.442,6.562    c0.926-2.812,0.768-6.724-6.49-7.825c0,0,5.998,1.468,0,6.503l-3.482-6.503c-0.044,0.563,0.354,5.39-0.702,6.503l-6.539-1.076    c0,0,4.813,3.683,5.546,4.305c0.31,0.263,0.535,0.929,0.691,1.609c-7.156,2.633-14.239,5.942-21.23,10.157    c-11.623,7.008-66.847,37.682-49.847,123.119l37.206,141.492c0.048-0.132,0.096-0.263,0.141-0.401    c-16.088-123.389-6.347-129.332-6.347-129.332s25.835,58.629,28.29,57.313c0,0,0.71-107.684,0.859-107.912    c0.049-0.082,0.098-0.156,0.148-0.227c0.016-0.02,0.03-0.041,0.047-0.061c0.159-0.211,0.324-0.38,0.498-0.472    c3.146-2.383,55.79,67.682,59.296,72.207c1.561,1.556,3.103-70.968,3.103-70.968c2.16,2.917,22.081,52.401,25.663,52.733    c-5.818-6.272,5.966-52.733,5.966-52.733s36.345,10.313,52.63,38.619c29.868,51.916,8.552,137.296,9.326,137.185    c2.25-0.806,25.015-44.304,29.174-66.859C399.668,185.56,389.371,122.091,389.371,122.091z" fill="#161616"/></g><path d="M230.34,305.635l-30.391,79.8c0,0,62.153,87.493,138.93,2.884l-31.053-82.074   C307.826,306.244,261.417,315.25,230.34,305.635z" fill="#086A38"/><path d="M215.283,365.636c0,28.704,23.684,51.974,52.899,51.974c29.216,0,52.899-23.27,52.899-51.974H215.283z" fill="#3FB54A"/><g><path d="M305.876,306.26L277.7,324.636c0,0,0.527-8.036-6.229-12.584    C264.715,307.503,272.858,313.457,305.876,306.26z" fill="#10A64F"/><path d="M231.391,306.26l28.175,18.376c0,0-0.527-8.036,6.229-12.584    C272.552,307.503,264.409,313.457,231.391,306.26z" fill="#10A64F"/></g><path d="M271.128,310v115.181c20.038-0.306,43.144-9.744,67.751-36.862l-31.053-82.074   C307.826,306.244,291.167,309.476,271.128,310z" fill="#1E1E1E" opacity="0.1"/></g></svg>