<?xml version="1.0" ?><!DOCTYPE svg  PUBLIC '-//W3C//DTD SVG 1.1//EN'  'http://www.w3.org/Graphics/SVG/1.1/DTD/svg11.dtd'><svg enable-background="new 0 0 512 512" height="512px" version="1.1" viewBox="0 0 512 512" width="512px" xml:space="preserve" xmlns="http://www.w3.org/2000/svg" xmlns:xlink="http://www.w3.org/1999/xlink"><g id="Background_2_"><g id="Background_1_"><g id="Background"><circle cx="256" cy="256" fill="#2EE8AA" r="256"/></g></g></g><g id="Ogi_x5F_10"><ellipse cx="242.944" cy="428.134" fill="#18B77E" rx="170.284" ry="14.428"/><g><path d="M158.188,413.885c-1.038-0.378-4.904-1.193-4.904-1.193s-2.687-0.555-0.028-0.754    c2.693-0.201,2.693-0.201,2.693-0.201l-3.392-2.734c0.02,0,0.04,0.001,0.06,0.001l-5.749-4.706c0,0-0.047,0.007-0.127,0.019    l-0.103-0.082c0,0-7.447,1.094-10.206,3.247c-0.055,0.041-0.104,0.084-0.154,0.126c-0.035,0.029-0.073,0.059-0.106,0.088    c-0.083,0.075-0.162,0.152-0.232,0.229c0.002,0,0.004,0.001,0.005,0.001c-0.529,0.582-0.706,1.233-0.325,1.952    c0,0,0.661,2.546,10.05,4.025C156.344,415.583,159.246,414.272,158.188,413.885z" fill="#18B77E"/><path d="M311.448,422.659l-75.484-11.415c0.007,0.004,0.011,0.008,0.019,0.013l-0.076-0.012    c-0.022-0.022-0.04-0.044-0.063-0.066l-60.315-8.5c0,0-0.357,0.04-1.009,0.109l0.217-0.101c7.692-1.299,9.325-3.232,5.14-5.111    c5.758,0.813,12.195,1.847,19.411,3.172c0.07,0.009,0.124,0.02,0.186,0.03c0.122,0.019,0.229,0.039,0.323,0.06    c0.027,0.008,0.06,0.013,0.086,0.02c0.135,0.033,0.245,0.066,0.346,0.1c3.081,0.563,6.352,1.183,9.834,1.868    c0.73,0.062,1.271,0.077,1.609,0.046c0.182-0.032,0.276-0.073,0.301-0.121c0.077-0.144-0.465-0.349-1.11-0.562    c-2.428-0.799-4.76-1.566-7.336-2.316c-1.545-0.449-3.178-0.892-4.973-1.328c-3.598-0.876-6.13-1.71-10.719-2.5l-9.141-1.37    c0.042-0.014,0.076-0.025,0.126-0.04c1.469-0.403,2.161-0.825,1.999-1.247c-0.117-0.302-0.978-0.562-2.641-0.786    c-11.847-1.604-21.568-2.939-29.838-4.052c-2.89-0.389-6.678-0.506-11.168-0.401c0.096-0.05,0.113-0.099,0.025-0.141    c-0.369-0.175-2.412-0.169-4.49,0.014c-9.993,0.881-18.94,1.809-26.901,2.766c-4.89,0.589-9.487,1.198-13.787,1.828    c-1.301,0.189-1.82,0.438-1.173,0.548c0.224,0.039,0.556,0.056,0.941,0.056c-0.605,0.216-1.023,0.438-1.19,0.667    c-0.174,0.239-0.078,0.462,0.33,0.666c2.625,1.321,5.646,2.839,9.123,4.606c0.536,0.272,1.498,0.474,2.88,0.623    c1.442,0.154,3.048,0.259,4.765,0.331l27.303,6.871c-0.014-0.013-0.027-0.023-0.042-0.037c-7.174-2.383-11.738-4.01-14.643-5.123    c7.53,1.304,17.897,2.213,28.74,2.342c-0.586,0.004-1.19,0.007-1.829,0.01l0.389,0.025c-0.294-0.003-0.588-0.005-0.88-0.01    l12.806,8.469c0,0,0.085,0.015,0.23,0.04l11.3,6.001l0.618,0.336c0.007,0.001,0.013,0.001,0.02,0.002l5.847,3.105    c0,0,10.084,4.19,44.859,0.313l-8.705-2.89l-0.457-0.154c6.713,0.388,12.784,0.429,17.262-0.113l9.142,1.91    c0.026,0.002,0.053,0.002,0.081,0.003l6.434,1.345C347.766,428.874,311.448,422.659,311.448,422.659z M161.005,391.341    c-1.419-0.001-2.824,0.016-4.226,0.049l-3.197-0.479c-4.154-0.445-8.217-0.591-11.785-0.538    c-11.405,0.172-20.716,0.537-27.715,1.41c-0.178,0.022-0.355,0.044-0.532,0.066c0.012-0.002,0.023-0.002,0.035-0.003    c-2.146,0.271-4.195,0.554-6.059,0.876c-0.075-0.093-0.427-0.199-1.772-0.095c0,0,1.144-0.07,0.537,0.174l-0.673-0.017    c0.043,0.016,0.049,0.042-0.043,0.094l-1.197,0.089c0,0,1.117,0.013,1.293,0.017c0.078,0.002,0.175,0.018,0.261,0.034    c-1.018,0.203-1.972,0.422-2.826,0.664c-1.436,0.409-2.87,0.831-2.665,1.516c0.141,0.47,0.163,0.946,0.25,1.445    c-0.019,0.004-0.034,0.008-0.055,0.013c-0.797,0.174-1.281,0.377-1.8,0.607c-0.112-0.054-0.173-0.082-0.234-0.112    c-1.158-0.552-2.254-1.075-3.307-1.572c-0.744-0.353-1.483-0.69-2.175-1.02c-0.976-0.463-0.423-1.021,1.335-1.543    c4.237-0.61,8.769-1.198,13.592-1.765c7.752-0.912,16.451-1.786,26.147-2.61c0.279-0.023,0.542-0.049,0.794-0.078    c4.036-0.116,7.529-0.044,10.436,0.239c0.132,0.013,0.245,0.028,0.355,0.044c5.085,0.728,10.761,1.54,17.14,2.452    c0.083,0.013,0.167,0.024,0.191,0.027C162.436,391.331,161.708,391.342,161.005,391.341z M235.908,411.248    c1.216,0.817,1.742,1.547,1.779,2.197C237.3,412.777,236.714,412.047,235.908,411.248z" fill="#18B77E"/><path d="M176.282,402.716c-0.185,0-0.291,0-0.291,0l32.013,4.177l21.203,2.766c0,0,0,0,5.4,0    c5.578,0,7.564,0.755,7.564,0.755s3.017,1.097,5.479,1.558c2.525,0.473,21.475,1.784,19.563-0.792    c-1.78-2.399-29.741-5.062-29.741-5.062c-7.152-0.728-14.008-1.298-20.385-1.748c-0.003-0.004-0.004-0.008-0.007-0.012    c-21.721-1.546-38.245-1.637-40.749-1.642C176.314,402.716,176.299,402.716,176.282,402.716z" fill="#18B77E"/><path d="M105.26,392.775l0.357,0.01C105.528,392.752,105.26,392.775,105.26,392.775z" fill="#18B77E"/></g><path d="M218.396,312.092c0,0-39.285,10.408-55.319,40.309c0,0-10.933,17.633,0.729,28.366   c11.661,10.732,22.594,3.833,22.594,1.533s-2.916-7.667-2.916-7.667s-2.187-3.833,3.644-4.6c5.831-0.768,5.831-0.768,5.831-0.768   L218.396,312.092z" fill="#E7BE9D"/><path d="M281.117,312.739c0,0,39.428,9.999,55.463,39.899c0,0,10.932,17.633-0.729,28.366   c-11.661,10.733-22.595,3.833-22.595,1.533s2.915-7.666,2.915-7.666s2.188-3.834-3.643-4.601c-5.832-0.767-5.832-0.767-5.832-0.767   L281.117,312.739z" fill="#E7BE9D"/><path d="M325.518,337.864c-18.361-18.521-44.4-25.125-44.4-25.125l17.135,38.023   C309.855,349.229,319.711,344.301,325.518,337.864z" fill="#FFFFFF"/><path d="M174.04,337.066c18.362-18.521,44.401-25.125,44.401-25.125l-17.135,38.024   C189.704,348.43,179.847,343.504,174.04,337.066z" fill="#FFFFFF"/><path d="M195.693,376.224l-13.142,47.763c0,0-1.457,15.845,55.877,0.511l3.229-17.308   C241.657,407.189,212.767,401.065,195.693,376.224z" fill="#E7BE9D"/><path d="M258.503,406.983l2.458,12.192c4.559,0.768,9.342,1.177,14.275,1.177c15.041,0,28.701-3.797,38.785-9.979   l-7.557-32.502C283.632,403.091,258.51,406.942,258.503,406.983z" fill="#2376BC"/><path d="M241.793,406.356l-2.458,12.819c-4.559,0.768-9.342,1.177-14.275,1.177   c-15.041,0-28.701-3.798-38.785-9.979l9.41-34.801C216.154,401.695,241.786,406.314,241.793,406.356z" fill="#2376BC"/><path d="M316.624,423.524l-2.889-12.983c-10.057,6.081-23.597,9.812-38.499,9.812   c-4.934,0-9.717-0.409-14.275-1.177l-0.037-0.187l0.88,5.232C319.139,439.555,316.624,423.524,316.624,423.524z" fill="#DDB294"/><path d="M219.917,311.939l-24.233,63.633c0,0,49.56,69.766,110.782,2.299l-24.762-65.445   C281.703,312.426,244.697,319.607,219.917,311.939z" fill="#2BACE2"/><path d="M207.911,359.784c0,22.889,18.885,41.443,42.181,41.443c23.297,0,42.182-18.555,42.182-41.443H207.911z" fill="#1F7EA0"/><g><path d="M280.149,312.439l-22.467,14.651c0,0,0.42-6.407-4.967-10.034    C247.327,313.43,253.82,318.178,280.149,312.439z" fill="#1F7EA0"/><path d="M220.754,312.439l22.467,14.651c0,0-0.421-6.407,4.967-10.034S247.083,318.178,220.754,312.439z" fill="#1F7EA0"/></g><path d="M252.441,315.421v91.845c15.979-0.244,34.402-7.771,54.024-29.395l-24.762-65.445   C281.703,312.426,268.42,315.003,252.441,315.421z" fill="#1E1E1E" opacity="0.1"/><path d="M140.408,185.556c0-1.098,0-1.703,0-2.307c0-11.767,0.021-23.534-0.007-35.301   c-0.021-8.682-0.144-17.365-0.155-26.046c-0.025-18.932,16.239-35.339,40.203-40.629c6.872-1.517,13.861-2.682,20.787-4.032   c15.366-2.996,31.029-3.899,46.797-4.217c17.854-0.358,35.621,0.551,53.029,3.526c11.783,2.014,23.75,3.915,34.528,8.42   c16.551,6.917,25.997,17.517,28.446,31.712c0.085,0.498,0.093,1.006,0.093,1.509c0.005,22.078,0.003,44.155,0.003,66.232   c0,0.272,0,0.544,0,0.623c-1.203-0.791-2.568-1.587-3.781-2.5c-3.053-2.302-6.353-4.359-10.128-5.936   c-1.052-0.439-1.425-0.938-1.399-1.843c0.041-1.451,0.038-2.928-0.277-4.352c-0.814-3.664-3.658-6.216-7.851-8.084   c-4.362-1.944-9.046-1.761-13.642-1.188c-6.434,0.804-11.76,5.791-11.768,10.764c-0.043,25.719-0.05,51.439,0.002,77.159   c0.012,5.6,6.224,10.384,13.605,10.638c2.43,0.083,4.908,0.151,7.301-0.111c7.644-0.836,12.756-5.318,12.546-11.521   c-0.108-3.191,1.074-5.115,4.667-6.896c6.202-3.072,11.486-7.019,15.598-11.774c2.989-3.457,4.49-7.186,4.481-11.379   c-0.073-33.452,0.085-66.905-0.09-100.356c-0.093-17.937-11.275-30.87-31.895-39.469c-11.573-4.826-24.265-6.664-36.898-8.678   c-19.072-3.04-38.411-4.297-57.884-3.995c-25.747,0.399-51.18,2.722-75.364,9.741c-16.076,4.667-29.028,12.461-35.934,24.966   c-2.881,5.218-4.4,10.649-4.396,16.333c0.023,33.789,0.059,67.577-0.042,101.365c-0.014,4.765,1.896,8.878,5.508,12.64   c4.804,5.001,10.918,8.945,17.659,12.346c1.223,0.616,1.577,1.248,1.568,2.299c-0.016,2.006-0.279,4.023,0.358,6.023   c1.559,4.889,7.313,8.428,13.951,8.48c2.066,0.017,4.156,0.104,6.2-0.074c7.867-0.681,13.074-5.396,13.076-11.76   c0.009-22.357,0.021-44.715-0.015-67.073c-0.005-3.412,0.388-6.841-0.27-10.237c-0.729-3.762-3.623-6.317-7.881-8.237   c-4.386-1.976-9.067-1.75-13.658-1.187c-6.482,0.795-11.958,5.894-11.694,10.951c0.144,2.765-0.801,4.41-4.099,5.774   C147.417,179.643,144.069,182.4,140.408,185.556z" fill="#010101"/><path d="M316.759,210.342c0,11.76,0.392,23.53-0.14,35.276c-0.35,7.749,4.246,13.767,17.234,12.904   c1.619-0.106,3.23-0.113,4.781-0.549c5.154-1.449,8.525-5.025,8.633-9.278c0.064-2.546,0.012-5.094,0.012-7.641   c0-22.513,0-45.024,0-67.537c0-7.185-5.302-11.161-14.852-11.191c-3.131-0.01-6.229,0.082-8.998,1.337   c-4.41,1.999-6.666,4.969-6.668,8.878C316.753,185.143,316.759,197.742,316.759,210.342z" fill="#6E6F72"/><path d="M157.205,207.144c0,11.375-0.064,22.75,0.044,34.123c0.027,2.946-0.406,5.903,0.148,8.842   c0.912,4.84,6.227,8.351,12.669,8.391c1.479,0.011,2.956,0.006,4.435,0.002c7.459-0.02,13.056-4.142,13.178-9.792   c0.082-3.809,0.016-7.62,0.016-11.43c0-21.348,0.002-42.695,0-64.043c-0.001-6.777-5.4-10.846-14.321-10.915   c-4.306-0.033-8.428,0.252-11.793,2.59c-3.005,2.088-4.39,4.69-4.384,7.774C157.219,184.171,157.205,195.657,157.205,207.144z" fill="#6E6F72"/><path d="M155.564,177.375c-7.333,3.12-12.771,7.51-17.532,12.492c-3.778,3.954-6.069,8.069-5.533,13.177   c0.544,5.176,1.099,21.699,3.2,24.401c4.833,6.217,11.988,10.636,19.865,14.842C155.564,220.549,155.564,199.074,155.564,177.375z" fill="#2BACE2"/><path d="M348.707,177.503c0,21.556,0,43.001,0,64.434c0.286,0.202,0.548,0.115,0.791-0.012   c6.929-3.594,13.25-7.68,18.039-12.978c2.996-3.315,4.519-6.945,4.426-11.027c-0.147-6.438-0.059-12.879-0.021-19.318   c0.005-1.041-0.28-1.967-0.919-2.884c-4.866-6.981-11.11-13.046-19.977-17.378C350.379,178.015,349.757,177.607,348.707,177.503z" fill="#2BACE2"/><path d="M347.64,72.536c-38.867-5.743-78.607-7.968-118.158-6.72c-25.422,0.803-50.767,3.028-75.75,6.72   c-7.668,1.13-12.391,6.011-10.546,10.651c0.774,1.95,2.543,3.545,4.825,4.695c2.564,1.292,5.786,1.997,9.136,1.884   c0.771-0.026,1.546-0.075,2.321-0.189c23.821-3.519,47.992-5.62,72.233-6.348c36.892-1.108,73.951,0.992,110.202,6.348   c1.787,0.263,3.586,0.284,5.307,0.096c2.997-0.329,5.714-1.322,7.771-2.759c1.475-1.031,2.629-2.274,3.206-3.727   C360.031,78.547,355.309,73.666,347.64,72.536z" fill="#2BACE2"/><g><path d="M254.036,273.174c-0.016-0.046-0.041-0.104-0.059-0.152c0.002,0.016,0.005,0.034,0.01,0.054    c0.013,0.056,0.042,0.112,0.058,0.146C254.043,273.208,254.041,273.188,254.036,273.174L254.036,273.174z" fill="#231F20"/></g><g><linearGradient gradientTransform="matrix(0.2953 -0.1467 0.1724 0.3471 343.0105 99.4248)" gradientUnits="userSpaceOnUse" id="SVGID_1_" x1="74.9641" x2="74.9641" y1="144.1191" y2="144.1191"><stop offset="0" style="stop-color:#FFFFFF"/><stop offset="0.5765" style="stop-color:#F2F2F2"/><stop offset="0.9847" style="stop-color:#F2F2F2"/></linearGradient><path d="M389.993,138.452" fill="url(#SVGID_1_)"/><path d="M400.124,144.841c0.47-0.553,0.751-1.039,0.848-1.552c-0.829,0.125-1.756,0.418-2.681,0.877    c-1.365,0.678-2.441,1.578-3.038,2.449C396.84,146.962,398.939,146.233,400.124,144.841z" fill="#2BACE2"/><path d="M387.696,143.331c-0.596,0.296-1.069,0.7-1.361,1.119c0.244,0.101,0.518,0.172,0.819,0.21    c1.335,0.165,2.504-0.145,3.507-0.821c-0.01-0.115-0.036-0.225-0.087-0.327C390.219,142.799,388.932,142.718,387.696,143.331z" fill="#2BACE2"/><path d="M390.328,129.716c-1.352,0.186-2.646,0.063-3.585-0.28c0.017,0.049,0.04,0.1,0.074,0.156    c0.418,0.797,0.771,1.629,1.229,2.407l3.622,6.903c0,0-1.418-0.461-1.676-0.45c-1.871-0.268-4.043,1.253-4.729,2.763    c-0.647,1.422-0.189,2.717,1.07,3.235c0.292-0.419,0.766-0.823,1.361-1.119c1.236-0.613,2.523-0.532,2.878,0.182    c0.051,0.102,0.077,0.212,0.087,0.327c0.484-0.327,0.932-0.74,1.338-1.229c0.607-0.729,1.023-1.592,0.521-2.619l-4.064-8.132    c0.003-0.006,0.006-0.013,0.009-0.02c0-0.441,0.304-0.228,0.497-0.221c1.959,0.067,3.867-0.133,5.652-0.982    c0.344,0.222,0.418,0.618,0.588,0.947c1.484,2.873,2.803,5.83,4.384,8.654l0.092,0.252l-0.146,0.089    c-2.923-0.849-5.458,1.16-6.092,2.937c-0.475,1.335-0.044,2.361,1.24,2.918c0.18,0.079,0.373,0.136,0.573,0.18    c0.597-0.871,1.673-1.771,3.038-2.449c0.925-0.459,1.852-0.752,2.681-0.877c0.148-0.786-0.138-1.639-0.868-2.904    c-1.062-2.165-2.119-4.331-3.185-6.493c-0.854-1.731-1.71-3.46-2.584-5.18c-0.111-0.218-0.178-0.64-0.45-0.619    C393.328,128.845,392.001,129.486,390.328,129.716z" fill="#29AAE1"/><path d="M393.594,128.232c-1.6,1.275-3.421,1.32-5.331,0.947c-0.311-0.027-0.532-0.235-0.771-0.408    c-0.127-0.052-0.257-0.071-0.39-0.027c-0.199,0.202-0.46,0.38-0.359,0.692c0.939,0.344,2.233,0.466,3.585,0.28    c1.673-0.23,3-0.871,3.557-1.624C393.806,128.099,393.713,128.139,393.594,128.232z" fill="#29AAE1"/><path d="M393.594,128.232c-1.6,1.275-3.421,1.32-5.331,0.947c-0.311-0.027-0.532-0.235-0.771-0.408    c-0.127-0.052-0.257-0.071-0.39-0.027c-0.199,0.202-0.46,0.38-0.359,0.692c0.939,0.344,2.233,0.466,3.585,0.28    c1.673-0.23,3-0.871,3.557-1.624C393.806,128.099,393.713,128.139,393.594,128.232z" fill="#D2D3D4" opacity="0.4"/></g><g><linearGradient gradientTransform="matrix(0.2376 -0.118 0.0986 0.1985 372.8616 100.1738)" gradientUnits="userSpaceOnUse" id="SVGID_2_" x1="82.8" x2="82.8" y1="144.9297" y2="144.9297"><stop offset="0" style="stop-color:#FFFFFF"/><stop offset="0.5765" style="stop-color:#F2F2F2"/><stop offset="0.9847" style="stop-color:#F2F2F2"/></linearGradient><path d="M406.824,119.172" fill="url(#SVGID_2_)"/><path d="M413.917,122.182c0.409-0.386,0.667-0.712,0.787-1.038c-0.641,0.154-1.37,0.421-2.115,0.791    c-1.098,0.545-1.997,1.201-2.531,1.795C411.231,123.797,412.89,123.152,413.917,122.182z" fill="#2BACE2"/><path d="M404.631,122.4c-0.48,0.238-0.877,0.531-1.137,0.817c0.176,0.039,0.376,0.058,0.602,0.054    c0.997-0.022,1.913-0.322,2.734-0.832c0.005-0.07-0.005-0.136-0.034-0.194C406.593,121.837,405.623,121.907,404.631,122.4z" fill="#2BACE2"/><path d="M407.889,113.742c-1.043,0.24-2.014,0.284-2.693,0.159c0.008,0.029,0.021,0.058,0.042,0.089    c0.243,0.454,0.433,0.936,0.709,1.374l2.107,3.93c0,0-1.032-0.153-1.229-0.122c-1.395,0.007-3.182,1.149-3.844,2.146    c-0.622,0.938-0.395,1.697,0.514,1.9c0.26-0.286,0.656-0.579,1.137-0.817c0.992-0.494,1.962-0.563,2.165-0.155    c0.029,0.058,0.039,0.124,0.034,0.194c0.399-0.248,0.777-0.544,1.131-0.883c0.527-0.507,0.923-1.079,0.638-1.667l-2.33-4.649    c0.003-0.004,0.006-0.009,0.009-0.013c0.041-0.272,0.251-0.169,0.398-0.182c1.479-0.14,2.945-0.44,4.377-1.131    c0.241,0.105,0.26,0.343,0.359,0.531c0.859,1.638,1.586,3.344,2.521,4.942l0.047,0.147l-0.117,0.068    c-2.139-0.254-4.248,1.222-4.894,2.38c-0.484,0.868-0.252,1.463,0.67,1.688c0.13,0.032,0.27,0.05,0.418,0.058    c0.534-0.594,1.434-1.25,2.531-1.795c0.745-0.37,1.475-0.637,2.115-0.791c0.185-0.5,0.047-1-0.39-1.715    c-0.604-1.239-1.205-2.479-1.813-3.717c-0.487-0.991-0.978-1.98-1.479-2.962c-0.064-0.125-0.076-0.379-0.285-0.341    C410.244,112.926,409.179,113.445,407.889,113.742z" fill="#29AAE1"/><path d="M410.504,112.522c-1.334,0.936-2.718,1.133-4.133,1.079c-0.232,0.012-0.382-0.096-0.545-0.181    c-0.092-0.02-0.189-0.02-0.293,0.02c-0.172,0.143-0.385,0.278-0.338,0.461c0.68,0.125,1.65,0.081,2.693-0.159    c1.29-0.297,2.355-0.816,2.848-1.333C410.677,112.42,410.602,112.453,410.504,112.522z" fill="#29AAE1"/><path d="M410.504,112.522c-1.334,0.936-2.718,1.133-4.133,1.079    c-0.232,0.012-0.382-0.096-0.545-0.181c-0.092-0.02-0.189-0.02-0.293,0.02c-0.172,0.143-0.385,0.278-0.338,0.461    c0.68,0.125,1.65,0.081,2.693-0.159c1.29-0.297,2.355-0.816,2.848-1.333C410.677,112.42,410.602,112.453,410.504,112.522z" fill="#D2D3D4" opacity="0.4"/></g><g><linearGradient gradientTransform="matrix(0.3386 0.4918 -0.3094 0.213 288.303 -234.905)" gradientUnits="userSpaceOnUse" id="SVGID_3_" x1="556.9641" x2="556.9641" y1="183.7188" y2="183.7188"><stop offset="0" style="stop-color:#FFFFFF"/><stop offset="0.5765" style="stop-color:#F2F2F2"/><stop offset="0.9847" style="stop-color:#F2F2F2"/></linearGradient><path d="M420.049,78.141" fill="url(#SVGID_3_)"/><path d="M418.28,93.056c0.914,0.838,1.642,1.365,2.299,1.605c-0.615-1.332-1.48-2.846-2.542-4.387    c-1.565-2.272-3.227-4.128-4.585-5.221C413.942,87.503,415.979,90.944,418.28,93.056z" fill="#2BACE2"/><path d="M413.035,73.675c-0.685-0.992-1.425-1.809-2.08-2.342c0.02,0.368,0.09,0.789,0.217,1.259    c0.561,2.08,1.583,3.98,2.94,5.68c0.128,0.006,0.243-0.017,0.334-0.08C415.082,77.754,414.451,75.732,413.035,73.675z" fill="#2BACE2"/><path d="M430.474,80.167c-0.981-2.169-1.567-4.191-1.694-5.617c-0.049,0.017-0.096,0.045-0.141,0.091    c-0.699,0.523-1.477,0.938-2.127,1.529l-6.045,4.542c0,0-0.26-2.161-0.418-2.572c-0.742-2.91-3.75-6.603-5.907-7.947    c-2.032-1.266-3.29-0.763-3.187,1.139c0.655,0.533,1.396,1.35,2.08,2.342c1.416,2.057,2.047,4.079,1.411,4.517    c-0.091,0.063-0.206,0.086-0.334,0.08c0.657,0.824,1.394,1.601,2.195,2.327c1.197,1.083,2.442,1.888,3.362,1.272l7.234-5.032    c0.008,0.006,0.018,0.013,0.027,0.02c0.518,0.074,0.438,0.516,0.54,0.823c1.027,3.084,2.338,6.132,4.339,9.098    c-0.064,0.506-0.487,0.555-0.776,0.767c-2.528,1.854-5.249,3.43-7.667,5.445l-0.245,0.101l-0.185-0.243    c-0.656-4.475-4.439-8.825-6.879-10.129c-1.834-0.98-2.792-0.474-2.721,1.458c0.011,0.272,0.053,0.566,0.113,0.875    c1.358,1.093,3.02,2.948,4.585,5.221c1.062,1.541,1.927,3.055,2.542,4.387c1.004,0.369,1.842,0.061,2.912-0.875    c1.938-1.307,3.879-2.606,5.811-3.921c1.546-1.052,3.089-2.109,4.611-3.195c0.192-0.138,0.648-0.171,0.471-0.605    C433.187,85.056,431.687,82.85,430.474,80.167z" fill="#29AAE1"/></g><g><linearGradient gradientTransform="matrix(0.2953 -0.1467 0.1724 0.3471 343.0105 99.4248)" gradientUnits="userSpaceOnUse" id="SVGID_4_" x1="-952.7449" x2="-952.7449" y1="54.3574" y2="54.3574"><stop offset="0" style="stop-color:#FFFFFF"/><stop offset="0.5765" style="stop-color:#F2F2F2"/><stop offset="0.9847" style="stop-color:#F2F2F2"/></linearGradient><path d="M71.036,258.061" fill="url(#SVGID_4_)"/><path d="M81.167,264.45c0.471-0.553,0.751-1.038,0.849-1.553c-0.83,0.126-1.757,0.418-2.682,0.878    c-1.365,0.679-2.441,1.576-3.039,2.448C77.883,266.572,79.982,265.842,81.167,264.45z" fill="#2BACE2"/><path d="M68.739,262.939c-0.596,0.297-1.069,0.701-1.361,1.12c0.245,0.1,0.518,0.172,0.82,0.209    c1.334,0.165,2.503-0.145,3.505-0.82c-0.008-0.115-0.035-0.226-0.085-0.327C71.262,262.408,69.974,262.326,68.739,262.939z" fill="#2BACE2"/><path d="M71.372,249.325c-1.353,0.187-2.646,0.063-3.584-0.281c0.015,0.049,0.04,0.1,0.074,0.156    c0.417,0.797,0.77,1.629,1.229,2.406l3.622,6.904c0,0-1.417-0.461-1.676-0.45c-1.871-0.269-4.043,1.253-4.73,2.764    c-0.647,1.421-0.188,2.716,1.071,3.235c0.292-0.419,0.765-0.823,1.361-1.12c1.235-0.613,2.523-0.531,2.878,0.182    c0.051,0.102,0.078,0.212,0.085,0.327c0.486-0.328,0.934-0.741,1.34-1.229c0.606-0.729,1.022-1.593,0.521-2.619l-4.065-8.131    c0.003-0.007,0.006-0.013,0.01-0.02c-0.001-0.442,0.302-0.228,0.497-0.221c1.959,0.067,3.866-0.132,5.651-0.981    c0.345,0.221,0.418,0.618,0.588,0.947c1.485,2.872,2.803,5.83,4.384,8.654l0.091,0.252l-0.143,0.088    c-2.925-0.848-5.459,1.161-6.093,2.938c-0.476,1.334-0.043,2.36,1.24,2.917c0.18,0.079,0.373,0.137,0.573,0.18    c0.597-0.872,1.674-1.77,3.039-2.448c0.925-0.46,1.852-0.752,2.682-0.878c0.147-0.787-0.14-1.639-0.869-2.904    c-1.062-2.165-2.119-4.33-3.185-6.493c-0.853-1.73-1.709-3.459-2.583-5.179c-0.111-0.219-0.177-0.64-0.45-0.619    C74.371,248.454,73.044,249.096,71.372,249.325z" fill="#29AAE1"/><path d="M74.638,247.841c-1.602,1.275-3.422,1.32-5.332,0.947c-0.311-0.027-0.532-0.235-0.769-0.407    c-0.128-0.053-0.258-0.072-0.391-0.028c-0.2,0.201-0.46,0.38-0.359,0.691c0.939,0.344,2.232,0.467,3.584,0.281    c1.672-0.229,3-0.871,3.556-1.623C74.85,247.707,74.756,247.747,74.638,247.841z" fill="#29AAE1"/><path d="M74.638,247.841c-1.602,1.275-3.422,1.32-5.332,0.947c-0.311-0.027-0.532-0.235-0.769-0.407    c-0.128-0.053-0.258-0.072-0.391-0.028c-0.2,0.201-0.46,0.38-0.359,0.691c0.939,0.344,2.232,0.467,3.584,0.281    c1.672-0.229,3-0.871,3.556-1.623C74.85,247.707,74.756,247.747,74.638,247.841z" fill="#D2D3D4" opacity="0.4"/></g><g><linearGradient gradientTransform="matrix(0.2376 -0.118 0.0986 0.1985 372.8616 100.1738)" gradientUnits="userSpaceOnUse" id="SVGID_5_" x1="-1194.5515" x2="-1194.5515" y1="-11.8398" y2="-11.8398"><stop offset="0" style="stop-color:#FFFFFF"/><stop offset="0.5765" style="stop-color:#F2F2F2"/><stop offset="0.9847" style="stop-color:#F2F2F2"/></linearGradient><path d="M87.868,238.781" fill="url(#SVGID_5_)"/><path d="M94.961,241.791c0.408-0.385,0.667-0.711,0.788-1.039c-0.641,0.154-1.371,0.421-2.115,0.792    c-1.099,0.545-1.999,1.201-2.532,1.795C92.273,243.406,93.932,242.761,94.961,241.791z" fill="#2BACE2"/><path d="M85.674,242.009c-0.48,0.238-0.876,0.532-1.136,0.818c0.175,0.04,0.376,0.059,0.602,0.053    c0.997-0.021,1.912-0.321,2.735-0.832c0.004-0.07-0.005-0.135-0.035-0.193C87.637,241.446,86.667,241.515,85.674,242.009z" fill="#2BACE2"/><path d="M88.933,233.351c-1.044,0.24-2.013,0.284-2.694,0.159c0.008,0.029,0.021,0.059,0.042,0.089    c0.242,0.455,0.432,0.936,0.708,1.374l2.107,3.931c0,0-1.032-0.153-1.229-0.123c-1.394,0.007-3.183,1.148-3.844,2.146    c-0.623,0.939-0.396,1.697,0.513,1.9c0.26-0.286,0.656-0.58,1.136-0.818c0.994-0.494,1.963-0.563,2.166-0.154    c0.029,0.059,0.039,0.123,0.035,0.193c0.399-0.247,0.776-0.544,1.13-0.883c0.528-0.507,0.923-1.079,0.639-1.667l-2.33-4.648    c0.003-0.004,0.006-0.008,0.009-0.013c0.041-0.273,0.25-0.169,0.397-0.183c1.48-0.14,2.945-0.44,4.378-1.13    c0.24,0.105,0.26,0.344,0.358,0.53c0.86,1.638,1.585,3.344,2.523,4.943l0.046,0.148l-0.118,0.068    c-2.139-0.254-4.248,1.223-4.893,2.379c-0.485,0.869-0.252,1.463,0.67,1.688c0.129,0.032,0.27,0.05,0.417,0.059    c0.534-0.594,1.434-1.25,2.532-1.795c0.744-0.37,1.474-0.637,2.115-0.792c0.185-0.499,0.046-1-0.391-1.714    c-0.604-1.24-1.206-2.48-1.813-3.718c-0.487-0.99-0.977-1.979-1.479-2.961c-0.064-0.125-0.076-0.379-0.285-0.341    C91.288,232.534,90.222,233.054,88.933,233.351z" fill="#29AAE1"/><path d="M91.547,232.131c-1.333,0.937-2.717,1.133-4.132,1.08c-0.233,0.012-0.381-0.096-0.545-0.181    c-0.093-0.021-0.189-0.021-0.293,0.019c-0.171,0.144-0.384,0.278-0.337,0.461c0.681,0.125,1.65,0.081,2.694-0.159    c1.29-0.297,2.355-0.817,2.847-1.333C91.72,232.029,91.645,232.062,91.547,232.131z" fill="#29AAE1"/><path d="M91.547,232.131c-1.333,0.937-2.717,1.133-4.132,1.08c-0.233,0.012-0.381-0.096-0.545-0.181    c-0.093-0.021-0.189-0.021-0.293,0.019c-0.171,0.144-0.384,0.278-0.337,0.461c0.681,0.125,1.65,0.081,2.694-0.159    c1.29-0.297,2.355-0.817,2.847-1.333C91.72,232.029,91.645,232.062,91.547,232.131z" fill="#D2D3D4" opacity="0.4"/></g><g><linearGradient gradientTransform="matrix(0.3386 0.4918 -0.3094 0.213 288.303 -234.905)" gradientUnits="userSpaceOnUse" id="SVGID_6_" x1="419.054" x2="419.054" y1="1063.6826" y2="1063.6826"><stop offset="0" style="stop-color:#FFFFFF"/><stop offset="0.5765" style="stop-color:#F2F2F2"/><stop offset="0.9847" style="stop-color:#F2F2F2"/></linearGradient><path d="M101.092,197.75" fill="url(#SVGID_6_)"/><path d="M99.323,212.664c0.913,0.839,1.641,1.366,2.298,1.606c-0.615-1.333-1.481-2.847-2.542-4.388    c-1.564-2.272-3.226-4.127-4.584-5.221C94.985,207.112,97.023,210.553,99.323,212.664z" fill="#2BACE2"/><path d="M94.078,193.284c-0.683-0.993-1.424-1.809-2.08-2.342c0.02,0.368,0.091,0.789,0.217,1.259    c0.56,2.08,1.582,3.979,2.939,5.679c0.13,0.006,0.244-0.017,0.335-0.08C96.126,197.363,95.494,195.341,94.078,193.284z" fill="#2BACE2"/><path d="M111.517,199.776c-0.981-2.169-1.568-4.191-1.695-5.616c-0.047,0.016-0.095,0.044-0.141,0.09    c-0.698,0.523-1.475,0.937-2.126,1.529l-6.044,4.542c0,0-0.26-2.161-0.419-2.572c-0.741-2.91-3.749-6.603-5.907-7.947    c-2.032-1.266-3.29-0.763-3.187,1.139c0.655,0.533,1.396,1.35,2.08,2.342c1.416,2.057,2.048,4.079,1.412,4.517    c-0.091,0.063-0.205,0.086-0.335,0.08c0.659,0.824,1.394,1.601,2.196,2.328c1.197,1.083,2.442,1.888,3.362,1.272l7.234-5.032    c0.009,0.006,0.019,0.013,0.028,0.019c0.518,0.075,0.438,0.517,0.54,0.823c1.028,3.084,2.338,6.132,4.34,9.098    c-0.064,0.507-0.488,0.556-0.777,0.768c-2.528,1.854-5.25,3.43-7.667,5.445l-0.244,0.102l-0.185-0.243    c-0.656-4.475-4.44-8.825-6.88-10.13c-1.832-0.98-2.791-0.473-2.719,1.459c0.01,0.272,0.051,0.566,0.113,0.874    c1.358,1.093,3.02,2.948,4.584,5.221c1.061,1.541,1.927,3.055,2.542,4.388c1.004,0.368,1.842,0.061,2.912-0.876    c1.938-1.306,3.878-2.606,5.811-3.92c1.546-1.052,3.089-2.109,4.611-3.195c0.193-0.138,0.649-0.171,0.472-0.605    C114.231,204.665,112.731,202.458,111.517,199.776z" fill="#29AAE1"/></g><ellipse cx="250.747" cy="236.609" fill="#E7BE9D" rx="85.777" ry="80.5"/><ellipse cx="285.739" cy="214.279" fill="#FFFFFF" rx="21.398" ry="17.848"/><ellipse cx="222.774" cy="214.278" fill="#FFFFFF" rx="21.398" ry="17.848"/><path d="M222.774,199.02c11.295,0,20.54,7.301,21.336,16.554c0.037-0.428,0.062-0.859,0.062-1.295   c0-9.857-9.581-17.848-21.398-17.848c-11.818,0-21.398,7.991-21.398,17.848c0,0.436,0.025,0.867,0.062,1.295   C202.233,206.321,211.478,199.02,222.774,199.02z" fill="#231F20"/><path d="M285.739,199.02c11.295,0,20.54,7.301,21.336,16.554c0.037-0.428,0.063-0.859,0.063-1.295   c0-9.857-9.581-17.848-21.398-17.848c-11.818,0-21.398,7.991-21.398,17.848c0,0.436,0.025,0.867,0.063,1.295   C265.198,206.321,274.443,199.02,285.739,199.02z" fill="#231F20"/><path d="M292.017,189.151c3.06-0.637,6.071-1.04,8.98-1.233c-3.505-0.623-8.792-0.696-16.673-0.009   c-11.933,1.039-21.701,6.557-21.701,14.646c0,1.475,0.326,2.897,0.927,4.24C266.477,199.36,277.588,192.155,292.017,189.151z" fill="#231F20"/><path d="M216.08,189.151c-3.06-0.637-6.071-1.04-8.981-1.233c3.504-0.623,8.792-0.696,16.673-0.009   c11.932,1.039,21.702,6.557,21.702,14.646c0,1.475-0.327,2.897-0.927,4.24C241.619,199.36,230.509,192.155,216.08,189.151z" fill="#231F20"/><path d="M284.021,230.831c-5.125,0-9.82-1.509-13.504-4.016c3.878,3.278,9.264,5.311,15.222,5.311   c6.496,0,12.313-2.418,16.236-6.23l0.033-3.249C298.198,227.57,291.569,230.831,284.021,230.831z" fill="#231F20" opacity="0.8"/><path d="M223.837,230.831c5.125,0,9.822-1.509,13.504-4.016c-3.878,3.278-9.263,5.311-15.221,5.311   c-6.497,0-12.313-2.418-16.237-6.23l-0.032-3.249C209.661,227.57,216.29,230.831,223.837,230.831z" fill="#231F20" opacity="0.8"/><g><path d="M267.979,251.104c0,7.599-6.115,8.723-13.661,8.723c-7.545,0-13.662-1.124-13.662-8.723    s6.117-13.759,13.662-13.759C261.864,237.345,267.979,243.505,267.979,251.104z" fill="#A97E52"/><ellipse cx="259.885" cy="253.139" fill="#3C2619" rx="3.592" ry="4.5"/><ellipse cx="254.498" cy="250.294" fill="#E7E7E7" opacity="0.15" rx="0.645" ry="4.666"/><path d="M254.318,237.345c-0.269,0-0.532,0.025-0.798,0.041    c7.172,0.418,12.864,6.391,12.864,13.718s-5.692,8.631-12.864,8.713c0.266,0.004,0.529,0.01,0.798,0.01    c7.546,0,13.661-1.124,13.661-8.723S261.864,237.345,254.318,237.345z" fill="#E7E7E7" opacity="0.15"/><path d="M261.227,250.148c0.597,0,1.158,0.184,1.652,0.506c-0.643-1.214-1.743-2.015-2.994-2.015    c-1.984,0-3.592,2.014-3.592,4.5c0,1.739,0.787,3.243,1.939,3.993c-0.377-0.713-0.598-1.566-0.598-2.485    C257.635,252.162,259.242,250.148,261.227,250.148z" fill="#8B603E"/><ellipse cx="249.149" cy="253.139" fill="#3C2619" rx="3.592" ry="4.5"/><path d="M247.807,250.148c-0.597,0-1.157,0.184-1.652,0.506c0.643-1.214,1.745-2.015,2.995-2.015    c1.983,0,3.592,2.014,3.592,4.5c0,1.739-0.788,3.243-1.939,3.993c0.377-0.713,0.599-1.566,0.599-2.485    C251.401,252.162,249.791,250.148,247.807,250.148z" fill="#8B603E"/></g><g><g><ellipse cx="282.705" cy="215.563" fill="#09252D" rx="13.907" ry="14.149" transform="matrix(-4.915436e-004 -1 1 -4.915436e-004 67.2808 498.3747)"/><g opacity="0.3"><ellipse cx="282.703" cy="215.563" fill="#087AA7" rx="10.67" ry="10.487"/></g><g><ellipse cx="282.704" cy="215.563" fill="#013344" rx="4.779" ry="4.697"/></g></g><path d="M279.191,210.384c-0.656,0.227-1.347-2.202-0.775-2.896    c1.536-1.867,8.12-1.713,10.072,1.101c1.604,2.313-1.005,3.197-1.005,3.197S284.149,208.672,279.191,210.384z" fill="#087AA7" opacity="0.5"/></g><g><g><ellipse cx="225.027" cy="215.563" fill="#09252D" rx="13.907" ry="14.149" transform="matrix(-5.090674e-004 -1 1 -5.090674e-004 9.578 440.7)"/><g opacity="0.3"><ellipse cx="225.025" cy="215.563" fill="#087AA7" rx="10.487" ry="10.669" transform="matrix(5.121986e-004 1 -1 5.121986e-004 440.4728 -9.5725)"/></g><g><ellipse cx="225.026" cy="215.563" fill="#013344" rx="4.778" ry="4.697"/></g></g><path d="M221.513,210.384c-0.657,0.227-1.347-2.202-0.776-2.896    c1.536-1.867,8.121-1.713,10.072,1.101c1.604,2.313-1.005,3.197-1.005,3.197S226.47,208.672,221.513,210.384z" fill="#087AA7" opacity="0.5"/></g><path d="M250.747,156.109c-0.187,0-0.374,0.006-0.56,0.007v160.985   c0.186,0.002,0.373,0.008,0.56,0.008c47.374,0,85.778-36.042,85.778-80.5C336.526,192.15,298.121,156.109,250.747,156.109z" fill="#1E1E1E" opacity="0.1"/><g><path d="M346.925,166.186c-10.181-52.083-69.182-65.169-100.874-62.485c-10.873,0.921-21.649,2.308-32.249,5.232    c0.738-2.241,0.612-5.361-5.175-6.239c0,0,4.783,1.171,0,5.186l-2.777-5.186c-0.035,0.449,0.282,4.298-0.56,5.186l-5.214-0.857    c0,0,3.839,2.937,4.423,3.433c0.247,0.209,0.426,0.741,0.551,1.283c-5.706,2.1-11.354,4.738-16.929,8.1    c-9.268,5.587-53.303,30.047-39.748,98.174l29.668,112.825c0.038-0.105,0.077-0.21,0.113-0.32    c-12.829-98.389-5.062-103.128-5.062-103.128s20.601,46.75,22.558,45.701c0,0,0.566-85.867,0.685-86.048    c0.039-0.065,0.079-0.125,0.118-0.181c0.013-0.016,0.024-0.033,0.038-0.049c0.127-0.168,0.258-0.303,0.397-0.376    c2.508-1.9,44.487,53.969,47.282,57.577c1.245,1.241,2.474-56.589,2.474-56.589c1.723,2.327,17.608,41.784,20.463,42.049    c-4.639-5.001,4.758-42.049,4.758-42.049s28.98,8.223,41.967,30.794c23.816,41.397,6.818,109.478,7.436,109.389    c1.795-0.643,19.947-35.327,23.264-53.313C355.136,216.795,346.925,166.186,346.925,166.186z" fill="#161616"/></g><path d="M248.732,103.518v88.186c4.837,10.749,16.025,37.55,18.378,37.768   c-4.639-5.001,4.758-42.049,4.758-42.049s28.98,8.223,41.967,30.794c23.816,41.397,6.818,109.478,7.436,109.389   c1.795-0.643,19.947-35.327,23.264-53.313c10.603-57.498,2.392-108.107,2.392-108.107   C337.024,115.536,280.957,101.768,248.732,103.518z" fill="#010101" opacity="0.3"/><g><path d="M252.96,285.754c-16.825,0.674-31.145-3.614-35.349-10.014c-0.667,1.22-1,2.479-0.949,3.762    c0.334,8.354,16.718,14.481,36.594,13.687c19.878-0.797,35.72-8.215,35.385-16.569c-0.051-1.282-0.484-2.511-1.247-3.672    C283.714,279.661,269.784,285.08,252.96,285.754z" fill="#A97D51"/><path d="M279.794,267.356c-0.529,0.227-1.03,0.49-1.502,0.789    c5.09-1.252,10.555,1.477,12.756,6.641s0.384,10.996-4.045,13.801c0.542-0.134,1.08-0.312,1.61-0.537    c5.498-2.343,7.981-8.875,5.546-14.59C291.724,267.746,285.293,265.013,279.794,267.356z" fill="#A97D51" opacity="0.48"/><path d="M227.308,267.356c0.529,0.227,1.03,0.49,1.502,0.789    c-5.09-1.252-10.555,1.477-12.756,6.641s-0.384,10.996,4.045,13.801c-0.542-0.134-1.081-0.312-1.61-0.537    c-5.498-2.343-7.981-8.875-5.546-14.59C215.378,267.746,221.81,265.013,227.308,267.356z" fill="#A97D51" opacity="0.48"/><path d="M256.5,289.822h6.585c1.673,0,3.028-1.356,3.028-3.029l-0.514-2.516c-3.701,0.738-7.705,1.236-11.899,1.44    l-0.229,1.075C253.472,288.466,254.828,289.822,256.5,289.822z" fill="#FFFFFF"/><path d="M242.973,289.822h6.585c1.673,0,3.028-1.356,3.028-3.029l-0.209-1.021    c-4.246,0.141-8.325-0.033-12.115-0.478l-0.318,1.498C239.945,288.466,241.3,289.822,242.973,289.822z" fill="#FFFFFF"/></g></g></svg>