<?xml version="1.0" ?><!DOCTYPE svg  PUBLIC '-//W3C//DTD SVG 1.1//EN'  'http://www.w3.org/Graphics/SVG/1.1/DTD/svg11.dtd'><svg enable-background="new 0 0 128 128" height="128px" version="1.1" viewBox="0 0 128 128" width="128px" xml:space="preserve" xmlns="http://www.w3.org/2000/svg" xmlns:xlink="http://www.w3.org/1999/xlink"><g id="Layer_2"/><g id="Layer_1"><path d="   M93.334,67.792c0,0,9.666,2.916,14.75-6.292c-5.459-0.375-13.459-2.188-16.75-5.25" fill="none" stroke="#231F20" stroke-linecap="round" stroke-linejoin="round" stroke-miterlimit="10" stroke-width="5"/><path d="   M70,70.791c0,0,0.293-3.499,4.209-3.499s4.416,3.499,4.416,3.499" fill="none" stroke="#231F20" stroke-linecap="round" stroke-linejoin="round" stroke-miterlimit="10" stroke-width="5"/><path d="   M50,70.791c0,0,0.293-3.499,4.209-3.499s4.416,3.499,4.416,3.499" fill="none" stroke="#231F20" stroke-linecap="round" stroke-linejoin="round" stroke-miterlimit="10" stroke-width="5"/><circle cx="64.875" cy="94.103" fill="#231F20" r="8.272"/><path d="   M92.135,64.74c0-15.4-12.484-27.885-27.885-27.885S36.365,49.34,36.365,64.74c0,10.657,5.981,19.915,14.768,24.608   c-0.561,1.552-0.883,3.219-0.883,4.964c0,8.077,6.548,14.625,14.625,14.625S79.5,102.39,79.5,94.312   c0-1.965-0.394-3.837-1.097-5.549C86.62,83.913,92.135,74.973,92.135,64.74z" fill="none" stroke="#231F20" stroke-linecap="round" stroke-linejoin="round" stroke-miterlimit="10" stroke-width="5"/><path d="   M76,39.5h14.5c0,0,0-6,0-10c0-3,6-3,6,0c0,4,0,10,0,10h6c0,0,0-11.571,0-15.797c0-1.171,0.787-3.287,3.5-3.287s3.5,2.115,3.5,3.287   c0,4.904,0,15.259,0,18.232c0,2.973-1.901,4.564-4.825,4.564c-3.273,0-18.675,0-18.675,0" fill="none" stroke="#231F20" stroke-linecap="round" stroke-linejoin="round" stroke-miterlimit="10" stroke-width="5"/><path d="   M34.166,67.792c0,0-9.666,2.916-14.75-6.292c5.459-0.375,13.459-2.188,16.75-5.25" fill="none" stroke="#231F20" stroke-linecap="round" stroke-linejoin="round" stroke-miterlimit="10" stroke-width="5"/><path d="   M51,39.5H36.5c0,0,0-6,0-10c0-3-6-3-6,0c0,4,0,10,0,10h-6c0,0,0-11.571,0-15.797c0-1.171-0.787-3.287-3.5-3.287   s-3.5,2.115-3.5,3.287c0,4.904,0,15.259,0,18.232c0,2.973,2.401,4.564,5.325,4.564c3.273,0,18.175,0,18.175,0" fill="none" stroke="#231F20" stroke-linecap="round" stroke-linejoin="round" stroke-miterlimit="10" stroke-width="5"/></g></svg>