<?xml version="1.0" encoding="iso-8859-1"?>
<!-- Generator: Adobe Illustrator 18.1.1, SVG Export Plug-In . SVG Version: 6.00 Build 0)  -->
<svg version="1.1" id="Capa_1" xmlns="http://www.w3.org/2000/svg" xmlns:xlink="http://www.w3.org/1999/xlink" x="0px" y="0px"
	 viewBox="0 0 44.423 44.423" style="enable-background:new 0 0 44.423 44.423;" xml:space="preserve">
<g>
	<g>
		<path d="M39.938,10.598H16.383v-0.189c0-1.215-0.985-2.198-2.2-2.198s-2.199,0.983-2.199,2.198v0.188h-1.347
			c-3.71,0-7.092,1.679-8.398,6.718L0,26.647c0,2.949,1.9,5.449,4.544,6.352c-0.038-0.245-0.065-0.495-0.065-0.752
			c0-2.675,2.178-4.852,4.854-4.852c2.677,0,4.853,2.177,4.853,4.852c0,0.386-0.052,0.76-0.136,1.119h14.83
			c-0.085-0.358-0.137-0.732-0.137-1.119c0-2.675,2.177-4.852,4.853-4.852c2.675,0,4.853,2.177,4.853,4.852
			c0,0.375-0.047,0.738-0.129,1.089c3.421-0.313,6.103-3.186,6.103-6.688v-9.333C44.418,13.605,43.649,10.598,39.938,10.598z
			 M13.996,20.788H5.459H4.853l1.153-4.567c0.043-0.149,0.124-0.433,0.268-0.942c0.446-2.267,2.998-2.069,2.998-2.069h4.725
			L13.996,20.788L13.996,20.788z M32.484,22.789h-4.156v4.158h-4.006v-4.158h-4.155v-4.003h4.155v-4.157h4.006v4.157h4.156V22.789z"
			/>
		<circle cx="9.272" cy="32.398" r="3.814"/>
		<circle cx="33.789" cy="32.398" r="3.814"/>
	</g>
	<g>
	</g>
	<g>
	</g>
	<g>
	</g>
	<g>
	</g>
	<g>
	</g>
	<g>
	</g>
	<g>
	</g>
	<g>
	</g>
	<g>
	</g>
	<g>
	</g>
	<g>
	</g>
	<g>
	</g>
	<g>
	</g>
	<g>
	</g>
	<g>
	</g>
</g>
<g>
</g>
<g>
</g>
<g>
</g>
<g>
</g>
<g>
</g>
<g>
</g>
<g>
</g>
<g>
</g>
<g>
</g>
<g>
</g>
<g>
</g>
<g>
</g>
<g>
</g>
<g>
</g>
<g>
</g>
</svg>
