<?xml version="1.0" ?><!DOCTYPE svg  PUBLIC '-//W3C//DTD SVG 1.1//EN'  'http://www.w3.org/Graphics/SVG/1.1/DTD/svg11.dtd'><svg enable-background="new 0 0 64 64" height="64px" id="TREE" version="1.1" viewBox="0 0 64 64" width="64px" xml:space="preserve" xmlns="http://www.w3.org/2000/svg" xmlns:xlink="http://www.w3.org/1999/xlink"><path d="M49.492,44.921l-8.13-9.037h5.55c0.395,0,0.753-0.232,0.913-0.593c0.161-0.361,0.095-0.782-0.17-1.076  l-8.84-9.827h4.948c0.395,0,0.753-0.232,0.913-0.593c0.161-0.361,0.095-0.782-0.17-1.076L32.743,9.643  c-0.379-0.421-1.107-0.421-1.486,0L19.493,22.719c-0.265,0.294-0.331,0.715-0.17,1.076c0.16,0.36,0.519,0.593,0.913,0.593h4.948  l-8.84,9.827c-0.264,0.294-0.331,0.715-0.17,1.076c0.161,0.36,0.519,0.593,0.914,0.593h5.55l-8.236,9.155  c-0.264,0.294-0.331,0.715-0.17,1.076c0.161,0.36,0.519,0.593,0.914,0.593H28v6.5c0,0.553,0.447,1,1,1h6c0.553,0,1-0.447,1-1v-6.5  h12.854c0.007,0,0.015,0.001,0.02,0c0.553,0,1-0.447,1-1C49.874,45.389,49.725,45.104,49.492,44.921z M34,52.208h-4v-5.5h4V52.208z   M35,44.708h-6H17.391l8.235-9.155c0.265-0.294,0.331-0.715,0.17-1.076c-0.16-0.36-0.519-0.593-0.913-0.593h-5.551l8.84-9.827  c0.265-0.294,0.331-0.715,0.17-1.076c-0.16-0.36-0.519-0.593-0.913-0.593h-4.947L32,11.807l9.519,10.581h-4.947  c-0.395,0-0.753,0.232-0.913,0.593c-0.161,0.361-0.095,0.782,0.17,1.076l8.84,9.827h-5.551c-0.395,0-0.753,0.232-0.913,0.593  c-0.161,0.361-0.095,0.782,0.17,1.076l8.235,9.155H35z M39.037,40.795c0,0.83-0.671,1.5-1.5,1.5s-1.5-0.67-1.5-1.5  c0-0.828,0.671-1.5,1.5-1.5S39.037,39.967,39.037,40.795z M29.532,39.797c0,0.828-0.671,1.5-1.5,1.5s-1.5-0.672-1.5-1.5  c0-0.83,0.671-1.5,1.5-1.5S29.532,38.967,29.532,39.797z M37.036,30.635c0,0.83-0.671,1.5-1.5,1.5s-1.5-0.67-1.5-1.5  c0-0.828,0.671-1.5,1.5-1.5S37.036,29.807,37.036,30.635z M29.531,29.637c0,0.828-0.671,1.5-1.5,1.5s-1.5-0.672-1.5-1.5  c0-0.83,0.671-1.5,1.5-1.5S29.531,28.807,29.531,29.637z M33.5,18.847c0,0.829-0.671,1.5-1.5,1.5s-1.5-0.671-1.5-1.5  c0-0.828,0.671-1.497,1.5-1.497S33.5,18.019,33.5,18.847z" fill="#1A171B"/></svg>