<?xml version="1.0" encoding="iso-8859-1"?>
<!-- Generator: Adobe Illustrator 16.0.0, SVG Export Plug-In . SVG Version: 6.00 Build 0)  -->
<!DOCTYPE svg PUBLIC "-//W3C//DTD SVG 1.1//EN" "http://www.w3.org/Graphics/SVG/1.1/DTD/svg11.dtd">
<svg version="1.1" id="Capa_1" xmlns="http://www.w3.org/2000/svg" xmlns:xlink="http://www.w3.org/1999/xlink" x="0px" y="0px"
	 width="364.847px" height="364.847px" viewBox="0 0 364.847 364.847" style="enable-background:new 0 0 364.847 364.847;"
	 xml:space="preserve">
<g>
	<g>
		<path d="M358.938,99.571c-1.224-12.24-1.836-28.152-12.24-36.72c-14.075-11.628-39.779-7.344-56.304-7.344
			c-60.588-0.612-121.788-1.224-182.375-1.224c-32.436,0-91.188-11.016-103.428,29.376c-1.836,0-3.672,1.836-3.672,4.284
			c-0.612,31.212-1.224,62.424-0.612,93.636c0.612,28.151-2.448,58.752,3.06,86.903c7.344,39.78,42.228,37.332,75.276,38.557
			c64.26,0.611,128.52,2.448,193.391,4.284c37.944,1.224,77.725,4.896,86.292-41.005C368.117,215.239,365.67,155.263,358.938,99.571
			z M155.142,67.747c39.167,0,78.335,0,118.116,0c15.3,0,45.288-4.284,61.812,4.896c-19.584,20.196-39.779,39.168-60.588,58.752
			c-21.42,19.584-45.899,47.736-72.216,61.2c-27.54,14.076-44.675,1.224-64.872-16.524c-11.628-10.404-23.256-21.42-34.884-31.824
			c-24.48-22.644-48.96-45.288-74.052-67.932l-0.612-0.612C57.222,57.955,132.498,67.747,155.142,67.747z M272.033,297.858
			c-20.195-0.611-40.392-1.224-60.588-1.836c-38.555-1.224-76.499-2.447-115.055-3.672c-9.792-0.611-20.196-0.611-29.988-1.224
			c-18.972-0.612-24.48,1.224-34.272-11.016c29.988-30.601,59.976-61.812,86.904-95.473c3.06-3.672-1.836-9.792-5.508-5.508
			c-28.764,31.824-56.304,64.26-85.68,95.472c-14.076-20.195-11.016-39.779-11.628-63.647c-1.224-38.556-3.06-77.112-5.508-115.668
			c2.448,0,4.896-1.224,5.508-4.284c1.224-4.284,3.672-7.956,7.344-11.016c0,0.612,0,1.224,0.612,1.836
			c28.764,32.436,59.364,63.036,91.188,92.412c17.748,16.524,42.228,47.124,70.379,43.452c21.421-3.06,44.677-25.704,62.425-42.228
			c29.987,36.107,58.752,73.439,87.516,110.771C319.157,301.531,295.901,298.471,272.033,297.858z M350.369,204.835
			c-0.611,17.136,1.837,51.408-5.508,66.708c-0.611,1.224-1.224,1.836-1.836,3.06c-27.54-37.332-57.527-72.216-88.74-105.875
			c0.612-0.612,1.837-1.836,2.448-2.448c31.212-26.928,59.364-55.692,85.681-87.516c0.611,1.224,1.224,1.836,1.836,3.06
			c7.956,14.688,4.896,46.512,5.508,64.26C350.369,166.279,350.981,185.251,350.369,204.835z"/>
		<path d="M213.281,98.347c-13.464-18.36-29.987-2.448-37.943,12.24c-9.18-8.568-22.644-11.016-34.272-5.508
			c-1.836,0.612-2.448,2.448-2.448,4.284c-1.836,23.256,18.36,43.452,41.616,41.616c1.836,0,2.448-0.612,3.06-1.836
			c0.611,0,1.224,0,2.447-0.612C204.714,140.575,229.193,120.379,213.281,98.347z M182.07,138.127
			c-1.224,0.612-1.836,1.836-2.448,3.06c-12.852-1.224-23.256-8.568-28.764-20.196c-7.956-17.748,15.912-11.016,21.42,0.612
			c1.224,3.06,6.732,3.06,7.956,0c1.836-4.284,3.671-8.568,6.12-12.852c1.836-3.06,5.508-7.344,9.18-7.956
			c6.12-1.224,11.629,4.896,12.24,10.404C208.998,125.887,193.086,132.007,182.07,138.127z"/>
	</g>
</g>
<g>
</g>
<g>
</g>
<g>
</g>
<g>
</g>
<g>
</g>
<g>
</g>
<g>
</g>
<g>
</g>
<g>
</g>
<g>
</g>
<g>
</g>
<g>
</g>
<g>
</g>
<g>
</g>
<g>
</g>
</svg>
