<?xml version="1.0" encoding="iso-8859-1"?>
<!-- Generator: Adobe Illustrator 18.1.1, SVG Export Plug-In . SVG Version: 6.00 Build 0)  -->
<svg version="1.1" id="Capa_1" xmlns="http://www.w3.org/2000/svg" xmlns:xlink="http://www.w3.org/1999/xlink" x="0px" y="0px"
	 viewBox="0 0 25.945 25.945" style="enable-background:new 0 0 25.945 25.945;" xml:space="preserve">
<g>
	<g>
		<path style="fill:#010002;" d="M6.333,0.209H0.991C0.443,0.209,0,0.652,0,1.2v5.343c0,0.546,0.443,0.99,0.991,0.99h5.342
			c0.547,0,0.99-0.444,0.99-0.99V1.2C7.323,0.652,6.88,0.209,6.333,0.209z"/>
		<path style="fill:#010002;" d="M15.539,0.209h-5.343c-0.546,0-0.99,0.443-0.99,0.991v5.343c0,0.546,0.444,0.99,0.99,0.99h5.343
			c0.548,0,0.991-0.444,0.991-0.99V1.2C16.53,0.652,16.087,0.209,15.539,0.209z"/>
		<path style="fill:#010002;" d="M24.955,0.209h-5.342c-0.548,0-0.991,0.443-0.991,0.991v5.343c0,0.546,0.443,0.99,0.991,0.99h5.342
			c0.547,0,0.99-0.444,0.99-0.99V1.2C25.945,0.653,25.502,0.209,24.955,0.209z"/>
		<path style="fill:#010002;" d="M6.333,9.206H0.991C0.443,9.207,0,9.649,0,10.196v5.343c0,0.547,0.443,0.99,0.991,0.99h5.342
			c0.547,0,0.99-0.443,0.99-0.99v-5.343C7.323,9.649,6.88,9.206,6.333,9.206z"/>
		<path style="fill:#010002;" d="M15.539,9.206h-5.343c-0.546,0-0.99,0.443-0.99,0.99v5.343c0,0.547,0.444,0.99,0.99,0.99h5.343
			c0.548,0,0.991-0.443,0.991-0.99v-5.343C16.53,9.649,16.087,9.206,15.539,9.206z"/>
		<path style="fill:#010002;" d="M24.955,9.206h-5.342c-0.548,0-0.991,0.443-0.991,0.99v5.343c0,0.547,0.443,0.99,0.991,0.99h5.342
			c0.547,0,0.99-0.443,0.99-0.99v-5.343C25.945,9.649,25.502,9.206,24.955,9.206z"/>
		<path style="fill:#010002;" d="M6.333,18.412H0.991C0.443,18.412,0,18.856,0,19.402v5.343c0,0.547,0.443,0.991,0.991,0.991h5.342
			c0.547,0,0.99-0.444,0.99-0.991v-5.343C7.323,18.856,6.88,18.412,6.333,18.412z"/>
		<path style="fill:#010002;" d="M15.539,18.412h-5.343c-0.546,0-0.99,0.444-0.99,0.99v5.343c0,0.547,0.444,0.991,0.99,0.991h5.343
			c0.548,0,0.991-0.444,0.991-0.991v-5.343C16.53,18.856,16.087,18.412,15.539,18.412z"/>
		<path style="fill:#010002;" d="M24.955,18.412h-5.342c-0.548,0-0.991,0.444-0.991,0.99v5.343c0,0.547,0.443,0.991,0.991,0.991
			h5.342c0.547,0,0.99-0.444,0.99-0.991v-5.343C25.945,18.856,25.502,18.412,24.955,18.412z"/>
	</g>
</g>
<g>
</g>
<g>
</g>
<g>
</g>
<g>
</g>
<g>
</g>
<g>
</g>
<g>
</g>
<g>
</g>
<g>
</g>
<g>
</g>
<g>
</g>
<g>
</g>
<g>
</g>
<g>
</g>
<g>
</g>
</svg>
