<?xml version="1.0" encoding="iso-8859-1"?>
<!-- Generator: Adobe Illustrator 16.0.0, SVG Export Plug-In . SVG Version: 6.00 Build 0)  -->
<!DOCTYPE svg PUBLIC "-//W3C//DTD SVG 1.1//EN" "http://www.w3.org/Graphics/SVG/1.1/DTD/svg11.dtd">
<svg version="1.1" id="Capa_1" xmlns="http://www.w3.org/2000/svg" xmlns:xlink="http://www.w3.org/1999/xlink" x="0px" y="0px"
	 width="570.547px" height="570.547px" viewBox="0 0 570.547 570.547" style="enable-background:new 0 0 570.547 570.547;"
	 xml:space="preserve">
<g>
	<path d="M470.342,66.802C407.611,3.46,305.407-7.556,222.175,4.072C179.029,9.886,79.273,41.404,75.602,96.484
		c-5.814,12.546-2.448,26.928,10.71,34.884c1.53,0.918,3.978,0.918,5.202,0c5.202-3.672,9.792-7.65,13.464-11.934
		c2.754,7.038,7.956,12.546,17.442,13.464c11.934,1.224,25.398-8.262,31.518-19.278c1.836,19.278,26.01,22.95,40.392,9.792
		c7.038,16.524,30.6,17.136,41.922,2.448c2.754,17.136,23.256,23.562,39.168,14.994c0.612,7.65,4.284,14.688,13.159,18.36
		c8.873,3.672,18.665,3.366,27.539,0c-1.224,6.426,0.307,13.158,6.12,18.666c7.65,7.344,17.136,7.344,25.704,3.672
		c-1.53,9.792-0.918,19.584,4.896,28.764c4.59,7.65,12.239,10.098,19.89,9.792c-4.896,6.426-6.732,14.382-3.672,22.644
		c3.366,9.18,10.71,12.546,18.972,12.852c-4.59,7.038-7.649,14.994-7.038,22.95c0,1.53,0.612,3.06,0.918,4.284
		c-4.284,0.612-7.956,2.142-11.628,4.59c-1.53-1.53-3.366-2.448-6.12-2.143c-54.773,8.568-81.702-41.615-126.684-56.916
		c-30.6-10.404-63.342-12.852-95.472-7.956c-56.61,9.792-127.908,36.108-129.132,103.733c-0.918,38.557,59.364,34.885,82.314,30.906
		c38.556-6.426,74.664-23.868,114.138-25.704c44.064-2.142,85.681,18.973,129.744,22.645c-0.306,0.306-0.918,0.611-1.224,0.918
		c-5.202,4.284-6.732,9.485-6.427,14.688c-8.874-1.529-17.748,0.307-25.092,7.344c-1.224,0.918-2.142,2.143-2.754,3.366
		c-5.508-5.508-13.464-7.956-22.338-3.06c-10.404,5.508-14.382,14.688-14.688,24.479c-6.426-3.365-13.464-3.978-21.42,0
		c-4.59,2.448-7.344,6.427-9.18,11.017c-5.814-5.814-13.77-9.181-22.032-7.65c-8.568,1.836-13.464,7.038-16.218,13.464
		c-4.896-4.284-11.322-6.731-20.196-4.896c-6.12,1.224-11.016,5.202-13.77,9.792c-2.754-7.038-7.65-11.935-17.136-10.71
		c-10.71,1.529-17.136,9.485-20.502,18.666c-6.732-12.24-18.054-21.42-33.966-18.36c-18.972,3.672-23.562,24.786-7.65,35.802
		c1.224,0.918,2.142,0.612,3.366,0.307c78.336,44.37,192.474,73.439,270.504,17.748c0,37.025,2.142,73.439,27.233,103.122
		c4.284,5.201,11.322,1.529,13.464-3.673c7.65-18.666,31.213-92.105,54.162-44.063c5.814,12.24,13.464,28.458,28.152,32.436
		c24.786,6.732,33.966-41.31,38.862-64.872c0.306-0.306,0.611-0.611,0.918-1.224C579.583,360.868,571.627,169.006,470.342,66.802z
		 M90.29,433.695c-1.224-0.611-2.754,0-3.672,0.612c-1.836-7.038-0.306-12.546,10.404-12.852
		c12.546-0.307,19.89,10.098,23.562,21.113C109.567,440.733,99.164,437.979,90.29,433.695z M129.458,121.882
		c-14.688,5.814-18.054-9.486-15.606-20.808c11.322,0.306,22.95,0.918,35.19,1.836C142.921,110.254,139.25,118.21,129.458,121.882z
		 M192.799,108.112c-7.038,20.808-36.414,20.502-32.13-4.284c10.71,0.918,21.726,2.142,32.742,3.672
		C192.799,107.806,192.799,107.806,192.799,108.112z M215.75,127.084c-11.628,3.06-13.77-9.18-12.852-17.442
		c0-0.306,0-0.612,0-0.612c9.792,1.53,19.278,3.366,29.07,5.202C227.377,120.046,223.706,124.942,215.75,127.084z M244.819,116.986
		c10.71,2.448,21.114,5.508,31.518,8.874C263.792,140.242,243.595,136.876,244.819,116.986z M301.735,151.258
		c-14.076,0.918-18.36-10.404-13.77-21.42c11.321,4.284,22.031,9.18,32.436,14.688C314.588,148.198,309.079,150.952,301.735,151.258
		z M330.806,171.148c-9.486-4.59-4.59-14.382-0.307-20.808c7.345,4.59,14.383,9.486,21.114,14.688
		C345.8,170.536,339.067,174.82,330.806,171.148z M359.875,201.442c-4.283-7.65-3.06-20.196,1.53-28.152
		c9.486,8.874,17.748,18.972,24.786,29.988c-0.306,0-0.612,0-0.918,0.306C375.787,208.786,366.302,213.07,359.875,201.442z
		 M379.766,238.774c-5.814-8.568,4.896-17.136,10.71-21.42c1.53-0.918,1.836-2.754,1.53-4.59c4.59,8.262,8.262,17.442,11.016,27.234
		c-0.306,0-0.612,0-0.918,0.306C395.065,243.976,385.273,247.036,379.766,238.774z M406.388,253.462
		c0.918,5.508,1.836,11.016,2.447,16.83c0.307,3.978,0.307,8.262,0.307,12.24c-8.568,0.306-18.666,1.53-15.912-10.404
		C395.065,264.784,400.573,258.358,406.388,253.462z M376.705,298.138c7.65-7.038,20.196-2.754,27.847,1.53
		c0.611,0.306,1.529,0.306,2.142,0c-2.142,8.568-5.202,17.136-9.792,25.397c-0.306-1.224-1.224-2.447-2.754-3.06
		C386.191,318.334,365.689,308.542,376.705,298.138z M391.394,333.939c-3.979,6.427-8.874,12.546-14.076,18.36
		c-5.508-1.836-10.71-3.978-9.486-10.71c1.836-9.486,13.771-9.792,21.114-7.65C389.863,333.939,390.781,333.939,391.394,333.939z
		 M172.909,319.864c-25.704,4.59-160.038,59.363-144.126-13.158c17.748-81.09,158.508-88.434,216.954-59.058
		c41.004,20.502,68.238,56.304,115.974,52.326c-2.142,7.956,2.448,15.606,9.181,21.727c-7.038,2.754-12.546,7.956-14.994,16.218
		c-0.918,3.06-0.918,5.813-0.306,8.567C292.556,338.53,236.863,308.542,172.909,319.864z M364.159,359.95
		c1.225,0.918,2.143,1.529,3.366,2.142c-5.508,5.202-11.322,10.098-17.442,14.994c-5.201-4.284-11.016-11.016-3.672-16.524
		C351.613,356.584,358.346,357.502,364.159,359.95z M314.894,383.512c7.038-7.65,17.748-4.284,24.786,1.224
		c-7.038,4.896-14.076,9.486-21.727,13.771C313.363,394.222,309.386,389.632,314.894,383.512z M282.151,385.96
		c6.732-7.038,13.158-4.59,18.054,0.918c-0.611,6.426,1.53,13.158,5.814,18.054c-7.956,3.979-16.218,7.956-24.48,11.322l0,0
		C275.419,406.462,273.583,394.834,282.151,385.96z M248.491,410.746c8.262-9.486,18.36,2.754,22.644,9.792
		c-7.65,3.06-15.606,5.813-23.562,8.262C245.737,422.68,243.29,416.56,248.491,410.746z M216.974,412.275
		c7.038-0.611,12.852,3.673,17.442,8.874c0.306,3.673,1.224,7.65,3.06,10.71c-10.71,3.061-21.42,5.509-32.13,7.65
		c0-3.366,0-6.732-0.918-9.792C205.04,421.149,207.793,413.193,216.974,412.275z M178.417,422.68
		c9.792-3.978,14.688,2.754,15.912,10.71c0,2.448,0,4.896,0.306,7.344c0,0.307,0,0.307,0,0.612l0,0l0,0
		c-7.038,1.224-13.77,1.836-20.502,2.448C171.379,435.838,167.708,427.27,178.417,422.68z M144.146,419.926
		c14.076-8.568,16.524,15.912,16.524,23.868c0,0.306,0.306,0.612,0.306,0.918c-9.792,0.306-19.278,0-28.458-0.612
		C132.518,434.614,135.578,425.128,144.146,419.926z M511.039,469.191c-1.836,0.918-3.365,2.448-3.978,4.896
		c-4.284,13.158-7.65,26.622-11.322,39.78c-8.567,31.518-39.474-26.316-42.84-31.212c-6.426-9.792-17.136-6.12-25.704-3.366
		c-17.441,5.813-25.704,25.397-31.518,41.004c-7.345,19.278-1.836,51.102-16.83,2.448c-7.038-22.645-4.896-50.49-4.896-74.053
		c0-7.038-8.567-10.098-13.464-5.508c-61.2,55.692-146.268,40.393-220.32,14.382c43.758,3.366,94.248-13.464,130.05-25.397
		c16.524-5.508,32.742-12.24,48.348-20.502c2.142,0,3.978-0.918,4.896-2.448c21.727-11.934,41.923-26.316,58.753-43.758
		c0.918,0,1.836,0,2.754-0.307c3.672-0.611,4.283-3.672,3.365-6.426c14.076-16.218,25.398-34.884,32.742-55.998
		c23.868-69.462-35.802-136.782-89.352-170.442c-68.238-42.534-157.59-48.348-235.62-48.654c-11.016,0-11.016,17.136,0,17.136
		c2.142,0,3.978,0,6.12,0c-2.448,8.262-7.344,13.771-13.77,19.278c-5.202-4.284-7.038-9.486-6.426-15.3
		c0-0.306,0.306-0.306,0.306-0.306c0.306-1.836,0.612-3.366,0.918-5.202c0.918-2.754,2.142-5.508,3.366-7.956
		c0.612-0.918,0.306-1.836,0-2.754c25.704-58.752,149.94-73.134,197.064-73.44c82.313-0.918,163.098,36.108,208.386,104.958
		C559.693,222.556,540.722,357.502,511.039,469.191z"/>
	<path d="M268.688,42.322c-7.65,5.814-5.508,16.83-4.59,25.092c0.612,6.732,10.098,6.732,10.71,0
		c0.306-3.672,0.612-7.344,1.53-11.016c0.612-3.06,2.142-5.508,1.836-8.568C277.562,43.546,272.972,39.262,268.688,42.322z"/>
	<path d="M322.237,56.092c-1.53-4.284-8.568-6.426-10.71-1.53c-1.53,3.06-1.53,5.814-2.142,9.18
		c-0.612,3.366-1.836,6.426-3.061,9.792c-2.142,6.12,6.732,9.18,10.099,4.284C320.096,71.698,324.991,63.13,322.237,56.092z"/>
	<path d="M342.739,307.624c-78.03-14.076-153.612-80.478-228.582-22.95c-3.366,2.754-0.306,8.568,3.672,6.12
		c81.09-53.244,142.902,21.726,223.379,26.928C347.023,318.027,348.247,308.542,342.739,307.624z"/>
</g>
<g>
</g>
<g>
</g>
<g>
</g>
<g>
</g>
<g>
</g>
<g>
</g>
<g>
</g>
<g>
</g>
<g>
</g>
<g>
</g>
<g>
</g>
<g>
</g>
<g>
</g>
<g>
</g>
<g>
</g>
</svg>
